G04 #@! TF.GenerationSoftware,KiCad,Pcbnew,5.1.5-52549c5~84~ubuntu18.04.1*
G04 #@! TF.CreationDate,2020-02-13T14:42:01+01:00*
G04 #@! TF.ProjectId,Project,50726f6a-6563-4742-9e6b-696361645f70,rev?*
G04 #@! TF.SameCoordinates,Original*
G04 #@! TF.FileFunction,Copper,L2,Bot*
G04 #@! TF.FilePolarity,Positive*
%FSLAX46Y46*%
G04 Gerber Fmt 4.6, Leading zero omitted, Abs format (unit mm)*
G04 Created by KiCad (PCBNEW 5.1.5-52549c5~84~ubuntu18.04.1) date 2020-02-13 14:42:01*
%MOMM*%
%LPD*%
G04 APERTURE LIST*
%ADD10R,1.700000X1.700000*%
%ADD11O,1.700000X1.700000*%
%ADD12O,1.450000X2.000000*%
%ADD13O,1.150000X1.800000*%
%ADD14C,0.100000*%
%ADD15O,1.750000X1.200000*%
%ADD16C,0.800000*%
%ADD17C,0.500000*%
%ADD18C,0.200000*%
%ADD19C,0.254000*%
G04 APERTURE END LIST*
D10*
X276220000Y-297600000D03*
D11*
X278760000Y-297600000D03*
X281300000Y-297600000D03*
X283840000Y-297600000D03*
X286380000Y-297600000D03*
D12*
X298095000Y-247040000D03*
X290645000Y-247040000D03*
D13*
X298245000Y-243240000D03*
X290495000Y-243240000D03*
G04 #@! TA.AperFunction,ComponentPad*
D14*
G36*
X298337505Y-277087204D02*
G01*
X298361773Y-277090804D01*
X298385572Y-277096765D01*
X298408671Y-277105030D01*
X298430850Y-277115520D01*
X298451893Y-277128132D01*
X298471599Y-277142747D01*
X298489777Y-277159223D01*
X298506253Y-277177401D01*
X298520868Y-277197107D01*
X298533480Y-277218150D01*
X298543970Y-277240329D01*
X298552235Y-277263428D01*
X298558196Y-277287227D01*
X298561796Y-277311495D01*
X298563000Y-277335999D01*
X298563000Y-278036001D01*
X298561796Y-278060505D01*
X298558196Y-278084773D01*
X298552235Y-278108572D01*
X298543970Y-278131671D01*
X298533480Y-278153850D01*
X298520868Y-278174893D01*
X298506253Y-278194599D01*
X298489777Y-278212777D01*
X298471599Y-278229253D01*
X298451893Y-278243868D01*
X298430850Y-278256480D01*
X298408671Y-278266970D01*
X298385572Y-278275235D01*
X298361773Y-278281196D01*
X298337505Y-278284796D01*
X298313001Y-278286000D01*
X297062999Y-278286000D01*
X297038495Y-278284796D01*
X297014227Y-278281196D01*
X296990428Y-278275235D01*
X296967329Y-278266970D01*
X296945150Y-278256480D01*
X296924107Y-278243868D01*
X296904401Y-278229253D01*
X296886223Y-278212777D01*
X296869747Y-278194599D01*
X296855132Y-278174893D01*
X296842520Y-278153850D01*
X296832030Y-278131671D01*
X296823765Y-278108572D01*
X296817804Y-278084773D01*
X296814204Y-278060505D01*
X296813000Y-278036001D01*
X296813000Y-277335999D01*
X296814204Y-277311495D01*
X296817804Y-277287227D01*
X296823765Y-277263428D01*
X296832030Y-277240329D01*
X296842520Y-277218150D01*
X296855132Y-277197107D01*
X296869747Y-277177401D01*
X296886223Y-277159223D01*
X296904401Y-277142747D01*
X296924107Y-277128132D01*
X296945150Y-277115520D01*
X296967329Y-277105030D01*
X296990428Y-277096765D01*
X297014227Y-277090804D01*
X297038495Y-277087204D01*
X297062999Y-277086000D01*
X298313001Y-277086000D01*
X298337505Y-277087204D01*
G37*
G04 #@! TD.AperFunction*
D15*
X297688000Y-279686000D03*
X297688000Y-281686000D03*
D10*
X252420000Y-274360000D03*
D11*
X252420000Y-271820000D03*
X252420000Y-269280000D03*
X252420000Y-266740000D03*
X252420000Y-264200000D03*
X252420000Y-261660000D03*
X252420000Y-259120000D03*
X252420000Y-256580000D03*
X252420000Y-254040000D03*
D16*
X256500000Y-290810000D03*
X255150000Y-298750000D03*
X251830000Y-290110000D03*
X280990000Y-250840000D03*
X275260000Y-260340000D03*
X290322000Y-291846000D03*
X289052000Y-298196000D03*
X277622000Y-288290000D03*
X255820000Y-247630000D03*
X268220000Y-283320000D03*
X273410000Y-286170000D03*
X274682000Y-271898000D03*
X277882000Y-271968000D03*
X283810000Y-294970000D03*
X283970000Y-278000000D03*
X283710000Y-276890000D03*
X279640000Y-294760000D03*
X287782000Y-292100000D03*
X286214525Y-281475475D03*
X260350000Y-281940000D03*
X266820975Y-277501025D03*
D17*
X280990000Y-250840000D02*
X280990000Y-253920000D01*
X280990000Y-253920000D02*
X275260000Y-259650000D01*
X275260000Y-259650000D02*
X275260000Y-260340000D01*
X290322000Y-291846000D02*
X290721999Y-292245999D01*
X290721999Y-292245999D02*
X290721999Y-296526001D01*
X290721999Y-296526001D02*
X289052000Y-298196000D01*
X275260000Y-260340000D02*
X275260000Y-262390000D01*
X261240000Y-274360000D02*
X252420000Y-274360000D01*
X275260000Y-260340000D02*
X261240000Y-274360000D01*
D18*
X285530001Y-296750001D02*
X286380000Y-297600000D01*
X285229999Y-296449999D02*
X285530001Y-296750001D01*
X280293997Y-296449999D02*
X285229999Y-296449999D01*
X277622000Y-293778002D02*
X280293997Y-296449999D01*
X277622000Y-288290000D02*
X277622000Y-293778002D01*
X283810000Y-294970000D02*
X283810000Y-278160000D01*
X283810000Y-278160000D02*
X283970000Y-278000000D01*
X283710000Y-276890000D02*
X279640000Y-280960000D01*
X279640000Y-280960000D02*
X279640000Y-294760000D01*
X287782000Y-292100000D02*
X286214525Y-290532525D01*
X286214525Y-290532525D02*
X286214525Y-281475475D01*
X260350000Y-281940000D02*
X262382000Y-281940000D01*
X262382000Y-281940000D02*
X266820975Y-277501025D01*
D19*
G36*
X299873000Y-299873000D02*
G01*
X250127000Y-299873000D01*
X250127000Y-298648061D01*
X254115000Y-298648061D01*
X254115000Y-298851939D01*
X254154774Y-299051898D01*
X254232795Y-299240256D01*
X254346063Y-299409774D01*
X254490226Y-299553937D01*
X254659744Y-299667205D01*
X254848102Y-299745226D01*
X255048061Y-299785000D01*
X255251939Y-299785000D01*
X255451898Y-299745226D01*
X255640256Y-299667205D01*
X255809774Y-299553937D01*
X255953937Y-299409774D01*
X256067205Y-299240256D01*
X256145226Y-299051898D01*
X256185000Y-298851939D01*
X256185000Y-298648061D01*
X256145226Y-298448102D01*
X256067205Y-298259744D01*
X255953937Y-298090226D01*
X255809774Y-297946063D01*
X255640256Y-297832795D01*
X255451898Y-297754774D01*
X255251939Y-297715000D01*
X255048061Y-297715000D01*
X254848102Y-297754774D01*
X254659744Y-297832795D01*
X254490226Y-297946063D01*
X254346063Y-298090226D01*
X254232795Y-298259744D01*
X254154774Y-298448102D01*
X254115000Y-298648061D01*
X250127000Y-298648061D01*
X250127000Y-296750000D01*
X274731928Y-296750000D01*
X274731928Y-298450000D01*
X274744188Y-298574482D01*
X274780498Y-298694180D01*
X274839463Y-298804494D01*
X274918815Y-298901185D01*
X275015506Y-298980537D01*
X275125820Y-299039502D01*
X275245518Y-299075812D01*
X275370000Y-299088072D01*
X277070000Y-299088072D01*
X277194482Y-299075812D01*
X277314180Y-299039502D01*
X277424494Y-298980537D01*
X277521185Y-298901185D01*
X277600537Y-298804494D01*
X277659502Y-298694180D01*
X277681513Y-298621620D01*
X277813368Y-298753475D01*
X278056589Y-298915990D01*
X278326842Y-299027932D01*
X278613740Y-299085000D01*
X278906260Y-299085000D01*
X279193158Y-299027932D01*
X279463411Y-298915990D01*
X279706632Y-298753475D01*
X279913475Y-298546632D01*
X280035195Y-298364466D01*
X280104822Y-298481355D01*
X280299731Y-298697588D01*
X280533080Y-298871641D01*
X280795901Y-298996825D01*
X280943110Y-299041476D01*
X281173000Y-298920155D01*
X281173000Y-297727000D01*
X281153000Y-297727000D01*
X281153000Y-297473000D01*
X281173000Y-297473000D01*
X281173000Y-297453000D01*
X281427000Y-297453000D01*
X281427000Y-297473000D01*
X281447000Y-297473000D01*
X281447000Y-297727000D01*
X281427000Y-297727000D01*
X281427000Y-298920155D01*
X281656890Y-299041476D01*
X281804099Y-298996825D01*
X282066920Y-298871641D01*
X282300269Y-298697588D01*
X282495178Y-298481355D01*
X282564805Y-298364466D01*
X282686525Y-298546632D01*
X282893368Y-298753475D01*
X283136589Y-298915990D01*
X283406842Y-299027932D01*
X283693740Y-299085000D01*
X283986260Y-299085000D01*
X284273158Y-299027932D01*
X284543411Y-298915990D01*
X284786632Y-298753475D01*
X284993475Y-298546632D01*
X285110000Y-298372240D01*
X285226525Y-298546632D01*
X285433368Y-298753475D01*
X285676589Y-298915990D01*
X285946842Y-299027932D01*
X286233740Y-299085000D01*
X286526260Y-299085000D01*
X286813158Y-299027932D01*
X287083411Y-298915990D01*
X287326632Y-298753475D01*
X287533475Y-298546632D01*
X287695990Y-298303411D01*
X287782705Y-298094061D01*
X288017000Y-298094061D01*
X288017000Y-298297939D01*
X288056774Y-298497898D01*
X288134795Y-298686256D01*
X288248063Y-298855774D01*
X288392226Y-298999937D01*
X288561744Y-299113205D01*
X288750102Y-299191226D01*
X288950061Y-299231000D01*
X289153939Y-299231000D01*
X289353898Y-299191226D01*
X289542256Y-299113205D01*
X289711774Y-298999937D01*
X289855937Y-298855774D01*
X289969205Y-298686256D01*
X290047226Y-298497898D01*
X290058535Y-298441043D01*
X291317048Y-297182531D01*
X291350816Y-297154818D01*
X291391040Y-297105806D01*
X291461409Y-297020061D01*
X291474670Y-296995252D01*
X291543588Y-296866314D01*
X291594194Y-296699491D01*
X291606999Y-296569478D01*
X291606999Y-296569468D01*
X291611280Y-296526002D01*
X291606999Y-296482536D01*
X291606999Y-292289465D01*
X291611280Y-292245998D01*
X291606999Y-292202532D01*
X291606999Y-292202522D01*
X291594194Y-292072509D01*
X291543588Y-291905686D01*
X291461410Y-291751940D01*
X291350816Y-291617182D01*
X291328045Y-291598495D01*
X291317226Y-291544102D01*
X291239205Y-291355744D01*
X291125937Y-291186226D01*
X290981774Y-291042063D01*
X290812256Y-290928795D01*
X290623898Y-290850774D01*
X290423939Y-290811000D01*
X290220061Y-290811000D01*
X290020102Y-290850774D01*
X289831744Y-290928795D01*
X289662226Y-291042063D01*
X289518063Y-291186226D01*
X289404795Y-291355744D01*
X289326774Y-291544102D01*
X289287000Y-291744061D01*
X289287000Y-291947939D01*
X289326774Y-292147898D01*
X289404795Y-292336256D01*
X289518063Y-292505774D01*
X289662226Y-292649937D01*
X289831744Y-292763205D01*
X289836999Y-292765382D01*
X289837000Y-296159421D01*
X288806957Y-297189465D01*
X288750102Y-297200774D01*
X288561744Y-297278795D01*
X288392226Y-297392063D01*
X288248063Y-297536226D01*
X288134795Y-297705744D01*
X288056774Y-297894102D01*
X288017000Y-298094061D01*
X287782705Y-298094061D01*
X287807932Y-298033158D01*
X287865000Y-297746260D01*
X287865000Y-297453740D01*
X287807932Y-297166842D01*
X287695990Y-296896589D01*
X287533475Y-296653368D01*
X287326632Y-296446525D01*
X287083411Y-296284010D01*
X286813158Y-296172068D01*
X286526260Y-296115000D01*
X286233740Y-296115000D01*
X285984102Y-296164656D01*
X285775258Y-295955812D01*
X285752237Y-295927761D01*
X285640319Y-295835912D01*
X285512632Y-295767662D01*
X285374084Y-295725634D01*
X285266104Y-295714999D01*
X285229999Y-295711443D01*
X285193894Y-295714999D01*
X284528712Y-295714999D01*
X284613937Y-295629774D01*
X284727205Y-295460256D01*
X284805226Y-295271898D01*
X284845000Y-295071939D01*
X284845000Y-294868061D01*
X284805226Y-294668102D01*
X284727205Y-294479744D01*
X284613937Y-294310226D01*
X284545000Y-294241289D01*
X284545000Y-281373536D01*
X285179525Y-281373536D01*
X285179525Y-281577414D01*
X285219299Y-281777373D01*
X285297320Y-281965731D01*
X285410588Y-282135249D01*
X285479526Y-282204187D01*
X285479525Y-290496420D01*
X285475969Y-290532525D01*
X285479525Y-290568629D01*
X285490160Y-290676609D01*
X285532188Y-290815157D01*
X285600438Y-290942844D01*
X285692287Y-291054762D01*
X285720333Y-291077779D01*
X286747000Y-292104447D01*
X286747000Y-292201939D01*
X286786774Y-292401898D01*
X286864795Y-292590256D01*
X286978063Y-292759774D01*
X287122226Y-292903937D01*
X287291744Y-293017205D01*
X287480102Y-293095226D01*
X287680061Y-293135000D01*
X287883939Y-293135000D01*
X288083898Y-293095226D01*
X288272256Y-293017205D01*
X288441774Y-292903937D01*
X288585937Y-292759774D01*
X288699205Y-292590256D01*
X288777226Y-292401898D01*
X288817000Y-292201939D01*
X288817000Y-291998061D01*
X288777226Y-291798102D01*
X288699205Y-291609744D01*
X288585937Y-291440226D01*
X288441774Y-291296063D01*
X288272256Y-291182795D01*
X288083898Y-291104774D01*
X287883939Y-291065000D01*
X287786447Y-291065000D01*
X286949525Y-290228079D01*
X286949525Y-282204186D01*
X287018462Y-282135249D01*
X287131730Y-281965731D01*
X287209751Y-281777373D01*
X287227926Y-281686000D01*
X296172025Y-281686000D01*
X296195870Y-281928102D01*
X296266489Y-282160901D01*
X296381167Y-282375449D01*
X296535498Y-282563502D01*
X296723551Y-282717833D01*
X296938099Y-282832511D01*
X297170898Y-282903130D01*
X297352335Y-282921000D01*
X298023665Y-282921000D01*
X298205102Y-282903130D01*
X298437901Y-282832511D01*
X298652449Y-282717833D01*
X298840502Y-282563502D01*
X298994833Y-282375449D01*
X299109511Y-282160901D01*
X299180130Y-281928102D01*
X299203975Y-281686000D01*
X299180130Y-281443898D01*
X299109511Y-281211099D01*
X298994833Y-280996551D01*
X298840502Y-280808498D01*
X298690652Y-280685519D01*
X298754725Y-280642307D01*
X298926078Y-280469474D01*
X299060421Y-280266533D01*
X299152591Y-280041282D01*
X299156462Y-280003609D01*
X299031731Y-279813000D01*
X297815000Y-279813000D01*
X297815000Y-279833000D01*
X297561000Y-279833000D01*
X297561000Y-279813000D01*
X296344269Y-279813000D01*
X296219538Y-280003609D01*
X296223409Y-280041282D01*
X296315579Y-280266533D01*
X296449922Y-280469474D01*
X296621275Y-280642307D01*
X296685348Y-280685519D01*
X296535498Y-280808498D01*
X296381167Y-280996551D01*
X296266489Y-281211099D01*
X296195870Y-281443898D01*
X296172025Y-281686000D01*
X287227926Y-281686000D01*
X287249525Y-281577414D01*
X287249525Y-281373536D01*
X287209751Y-281173577D01*
X287131730Y-280985219D01*
X287018462Y-280815701D01*
X286874299Y-280671538D01*
X286704781Y-280558270D01*
X286516423Y-280480249D01*
X286316464Y-280440475D01*
X286112586Y-280440475D01*
X285912627Y-280480249D01*
X285724269Y-280558270D01*
X285554751Y-280671538D01*
X285410588Y-280815701D01*
X285297320Y-280985219D01*
X285219299Y-281173577D01*
X285179525Y-281373536D01*
X284545000Y-281373536D01*
X284545000Y-278860581D01*
X284629774Y-278803937D01*
X284773937Y-278659774D01*
X284887205Y-278490256D01*
X284965226Y-278301898D01*
X285005000Y-278101939D01*
X285005000Y-277898061D01*
X284965226Y-277698102D01*
X284887205Y-277509744D01*
X284773937Y-277340226D01*
X284769710Y-277335999D01*
X296174928Y-277335999D01*
X296174928Y-278036001D01*
X296191992Y-278209255D01*
X296242528Y-278375851D01*
X296324595Y-278529387D01*
X296435038Y-278663962D01*
X296569613Y-278774405D01*
X296574406Y-278776967D01*
X296449922Y-278902526D01*
X296315579Y-279105467D01*
X296223409Y-279330718D01*
X296219538Y-279368391D01*
X296344269Y-279559000D01*
X297561000Y-279559000D01*
X297561000Y-279539000D01*
X297815000Y-279539000D01*
X297815000Y-279559000D01*
X299031731Y-279559000D01*
X299156462Y-279368391D01*
X299152591Y-279330718D01*
X299060421Y-279105467D01*
X298926078Y-278902526D01*
X298801594Y-278776967D01*
X298806387Y-278774405D01*
X298940962Y-278663962D01*
X299051405Y-278529387D01*
X299133472Y-278375851D01*
X299184008Y-278209255D01*
X299201072Y-278036001D01*
X299201072Y-277335999D01*
X299184008Y-277162745D01*
X299133472Y-276996149D01*
X299051405Y-276842613D01*
X298940962Y-276708038D01*
X298806387Y-276597595D01*
X298652851Y-276515528D01*
X298486255Y-276464992D01*
X298313001Y-276447928D01*
X297062999Y-276447928D01*
X296889745Y-276464992D01*
X296723149Y-276515528D01*
X296569613Y-276597595D01*
X296435038Y-276708038D01*
X296324595Y-276842613D01*
X296242528Y-276996149D01*
X296191992Y-277162745D01*
X296174928Y-277335999D01*
X284769710Y-277335999D01*
X284681907Y-277248196D01*
X284705226Y-277191898D01*
X284745000Y-276991939D01*
X284745000Y-276788061D01*
X284705226Y-276588102D01*
X284627205Y-276399744D01*
X284513937Y-276230226D01*
X284369774Y-276086063D01*
X284200256Y-275972795D01*
X284011898Y-275894774D01*
X283811939Y-275855000D01*
X283608061Y-275855000D01*
X283408102Y-275894774D01*
X283219744Y-275972795D01*
X283050226Y-276086063D01*
X282906063Y-276230226D01*
X282792795Y-276399744D01*
X282714774Y-276588102D01*
X282675000Y-276788061D01*
X282675000Y-276885553D01*
X279145808Y-280414746D01*
X279117762Y-280437763D01*
X279025913Y-280549681D01*
X278957663Y-280677368D01*
X278935294Y-280751110D01*
X278915635Y-280815915D01*
X278901444Y-280960000D01*
X278905000Y-280996105D01*
X278905001Y-294021557D01*
X278357000Y-293473556D01*
X278357000Y-289018711D01*
X278425937Y-288949774D01*
X278539205Y-288780256D01*
X278617226Y-288591898D01*
X278657000Y-288391939D01*
X278657000Y-288188061D01*
X278617226Y-287988102D01*
X278539205Y-287799744D01*
X278425937Y-287630226D01*
X278281774Y-287486063D01*
X278112256Y-287372795D01*
X277923898Y-287294774D01*
X277723939Y-287255000D01*
X277520061Y-287255000D01*
X277320102Y-287294774D01*
X277131744Y-287372795D01*
X276962226Y-287486063D01*
X276818063Y-287630226D01*
X276704795Y-287799744D01*
X276626774Y-287988102D01*
X276587000Y-288188061D01*
X276587000Y-288391939D01*
X276626774Y-288591898D01*
X276704795Y-288780256D01*
X276818063Y-288949774D01*
X276887000Y-289018711D01*
X276887001Y-293741887D01*
X276883444Y-293778002D01*
X276897635Y-293922087D01*
X276907942Y-293956063D01*
X276939664Y-294060635D01*
X277007914Y-294188322D01*
X277099763Y-294300240D01*
X277127808Y-294323256D01*
X278922852Y-296118300D01*
X278906260Y-296115000D01*
X278613740Y-296115000D01*
X278326842Y-296172068D01*
X278056589Y-296284010D01*
X277813368Y-296446525D01*
X277681513Y-296578380D01*
X277659502Y-296505820D01*
X277600537Y-296395506D01*
X277521185Y-296298815D01*
X277424494Y-296219463D01*
X277314180Y-296160498D01*
X277194482Y-296124188D01*
X277070000Y-296111928D01*
X275370000Y-296111928D01*
X275245518Y-296124188D01*
X275125820Y-296160498D01*
X275015506Y-296219463D01*
X274918815Y-296298815D01*
X274839463Y-296395506D01*
X274780498Y-296505820D01*
X274744188Y-296625518D01*
X274731928Y-296750000D01*
X250127000Y-296750000D01*
X250127000Y-290008061D01*
X250795000Y-290008061D01*
X250795000Y-290211939D01*
X250834774Y-290411898D01*
X250912795Y-290600256D01*
X251026063Y-290769774D01*
X251170226Y-290913937D01*
X251339744Y-291027205D01*
X251528102Y-291105226D01*
X251728061Y-291145000D01*
X251931939Y-291145000D01*
X252131898Y-291105226D01*
X252320256Y-291027205D01*
X252489774Y-290913937D01*
X252633937Y-290769774D01*
X252675172Y-290708061D01*
X255465000Y-290708061D01*
X255465000Y-290911939D01*
X255504774Y-291111898D01*
X255582795Y-291300256D01*
X255696063Y-291469774D01*
X255840226Y-291613937D01*
X256009744Y-291727205D01*
X256198102Y-291805226D01*
X256398061Y-291845000D01*
X256601939Y-291845000D01*
X256801898Y-291805226D01*
X256990256Y-291727205D01*
X257159774Y-291613937D01*
X257303937Y-291469774D01*
X257417205Y-291300256D01*
X257495226Y-291111898D01*
X257535000Y-290911939D01*
X257535000Y-290708061D01*
X257495226Y-290508102D01*
X257417205Y-290319744D01*
X257303937Y-290150226D01*
X257159774Y-290006063D01*
X256990256Y-289892795D01*
X256801898Y-289814774D01*
X256601939Y-289775000D01*
X256398061Y-289775000D01*
X256198102Y-289814774D01*
X256009744Y-289892795D01*
X255840226Y-290006063D01*
X255696063Y-290150226D01*
X255582795Y-290319744D01*
X255504774Y-290508102D01*
X255465000Y-290708061D01*
X252675172Y-290708061D01*
X252747205Y-290600256D01*
X252825226Y-290411898D01*
X252865000Y-290211939D01*
X252865000Y-290008061D01*
X252825226Y-289808102D01*
X252747205Y-289619744D01*
X252633937Y-289450226D01*
X252489774Y-289306063D01*
X252320256Y-289192795D01*
X252131898Y-289114774D01*
X251931939Y-289075000D01*
X251728061Y-289075000D01*
X251528102Y-289114774D01*
X251339744Y-289192795D01*
X251170226Y-289306063D01*
X251026063Y-289450226D01*
X250912795Y-289619744D01*
X250834774Y-289808102D01*
X250795000Y-290008061D01*
X250127000Y-290008061D01*
X250127000Y-281838061D01*
X259315000Y-281838061D01*
X259315000Y-282041939D01*
X259354774Y-282241898D01*
X259432795Y-282430256D01*
X259546063Y-282599774D01*
X259690226Y-282743937D01*
X259859744Y-282857205D01*
X260048102Y-282935226D01*
X260248061Y-282975000D01*
X260451939Y-282975000D01*
X260651898Y-282935226D01*
X260840256Y-282857205D01*
X261009774Y-282743937D01*
X261078711Y-282675000D01*
X262345895Y-282675000D01*
X262382000Y-282678556D01*
X262418105Y-282675000D01*
X262526085Y-282664365D01*
X262664633Y-282622337D01*
X262792320Y-282554087D01*
X262904238Y-282462238D01*
X262927259Y-282434187D01*
X266825422Y-278536025D01*
X266922914Y-278536025D01*
X267122873Y-278496251D01*
X267311231Y-278418230D01*
X267480749Y-278304962D01*
X267624912Y-278160799D01*
X267738180Y-277991281D01*
X267816201Y-277802923D01*
X267855975Y-277602964D01*
X267855975Y-277399086D01*
X267816201Y-277199127D01*
X267738180Y-277010769D01*
X267624912Y-276841251D01*
X267480749Y-276697088D01*
X267311231Y-276583820D01*
X267122873Y-276505799D01*
X266922914Y-276466025D01*
X266719036Y-276466025D01*
X266519077Y-276505799D01*
X266330719Y-276583820D01*
X266161201Y-276697088D01*
X266017038Y-276841251D01*
X265903770Y-277010769D01*
X265825749Y-277199127D01*
X265785975Y-277399086D01*
X265785975Y-277496578D01*
X262077554Y-281205000D01*
X261078711Y-281205000D01*
X261009774Y-281136063D01*
X260840256Y-281022795D01*
X260651898Y-280944774D01*
X260451939Y-280905000D01*
X260248061Y-280905000D01*
X260048102Y-280944774D01*
X259859744Y-281022795D01*
X259690226Y-281136063D01*
X259546063Y-281280226D01*
X259432795Y-281449744D01*
X259354774Y-281638102D01*
X259315000Y-281838061D01*
X250127000Y-281838061D01*
X250127000Y-273510000D01*
X250931928Y-273510000D01*
X250931928Y-275210000D01*
X250944188Y-275334482D01*
X250980498Y-275454180D01*
X251039463Y-275564494D01*
X251118815Y-275661185D01*
X251215506Y-275740537D01*
X251325820Y-275799502D01*
X251445518Y-275835812D01*
X251570000Y-275848072D01*
X253270000Y-275848072D01*
X253394482Y-275835812D01*
X253514180Y-275799502D01*
X253624494Y-275740537D01*
X253721185Y-275661185D01*
X253800537Y-275564494D01*
X253859502Y-275454180D01*
X253895812Y-275334482D01*
X253904625Y-275245000D01*
X261196531Y-275245000D01*
X261240000Y-275249281D01*
X261283469Y-275245000D01*
X261283477Y-275245000D01*
X261413490Y-275232195D01*
X261580313Y-275181589D01*
X261734059Y-275099411D01*
X261868817Y-274988817D01*
X261896534Y-274955044D01*
X274378865Y-262472713D01*
X274387806Y-262563490D01*
X274438412Y-262730313D01*
X274520590Y-262884059D01*
X274631184Y-263018817D01*
X274765942Y-263129411D01*
X274919688Y-263211589D01*
X275086511Y-263262195D01*
X275260000Y-263279282D01*
X275433490Y-263262195D01*
X275600313Y-263211589D01*
X275754059Y-263129411D01*
X275888817Y-263018817D01*
X275999411Y-262884059D01*
X276081589Y-262730313D01*
X276132195Y-262563490D01*
X276145000Y-262433477D01*
X276145000Y-260878454D01*
X276177205Y-260830256D01*
X276255226Y-260641898D01*
X276295000Y-260441939D01*
X276295000Y-260238061D01*
X276255226Y-260038102D01*
X276216637Y-259944941D01*
X281585049Y-254576530D01*
X281618817Y-254548817D01*
X281680910Y-254473158D01*
X281729411Y-254414059D01*
X281811588Y-254260314D01*
X281811589Y-254260313D01*
X281862195Y-254093490D01*
X281875000Y-253963477D01*
X281875000Y-253963469D01*
X281879281Y-253920000D01*
X281875000Y-253876531D01*
X281875000Y-251378454D01*
X281907205Y-251330256D01*
X281985226Y-251141898D01*
X282025000Y-250941939D01*
X282025000Y-250738061D01*
X281985226Y-250538102D01*
X281907205Y-250349744D01*
X281793937Y-250180226D01*
X281649774Y-250036063D01*
X281480256Y-249922795D01*
X281291898Y-249844774D01*
X281091939Y-249805000D01*
X280888061Y-249805000D01*
X280688102Y-249844774D01*
X280499744Y-249922795D01*
X280330226Y-250036063D01*
X280186063Y-250180226D01*
X280072795Y-250349744D01*
X279994774Y-250538102D01*
X279955000Y-250738061D01*
X279955000Y-250941939D01*
X279994774Y-251141898D01*
X280072795Y-251330256D01*
X280105000Y-251378455D01*
X280105001Y-253553420D01*
X274664956Y-258993466D01*
X274631183Y-259021183D01*
X274520589Y-259155942D01*
X274438411Y-259309688D01*
X274427768Y-259344774D01*
X274390446Y-259467806D01*
X274387805Y-259476511D01*
X274375000Y-259606524D01*
X274375000Y-259606531D01*
X274370719Y-259650000D01*
X274375000Y-259693469D01*
X274375000Y-259801546D01*
X274342795Y-259849744D01*
X274264774Y-260038102D01*
X274253465Y-260094956D01*
X260873422Y-273475000D01*
X253904625Y-273475000D01*
X253895812Y-273385518D01*
X253859502Y-273265820D01*
X253800537Y-273155506D01*
X253721185Y-273058815D01*
X253624494Y-272979463D01*
X253514180Y-272920498D01*
X253441620Y-272898487D01*
X253573475Y-272766632D01*
X253735990Y-272523411D01*
X253847932Y-272253158D01*
X253905000Y-271966260D01*
X253905000Y-271673740D01*
X253847932Y-271386842D01*
X253735990Y-271116589D01*
X253573475Y-270873368D01*
X253366632Y-270666525D01*
X253192240Y-270550000D01*
X253366632Y-270433475D01*
X253573475Y-270226632D01*
X253735990Y-269983411D01*
X253847932Y-269713158D01*
X253905000Y-269426260D01*
X253905000Y-269133740D01*
X253847932Y-268846842D01*
X253735990Y-268576589D01*
X253573475Y-268333368D01*
X253366632Y-268126525D01*
X253192240Y-268010000D01*
X253366632Y-267893475D01*
X253573475Y-267686632D01*
X253735990Y-267443411D01*
X253847932Y-267173158D01*
X253905000Y-266886260D01*
X253905000Y-266593740D01*
X253847932Y-266306842D01*
X253735990Y-266036589D01*
X253573475Y-265793368D01*
X253366632Y-265586525D01*
X253192240Y-265470000D01*
X253366632Y-265353475D01*
X253573475Y-265146632D01*
X253735990Y-264903411D01*
X253847932Y-264633158D01*
X253905000Y-264346260D01*
X253905000Y-264053740D01*
X253847932Y-263766842D01*
X253735990Y-263496589D01*
X253573475Y-263253368D01*
X253366632Y-263046525D01*
X253192240Y-262930000D01*
X253366632Y-262813475D01*
X253573475Y-262606632D01*
X253735990Y-262363411D01*
X253847932Y-262093158D01*
X253905000Y-261806260D01*
X253905000Y-261513740D01*
X253847932Y-261226842D01*
X253735990Y-260956589D01*
X253573475Y-260713368D01*
X253366632Y-260506525D01*
X253184466Y-260384805D01*
X253301355Y-260315178D01*
X253517588Y-260120269D01*
X253691641Y-259886920D01*
X253816825Y-259624099D01*
X253861476Y-259476890D01*
X253740155Y-259247000D01*
X252547000Y-259247000D01*
X252547000Y-259267000D01*
X252293000Y-259267000D01*
X252293000Y-259247000D01*
X251099845Y-259247000D01*
X250978524Y-259476890D01*
X251023175Y-259624099D01*
X251148359Y-259886920D01*
X251322412Y-260120269D01*
X251538645Y-260315178D01*
X251655534Y-260384805D01*
X251473368Y-260506525D01*
X251266525Y-260713368D01*
X251104010Y-260956589D01*
X250992068Y-261226842D01*
X250935000Y-261513740D01*
X250935000Y-261806260D01*
X250992068Y-262093158D01*
X251104010Y-262363411D01*
X251266525Y-262606632D01*
X251473368Y-262813475D01*
X251647760Y-262930000D01*
X251473368Y-263046525D01*
X251266525Y-263253368D01*
X251104010Y-263496589D01*
X250992068Y-263766842D01*
X250935000Y-264053740D01*
X250935000Y-264346260D01*
X250992068Y-264633158D01*
X251104010Y-264903411D01*
X251266525Y-265146632D01*
X251473368Y-265353475D01*
X251647760Y-265470000D01*
X251473368Y-265586525D01*
X251266525Y-265793368D01*
X251104010Y-266036589D01*
X250992068Y-266306842D01*
X250935000Y-266593740D01*
X250935000Y-266886260D01*
X250992068Y-267173158D01*
X251104010Y-267443411D01*
X251266525Y-267686632D01*
X251473368Y-267893475D01*
X251647760Y-268010000D01*
X251473368Y-268126525D01*
X251266525Y-268333368D01*
X251104010Y-268576589D01*
X250992068Y-268846842D01*
X250935000Y-269133740D01*
X250935000Y-269426260D01*
X250992068Y-269713158D01*
X251104010Y-269983411D01*
X251266525Y-270226632D01*
X251473368Y-270433475D01*
X251647760Y-270550000D01*
X251473368Y-270666525D01*
X251266525Y-270873368D01*
X251104010Y-271116589D01*
X250992068Y-271386842D01*
X250935000Y-271673740D01*
X250935000Y-271966260D01*
X250992068Y-272253158D01*
X251104010Y-272523411D01*
X251266525Y-272766632D01*
X251398380Y-272898487D01*
X251325820Y-272920498D01*
X251215506Y-272979463D01*
X251118815Y-273058815D01*
X251039463Y-273155506D01*
X250980498Y-273265820D01*
X250944188Y-273385518D01*
X250931928Y-273510000D01*
X250127000Y-273510000D01*
X250127000Y-253893740D01*
X250935000Y-253893740D01*
X250935000Y-254186260D01*
X250992068Y-254473158D01*
X251104010Y-254743411D01*
X251266525Y-254986632D01*
X251473368Y-255193475D01*
X251647760Y-255310000D01*
X251473368Y-255426525D01*
X251266525Y-255633368D01*
X251104010Y-255876589D01*
X250992068Y-256146842D01*
X250935000Y-256433740D01*
X250935000Y-256726260D01*
X250992068Y-257013158D01*
X251104010Y-257283411D01*
X251266525Y-257526632D01*
X251473368Y-257733475D01*
X251655534Y-257855195D01*
X251538645Y-257924822D01*
X251322412Y-258119731D01*
X251148359Y-258353080D01*
X251023175Y-258615901D01*
X250978524Y-258763110D01*
X251099845Y-258993000D01*
X252293000Y-258993000D01*
X252293000Y-258973000D01*
X252547000Y-258973000D01*
X252547000Y-258993000D01*
X253740155Y-258993000D01*
X253861476Y-258763110D01*
X253816825Y-258615901D01*
X253691641Y-258353080D01*
X253517588Y-258119731D01*
X253301355Y-257924822D01*
X253184466Y-257855195D01*
X253366632Y-257733475D01*
X253573475Y-257526632D01*
X253735990Y-257283411D01*
X253847932Y-257013158D01*
X253905000Y-256726260D01*
X253905000Y-256433740D01*
X253847932Y-256146842D01*
X253735990Y-255876589D01*
X253573475Y-255633368D01*
X253366632Y-255426525D01*
X253192240Y-255310000D01*
X253366632Y-255193475D01*
X253573475Y-254986632D01*
X253735990Y-254743411D01*
X253847932Y-254473158D01*
X253905000Y-254186260D01*
X253905000Y-253893740D01*
X253847932Y-253606842D01*
X253735990Y-253336589D01*
X253573475Y-253093368D01*
X253366632Y-252886525D01*
X253123411Y-252724010D01*
X252853158Y-252612068D01*
X252566260Y-252555000D01*
X252273740Y-252555000D01*
X251986842Y-252612068D01*
X251716589Y-252724010D01*
X251473368Y-252886525D01*
X251266525Y-253093368D01*
X251104010Y-253336589D01*
X250992068Y-253606842D01*
X250935000Y-253893740D01*
X250127000Y-253893740D01*
X250127000Y-247167000D01*
X289285000Y-247167000D01*
X289285000Y-247442000D01*
X289335908Y-247704883D01*
X289437124Y-247952783D01*
X289584758Y-248176173D01*
X289773137Y-248366469D01*
X289995021Y-248516357D01*
X290241883Y-248620078D01*
X290307742Y-248632519D01*
X290518000Y-248509518D01*
X290518000Y-247167000D01*
X290772000Y-247167000D01*
X290772000Y-248509518D01*
X290982258Y-248632519D01*
X291048117Y-248620078D01*
X291294979Y-248516357D01*
X291516863Y-248366469D01*
X291705242Y-248176173D01*
X291852876Y-247952783D01*
X291954092Y-247704883D01*
X292005000Y-247442000D01*
X292005000Y-247167000D01*
X296735000Y-247167000D01*
X296735000Y-247442000D01*
X296785908Y-247704883D01*
X296887124Y-247952783D01*
X297034758Y-248176173D01*
X297223137Y-248366469D01*
X297445021Y-248516357D01*
X297691883Y-248620078D01*
X297757742Y-248632519D01*
X297968000Y-248509518D01*
X297968000Y-247167000D01*
X298222000Y-247167000D01*
X298222000Y-248509518D01*
X298432258Y-248632519D01*
X298498117Y-248620078D01*
X298744979Y-248516357D01*
X298966863Y-248366469D01*
X299155242Y-248176173D01*
X299302876Y-247952783D01*
X299404092Y-247704883D01*
X299455000Y-247442000D01*
X299455000Y-247167000D01*
X298222000Y-247167000D01*
X297968000Y-247167000D01*
X296735000Y-247167000D01*
X292005000Y-247167000D01*
X290772000Y-247167000D01*
X290518000Y-247167000D01*
X289285000Y-247167000D01*
X250127000Y-247167000D01*
X250127000Y-246638000D01*
X289285000Y-246638000D01*
X289285000Y-246913000D01*
X290518000Y-246913000D01*
X290518000Y-245570482D01*
X290772000Y-245570482D01*
X290772000Y-246913000D01*
X291393734Y-246913000D01*
X291568102Y-246985226D01*
X291768061Y-247025000D01*
X291971939Y-247025000D01*
X292171898Y-246985226D01*
X292360256Y-246907205D01*
X292529774Y-246793937D01*
X292673937Y-246649774D01*
X292787205Y-246480256D01*
X292865226Y-246291898D01*
X292905000Y-246091939D01*
X292905000Y-245888061D01*
X295835000Y-245888061D01*
X295835000Y-246091939D01*
X295874774Y-246291898D01*
X295952795Y-246480256D01*
X296066063Y-246649774D01*
X296210226Y-246793937D01*
X296379744Y-246907205D01*
X296568102Y-246985226D01*
X296768061Y-247025000D01*
X296971939Y-247025000D01*
X297171898Y-246985226D01*
X297346266Y-246913000D01*
X297968000Y-246913000D01*
X297968000Y-245570482D01*
X298222000Y-245570482D01*
X298222000Y-246913000D01*
X299455000Y-246913000D01*
X299455000Y-246638000D01*
X299404092Y-246375117D01*
X299302876Y-246127217D01*
X299155242Y-245903827D01*
X298966863Y-245713531D01*
X298744979Y-245563643D01*
X298498117Y-245459922D01*
X298432258Y-245447481D01*
X298222000Y-245570482D01*
X297968000Y-245570482D01*
X297757742Y-245447481D01*
X297752896Y-245448396D01*
X297673937Y-245330226D01*
X297529774Y-245186063D01*
X297360256Y-245072795D01*
X297171898Y-244994774D01*
X296971939Y-244955000D01*
X296768061Y-244955000D01*
X296568102Y-244994774D01*
X296379744Y-245072795D01*
X296210226Y-245186063D01*
X296066063Y-245330226D01*
X295952795Y-245499744D01*
X295874774Y-245688102D01*
X295835000Y-245888061D01*
X292905000Y-245888061D01*
X292865226Y-245688102D01*
X292787205Y-245499744D01*
X292673937Y-245330226D01*
X292529774Y-245186063D01*
X292360256Y-245072795D01*
X292171898Y-244994774D01*
X291971939Y-244955000D01*
X291768061Y-244955000D01*
X291568102Y-244994774D01*
X291379744Y-245072795D01*
X291210226Y-245186063D01*
X291066063Y-245330226D01*
X290987104Y-245448396D01*
X290982258Y-245447481D01*
X290772000Y-245570482D01*
X290518000Y-245570482D01*
X290307742Y-245447481D01*
X290241883Y-245459922D01*
X289995021Y-245563643D01*
X289773137Y-245713531D01*
X289584758Y-245903827D01*
X289437124Y-246127217D01*
X289335908Y-246375117D01*
X289285000Y-246638000D01*
X250127000Y-246638000D01*
X250127000Y-243367000D01*
X289285000Y-243367000D01*
X289285000Y-243692000D01*
X289333026Y-243925619D01*
X289425706Y-244145380D01*
X289559479Y-244342837D01*
X289729203Y-244510402D01*
X289928356Y-244641636D01*
X290149285Y-244731496D01*
X290181323Y-244733635D01*
X290368000Y-244608550D01*
X290368000Y-243367000D01*
X290622000Y-243367000D01*
X290622000Y-244608550D01*
X290808677Y-244733635D01*
X290840715Y-244731496D01*
X291061644Y-244641636D01*
X291260797Y-244510402D01*
X291430521Y-244342837D01*
X291564294Y-244145380D01*
X291656974Y-243925619D01*
X291705000Y-243692000D01*
X291705000Y-243367000D01*
X297035000Y-243367000D01*
X297035000Y-243692000D01*
X297083026Y-243925619D01*
X297175706Y-244145380D01*
X297309479Y-244342837D01*
X297479203Y-244510402D01*
X297678356Y-244641636D01*
X297899285Y-244731496D01*
X297931323Y-244733635D01*
X298118000Y-244608550D01*
X298118000Y-243367000D01*
X298372000Y-243367000D01*
X298372000Y-244608550D01*
X298558677Y-244733635D01*
X298590715Y-244731496D01*
X298811644Y-244641636D01*
X299010797Y-244510402D01*
X299180521Y-244342837D01*
X299314294Y-244145380D01*
X299406974Y-243925619D01*
X299455000Y-243692000D01*
X299455000Y-243367000D01*
X298372000Y-243367000D01*
X298118000Y-243367000D01*
X297035000Y-243367000D01*
X291705000Y-243367000D01*
X290622000Y-243367000D01*
X290368000Y-243367000D01*
X289285000Y-243367000D01*
X250127000Y-243367000D01*
X250127000Y-242788000D01*
X289285000Y-242788000D01*
X289285000Y-243113000D01*
X290368000Y-243113000D01*
X290368000Y-241871450D01*
X290622000Y-241871450D01*
X290622000Y-243113000D01*
X291705000Y-243113000D01*
X291705000Y-242788000D01*
X297035000Y-242788000D01*
X297035000Y-243113000D01*
X298118000Y-243113000D01*
X298118000Y-241871450D01*
X298372000Y-241871450D01*
X298372000Y-243113000D01*
X299455000Y-243113000D01*
X299455000Y-242788000D01*
X299406974Y-242554381D01*
X299314294Y-242334620D01*
X299180521Y-242137163D01*
X299010797Y-241969598D01*
X298811644Y-241838364D01*
X298590715Y-241748504D01*
X298558677Y-241746365D01*
X298372000Y-241871450D01*
X298118000Y-241871450D01*
X297931323Y-241746365D01*
X297899285Y-241748504D01*
X297678356Y-241838364D01*
X297479203Y-241969598D01*
X297309479Y-242137163D01*
X297175706Y-242334620D01*
X297083026Y-242554381D01*
X297035000Y-242788000D01*
X291705000Y-242788000D01*
X291656974Y-242554381D01*
X291564294Y-242334620D01*
X291430521Y-242137163D01*
X291260797Y-241969598D01*
X291061644Y-241838364D01*
X290840715Y-241748504D01*
X290808677Y-241746365D01*
X290622000Y-241871450D01*
X290368000Y-241871450D01*
X290181323Y-241746365D01*
X290149285Y-241748504D01*
X289928356Y-241838364D01*
X289729203Y-241969598D01*
X289559479Y-242137163D01*
X289425706Y-242334620D01*
X289333026Y-242554381D01*
X289285000Y-242788000D01*
X250127000Y-242788000D01*
X250127000Y-240127000D01*
X299873000Y-240127000D01*
X299873000Y-299873000D01*
G37*
X299873000Y-299873000D02*
X250127000Y-299873000D01*
X250127000Y-298648061D01*
X254115000Y-298648061D01*
X254115000Y-298851939D01*
X254154774Y-299051898D01*
X254232795Y-299240256D01*
X254346063Y-299409774D01*
X254490226Y-299553937D01*
X254659744Y-299667205D01*
X254848102Y-299745226D01*
X255048061Y-299785000D01*
X255251939Y-299785000D01*
X255451898Y-299745226D01*
X255640256Y-299667205D01*
X255809774Y-299553937D01*
X255953937Y-299409774D01*
X256067205Y-299240256D01*
X256145226Y-299051898D01*
X256185000Y-298851939D01*
X256185000Y-298648061D01*
X256145226Y-298448102D01*
X256067205Y-298259744D01*
X255953937Y-298090226D01*
X255809774Y-297946063D01*
X255640256Y-297832795D01*
X255451898Y-297754774D01*
X255251939Y-297715000D01*
X255048061Y-297715000D01*
X254848102Y-297754774D01*
X254659744Y-297832795D01*
X254490226Y-297946063D01*
X254346063Y-298090226D01*
X254232795Y-298259744D01*
X254154774Y-298448102D01*
X254115000Y-298648061D01*
X250127000Y-298648061D01*
X250127000Y-296750000D01*
X274731928Y-296750000D01*
X274731928Y-298450000D01*
X274744188Y-298574482D01*
X274780498Y-298694180D01*
X274839463Y-298804494D01*
X274918815Y-298901185D01*
X275015506Y-298980537D01*
X275125820Y-299039502D01*
X275245518Y-299075812D01*
X275370000Y-299088072D01*
X277070000Y-299088072D01*
X277194482Y-299075812D01*
X277314180Y-299039502D01*
X277424494Y-298980537D01*
X277521185Y-298901185D01*
X277600537Y-298804494D01*
X277659502Y-298694180D01*
X277681513Y-298621620D01*
X277813368Y-298753475D01*
X278056589Y-298915990D01*
X278326842Y-299027932D01*
X278613740Y-299085000D01*
X278906260Y-299085000D01*
X279193158Y-299027932D01*
X279463411Y-298915990D01*
X279706632Y-298753475D01*
X279913475Y-298546632D01*
X280035195Y-298364466D01*
X280104822Y-298481355D01*
X280299731Y-298697588D01*
X280533080Y-298871641D01*
X280795901Y-298996825D01*
X280943110Y-299041476D01*
X281173000Y-298920155D01*
X281173000Y-297727000D01*
X281153000Y-297727000D01*
X281153000Y-297473000D01*
X281173000Y-297473000D01*
X281173000Y-297453000D01*
X281427000Y-297453000D01*
X281427000Y-297473000D01*
X281447000Y-297473000D01*
X281447000Y-297727000D01*
X281427000Y-297727000D01*
X281427000Y-298920155D01*
X281656890Y-299041476D01*
X281804099Y-298996825D01*
X282066920Y-298871641D01*
X282300269Y-298697588D01*
X282495178Y-298481355D01*
X282564805Y-298364466D01*
X282686525Y-298546632D01*
X282893368Y-298753475D01*
X283136589Y-298915990D01*
X283406842Y-299027932D01*
X283693740Y-299085000D01*
X283986260Y-299085000D01*
X284273158Y-299027932D01*
X284543411Y-298915990D01*
X284786632Y-298753475D01*
X284993475Y-298546632D01*
X285110000Y-298372240D01*
X285226525Y-298546632D01*
X285433368Y-298753475D01*
X285676589Y-298915990D01*
X285946842Y-299027932D01*
X286233740Y-299085000D01*
X286526260Y-299085000D01*
X286813158Y-299027932D01*
X287083411Y-298915990D01*
X287326632Y-298753475D01*
X287533475Y-298546632D01*
X287695990Y-298303411D01*
X287782705Y-298094061D01*
X288017000Y-298094061D01*
X288017000Y-298297939D01*
X288056774Y-298497898D01*
X288134795Y-298686256D01*
X288248063Y-298855774D01*
X288392226Y-298999937D01*
X288561744Y-299113205D01*
X288750102Y-299191226D01*
X288950061Y-299231000D01*
X289153939Y-299231000D01*
X289353898Y-299191226D01*
X289542256Y-299113205D01*
X289711774Y-298999937D01*
X289855937Y-298855774D01*
X289969205Y-298686256D01*
X290047226Y-298497898D01*
X290058535Y-298441043D01*
X291317048Y-297182531D01*
X291350816Y-297154818D01*
X291391040Y-297105806D01*
X291461409Y-297020061D01*
X291474670Y-296995252D01*
X291543588Y-296866314D01*
X291594194Y-296699491D01*
X291606999Y-296569478D01*
X291606999Y-296569468D01*
X291611280Y-296526002D01*
X291606999Y-296482536D01*
X291606999Y-292289465D01*
X291611280Y-292245998D01*
X291606999Y-292202532D01*
X291606999Y-292202522D01*
X291594194Y-292072509D01*
X291543588Y-291905686D01*
X291461410Y-291751940D01*
X291350816Y-291617182D01*
X291328045Y-291598495D01*
X291317226Y-291544102D01*
X291239205Y-291355744D01*
X291125937Y-291186226D01*
X290981774Y-291042063D01*
X290812256Y-290928795D01*
X290623898Y-290850774D01*
X290423939Y-290811000D01*
X290220061Y-290811000D01*
X290020102Y-290850774D01*
X289831744Y-290928795D01*
X289662226Y-291042063D01*
X289518063Y-291186226D01*
X289404795Y-291355744D01*
X289326774Y-291544102D01*
X289287000Y-291744061D01*
X289287000Y-291947939D01*
X289326774Y-292147898D01*
X289404795Y-292336256D01*
X289518063Y-292505774D01*
X289662226Y-292649937D01*
X289831744Y-292763205D01*
X289836999Y-292765382D01*
X289837000Y-296159421D01*
X288806957Y-297189465D01*
X288750102Y-297200774D01*
X288561744Y-297278795D01*
X288392226Y-297392063D01*
X288248063Y-297536226D01*
X288134795Y-297705744D01*
X288056774Y-297894102D01*
X288017000Y-298094061D01*
X287782705Y-298094061D01*
X287807932Y-298033158D01*
X287865000Y-297746260D01*
X287865000Y-297453740D01*
X287807932Y-297166842D01*
X287695990Y-296896589D01*
X287533475Y-296653368D01*
X287326632Y-296446525D01*
X287083411Y-296284010D01*
X286813158Y-296172068D01*
X286526260Y-296115000D01*
X286233740Y-296115000D01*
X285984102Y-296164656D01*
X285775258Y-295955812D01*
X285752237Y-295927761D01*
X285640319Y-295835912D01*
X285512632Y-295767662D01*
X285374084Y-295725634D01*
X285266104Y-295714999D01*
X285229999Y-295711443D01*
X285193894Y-295714999D01*
X284528712Y-295714999D01*
X284613937Y-295629774D01*
X284727205Y-295460256D01*
X284805226Y-295271898D01*
X284845000Y-295071939D01*
X284845000Y-294868061D01*
X284805226Y-294668102D01*
X284727205Y-294479744D01*
X284613937Y-294310226D01*
X284545000Y-294241289D01*
X284545000Y-281373536D01*
X285179525Y-281373536D01*
X285179525Y-281577414D01*
X285219299Y-281777373D01*
X285297320Y-281965731D01*
X285410588Y-282135249D01*
X285479526Y-282204187D01*
X285479525Y-290496420D01*
X285475969Y-290532525D01*
X285479525Y-290568629D01*
X285490160Y-290676609D01*
X285532188Y-290815157D01*
X285600438Y-290942844D01*
X285692287Y-291054762D01*
X285720333Y-291077779D01*
X286747000Y-292104447D01*
X286747000Y-292201939D01*
X286786774Y-292401898D01*
X286864795Y-292590256D01*
X286978063Y-292759774D01*
X287122226Y-292903937D01*
X287291744Y-293017205D01*
X287480102Y-293095226D01*
X287680061Y-293135000D01*
X287883939Y-293135000D01*
X288083898Y-293095226D01*
X288272256Y-293017205D01*
X288441774Y-292903937D01*
X288585937Y-292759774D01*
X288699205Y-292590256D01*
X288777226Y-292401898D01*
X288817000Y-292201939D01*
X288817000Y-291998061D01*
X288777226Y-291798102D01*
X288699205Y-291609744D01*
X288585937Y-291440226D01*
X288441774Y-291296063D01*
X288272256Y-291182795D01*
X288083898Y-291104774D01*
X287883939Y-291065000D01*
X287786447Y-291065000D01*
X286949525Y-290228079D01*
X286949525Y-282204186D01*
X287018462Y-282135249D01*
X287131730Y-281965731D01*
X287209751Y-281777373D01*
X287227926Y-281686000D01*
X296172025Y-281686000D01*
X296195870Y-281928102D01*
X296266489Y-282160901D01*
X296381167Y-282375449D01*
X296535498Y-282563502D01*
X296723551Y-282717833D01*
X296938099Y-282832511D01*
X297170898Y-282903130D01*
X297352335Y-282921000D01*
X298023665Y-282921000D01*
X298205102Y-282903130D01*
X298437901Y-282832511D01*
X298652449Y-282717833D01*
X298840502Y-282563502D01*
X298994833Y-282375449D01*
X299109511Y-282160901D01*
X299180130Y-281928102D01*
X299203975Y-281686000D01*
X299180130Y-281443898D01*
X299109511Y-281211099D01*
X298994833Y-280996551D01*
X298840502Y-280808498D01*
X298690652Y-280685519D01*
X298754725Y-280642307D01*
X298926078Y-280469474D01*
X299060421Y-280266533D01*
X299152591Y-280041282D01*
X299156462Y-280003609D01*
X299031731Y-279813000D01*
X297815000Y-279813000D01*
X297815000Y-279833000D01*
X297561000Y-279833000D01*
X297561000Y-279813000D01*
X296344269Y-279813000D01*
X296219538Y-280003609D01*
X296223409Y-280041282D01*
X296315579Y-280266533D01*
X296449922Y-280469474D01*
X296621275Y-280642307D01*
X296685348Y-280685519D01*
X296535498Y-280808498D01*
X296381167Y-280996551D01*
X296266489Y-281211099D01*
X296195870Y-281443898D01*
X296172025Y-281686000D01*
X287227926Y-281686000D01*
X287249525Y-281577414D01*
X287249525Y-281373536D01*
X287209751Y-281173577D01*
X287131730Y-280985219D01*
X287018462Y-280815701D01*
X286874299Y-280671538D01*
X286704781Y-280558270D01*
X286516423Y-280480249D01*
X286316464Y-280440475D01*
X286112586Y-280440475D01*
X285912627Y-280480249D01*
X285724269Y-280558270D01*
X285554751Y-280671538D01*
X285410588Y-280815701D01*
X285297320Y-280985219D01*
X285219299Y-281173577D01*
X285179525Y-281373536D01*
X284545000Y-281373536D01*
X284545000Y-278860581D01*
X284629774Y-278803937D01*
X284773937Y-278659774D01*
X284887205Y-278490256D01*
X284965226Y-278301898D01*
X285005000Y-278101939D01*
X285005000Y-277898061D01*
X284965226Y-277698102D01*
X284887205Y-277509744D01*
X284773937Y-277340226D01*
X284769710Y-277335999D01*
X296174928Y-277335999D01*
X296174928Y-278036001D01*
X296191992Y-278209255D01*
X296242528Y-278375851D01*
X296324595Y-278529387D01*
X296435038Y-278663962D01*
X296569613Y-278774405D01*
X296574406Y-278776967D01*
X296449922Y-278902526D01*
X296315579Y-279105467D01*
X296223409Y-279330718D01*
X296219538Y-279368391D01*
X296344269Y-279559000D01*
X297561000Y-279559000D01*
X297561000Y-279539000D01*
X297815000Y-279539000D01*
X297815000Y-279559000D01*
X299031731Y-279559000D01*
X299156462Y-279368391D01*
X299152591Y-279330718D01*
X299060421Y-279105467D01*
X298926078Y-278902526D01*
X298801594Y-278776967D01*
X298806387Y-278774405D01*
X298940962Y-278663962D01*
X299051405Y-278529387D01*
X299133472Y-278375851D01*
X299184008Y-278209255D01*
X299201072Y-278036001D01*
X299201072Y-277335999D01*
X299184008Y-277162745D01*
X299133472Y-276996149D01*
X299051405Y-276842613D01*
X298940962Y-276708038D01*
X298806387Y-276597595D01*
X298652851Y-276515528D01*
X298486255Y-276464992D01*
X298313001Y-276447928D01*
X297062999Y-276447928D01*
X296889745Y-276464992D01*
X296723149Y-276515528D01*
X296569613Y-276597595D01*
X296435038Y-276708038D01*
X296324595Y-276842613D01*
X296242528Y-276996149D01*
X296191992Y-277162745D01*
X296174928Y-277335999D01*
X284769710Y-277335999D01*
X284681907Y-277248196D01*
X284705226Y-277191898D01*
X284745000Y-276991939D01*
X284745000Y-276788061D01*
X284705226Y-276588102D01*
X284627205Y-276399744D01*
X284513937Y-276230226D01*
X284369774Y-276086063D01*
X284200256Y-275972795D01*
X284011898Y-275894774D01*
X283811939Y-275855000D01*
X283608061Y-275855000D01*
X283408102Y-275894774D01*
X283219744Y-275972795D01*
X283050226Y-276086063D01*
X282906063Y-276230226D01*
X282792795Y-276399744D01*
X282714774Y-276588102D01*
X282675000Y-276788061D01*
X282675000Y-276885553D01*
X279145808Y-280414746D01*
X279117762Y-280437763D01*
X279025913Y-280549681D01*
X278957663Y-280677368D01*
X278935294Y-280751110D01*
X278915635Y-280815915D01*
X278901444Y-280960000D01*
X278905000Y-280996105D01*
X278905001Y-294021557D01*
X278357000Y-293473556D01*
X278357000Y-289018711D01*
X278425937Y-288949774D01*
X278539205Y-288780256D01*
X278617226Y-288591898D01*
X278657000Y-288391939D01*
X278657000Y-288188061D01*
X278617226Y-287988102D01*
X278539205Y-287799744D01*
X278425937Y-287630226D01*
X278281774Y-287486063D01*
X278112256Y-287372795D01*
X277923898Y-287294774D01*
X277723939Y-287255000D01*
X277520061Y-287255000D01*
X277320102Y-287294774D01*
X277131744Y-287372795D01*
X276962226Y-287486063D01*
X276818063Y-287630226D01*
X276704795Y-287799744D01*
X276626774Y-287988102D01*
X276587000Y-288188061D01*
X276587000Y-288391939D01*
X276626774Y-288591898D01*
X276704795Y-288780256D01*
X276818063Y-288949774D01*
X276887000Y-289018711D01*
X276887001Y-293741887D01*
X276883444Y-293778002D01*
X276897635Y-293922087D01*
X276907942Y-293956063D01*
X276939664Y-294060635D01*
X277007914Y-294188322D01*
X277099763Y-294300240D01*
X277127808Y-294323256D01*
X278922852Y-296118300D01*
X278906260Y-296115000D01*
X278613740Y-296115000D01*
X278326842Y-296172068D01*
X278056589Y-296284010D01*
X277813368Y-296446525D01*
X277681513Y-296578380D01*
X277659502Y-296505820D01*
X277600537Y-296395506D01*
X277521185Y-296298815D01*
X277424494Y-296219463D01*
X277314180Y-296160498D01*
X277194482Y-296124188D01*
X277070000Y-296111928D01*
X275370000Y-296111928D01*
X275245518Y-296124188D01*
X275125820Y-296160498D01*
X275015506Y-296219463D01*
X274918815Y-296298815D01*
X274839463Y-296395506D01*
X274780498Y-296505820D01*
X274744188Y-296625518D01*
X274731928Y-296750000D01*
X250127000Y-296750000D01*
X250127000Y-290008061D01*
X250795000Y-290008061D01*
X250795000Y-290211939D01*
X250834774Y-290411898D01*
X250912795Y-290600256D01*
X251026063Y-290769774D01*
X251170226Y-290913937D01*
X251339744Y-291027205D01*
X251528102Y-291105226D01*
X251728061Y-291145000D01*
X251931939Y-291145000D01*
X252131898Y-291105226D01*
X252320256Y-291027205D01*
X252489774Y-290913937D01*
X252633937Y-290769774D01*
X252675172Y-290708061D01*
X255465000Y-290708061D01*
X255465000Y-290911939D01*
X255504774Y-291111898D01*
X255582795Y-291300256D01*
X255696063Y-291469774D01*
X255840226Y-291613937D01*
X256009744Y-291727205D01*
X256198102Y-291805226D01*
X256398061Y-291845000D01*
X256601939Y-291845000D01*
X256801898Y-291805226D01*
X256990256Y-291727205D01*
X257159774Y-291613937D01*
X257303937Y-291469774D01*
X257417205Y-291300256D01*
X257495226Y-291111898D01*
X257535000Y-290911939D01*
X257535000Y-290708061D01*
X257495226Y-290508102D01*
X257417205Y-290319744D01*
X257303937Y-290150226D01*
X257159774Y-290006063D01*
X256990256Y-289892795D01*
X256801898Y-289814774D01*
X256601939Y-289775000D01*
X256398061Y-289775000D01*
X256198102Y-289814774D01*
X256009744Y-289892795D01*
X255840226Y-290006063D01*
X255696063Y-290150226D01*
X255582795Y-290319744D01*
X255504774Y-290508102D01*
X255465000Y-290708061D01*
X252675172Y-290708061D01*
X252747205Y-290600256D01*
X252825226Y-290411898D01*
X252865000Y-290211939D01*
X252865000Y-290008061D01*
X252825226Y-289808102D01*
X252747205Y-289619744D01*
X252633937Y-289450226D01*
X252489774Y-289306063D01*
X252320256Y-289192795D01*
X252131898Y-289114774D01*
X251931939Y-289075000D01*
X251728061Y-289075000D01*
X251528102Y-289114774D01*
X251339744Y-289192795D01*
X251170226Y-289306063D01*
X251026063Y-289450226D01*
X250912795Y-289619744D01*
X250834774Y-289808102D01*
X250795000Y-290008061D01*
X250127000Y-290008061D01*
X250127000Y-281838061D01*
X259315000Y-281838061D01*
X259315000Y-282041939D01*
X259354774Y-282241898D01*
X259432795Y-282430256D01*
X259546063Y-282599774D01*
X259690226Y-282743937D01*
X259859744Y-282857205D01*
X260048102Y-282935226D01*
X260248061Y-282975000D01*
X260451939Y-282975000D01*
X260651898Y-282935226D01*
X260840256Y-282857205D01*
X261009774Y-282743937D01*
X261078711Y-282675000D01*
X262345895Y-282675000D01*
X262382000Y-282678556D01*
X262418105Y-282675000D01*
X262526085Y-282664365D01*
X262664633Y-282622337D01*
X262792320Y-282554087D01*
X262904238Y-282462238D01*
X262927259Y-282434187D01*
X266825422Y-278536025D01*
X266922914Y-278536025D01*
X267122873Y-278496251D01*
X267311231Y-278418230D01*
X267480749Y-278304962D01*
X267624912Y-278160799D01*
X267738180Y-277991281D01*
X267816201Y-277802923D01*
X267855975Y-277602964D01*
X267855975Y-277399086D01*
X267816201Y-277199127D01*
X267738180Y-277010769D01*
X267624912Y-276841251D01*
X267480749Y-276697088D01*
X267311231Y-276583820D01*
X267122873Y-276505799D01*
X266922914Y-276466025D01*
X266719036Y-276466025D01*
X266519077Y-276505799D01*
X266330719Y-276583820D01*
X266161201Y-276697088D01*
X266017038Y-276841251D01*
X265903770Y-277010769D01*
X265825749Y-277199127D01*
X265785975Y-277399086D01*
X265785975Y-277496578D01*
X262077554Y-281205000D01*
X261078711Y-281205000D01*
X261009774Y-281136063D01*
X260840256Y-281022795D01*
X260651898Y-280944774D01*
X260451939Y-280905000D01*
X260248061Y-280905000D01*
X260048102Y-280944774D01*
X259859744Y-281022795D01*
X259690226Y-281136063D01*
X259546063Y-281280226D01*
X259432795Y-281449744D01*
X259354774Y-281638102D01*
X259315000Y-281838061D01*
X250127000Y-281838061D01*
X250127000Y-273510000D01*
X250931928Y-273510000D01*
X250931928Y-275210000D01*
X250944188Y-275334482D01*
X250980498Y-275454180D01*
X251039463Y-275564494D01*
X251118815Y-275661185D01*
X251215506Y-275740537D01*
X251325820Y-275799502D01*
X251445518Y-275835812D01*
X251570000Y-275848072D01*
X253270000Y-275848072D01*
X253394482Y-275835812D01*
X253514180Y-275799502D01*
X253624494Y-275740537D01*
X253721185Y-275661185D01*
X253800537Y-275564494D01*
X253859502Y-275454180D01*
X253895812Y-275334482D01*
X253904625Y-275245000D01*
X261196531Y-275245000D01*
X261240000Y-275249281D01*
X261283469Y-275245000D01*
X261283477Y-275245000D01*
X261413490Y-275232195D01*
X261580313Y-275181589D01*
X261734059Y-275099411D01*
X261868817Y-274988817D01*
X261896534Y-274955044D01*
X274378865Y-262472713D01*
X274387806Y-262563490D01*
X274438412Y-262730313D01*
X274520590Y-262884059D01*
X274631184Y-263018817D01*
X274765942Y-263129411D01*
X274919688Y-263211589D01*
X275086511Y-263262195D01*
X275260000Y-263279282D01*
X275433490Y-263262195D01*
X275600313Y-263211589D01*
X275754059Y-263129411D01*
X275888817Y-263018817D01*
X275999411Y-262884059D01*
X276081589Y-262730313D01*
X276132195Y-262563490D01*
X276145000Y-262433477D01*
X276145000Y-260878454D01*
X276177205Y-260830256D01*
X276255226Y-260641898D01*
X276295000Y-260441939D01*
X276295000Y-260238061D01*
X276255226Y-260038102D01*
X276216637Y-259944941D01*
X281585049Y-254576530D01*
X281618817Y-254548817D01*
X281680910Y-254473158D01*
X281729411Y-254414059D01*
X281811588Y-254260314D01*
X281811589Y-254260313D01*
X281862195Y-254093490D01*
X281875000Y-253963477D01*
X281875000Y-253963469D01*
X281879281Y-253920000D01*
X281875000Y-253876531D01*
X281875000Y-251378454D01*
X281907205Y-251330256D01*
X281985226Y-251141898D01*
X282025000Y-250941939D01*
X282025000Y-250738061D01*
X281985226Y-250538102D01*
X281907205Y-250349744D01*
X281793937Y-250180226D01*
X281649774Y-250036063D01*
X281480256Y-249922795D01*
X281291898Y-249844774D01*
X281091939Y-249805000D01*
X280888061Y-249805000D01*
X280688102Y-249844774D01*
X280499744Y-249922795D01*
X280330226Y-250036063D01*
X280186063Y-250180226D01*
X280072795Y-250349744D01*
X279994774Y-250538102D01*
X279955000Y-250738061D01*
X279955000Y-250941939D01*
X279994774Y-251141898D01*
X280072795Y-251330256D01*
X280105000Y-251378455D01*
X280105001Y-253553420D01*
X274664956Y-258993466D01*
X274631183Y-259021183D01*
X274520589Y-259155942D01*
X274438411Y-259309688D01*
X274427768Y-259344774D01*
X274390446Y-259467806D01*
X274387805Y-259476511D01*
X274375000Y-259606524D01*
X274375000Y-259606531D01*
X274370719Y-259650000D01*
X274375000Y-259693469D01*
X274375000Y-259801546D01*
X274342795Y-259849744D01*
X274264774Y-260038102D01*
X274253465Y-260094956D01*
X260873422Y-273475000D01*
X253904625Y-273475000D01*
X253895812Y-273385518D01*
X253859502Y-273265820D01*
X253800537Y-273155506D01*
X253721185Y-273058815D01*
X253624494Y-272979463D01*
X253514180Y-272920498D01*
X253441620Y-272898487D01*
X253573475Y-272766632D01*
X253735990Y-272523411D01*
X253847932Y-272253158D01*
X253905000Y-271966260D01*
X253905000Y-271673740D01*
X253847932Y-271386842D01*
X253735990Y-271116589D01*
X253573475Y-270873368D01*
X253366632Y-270666525D01*
X253192240Y-270550000D01*
X253366632Y-270433475D01*
X253573475Y-270226632D01*
X253735990Y-269983411D01*
X253847932Y-269713158D01*
X253905000Y-269426260D01*
X253905000Y-269133740D01*
X253847932Y-268846842D01*
X253735990Y-268576589D01*
X253573475Y-268333368D01*
X253366632Y-268126525D01*
X253192240Y-268010000D01*
X253366632Y-267893475D01*
X253573475Y-267686632D01*
X253735990Y-267443411D01*
X253847932Y-267173158D01*
X253905000Y-266886260D01*
X253905000Y-266593740D01*
X253847932Y-266306842D01*
X253735990Y-266036589D01*
X253573475Y-265793368D01*
X253366632Y-265586525D01*
X253192240Y-265470000D01*
X253366632Y-265353475D01*
X253573475Y-265146632D01*
X253735990Y-264903411D01*
X253847932Y-264633158D01*
X253905000Y-264346260D01*
X253905000Y-264053740D01*
X253847932Y-263766842D01*
X253735990Y-263496589D01*
X253573475Y-263253368D01*
X253366632Y-263046525D01*
X253192240Y-262930000D01*
X253366632Y-262813475D01*
X253573475Y-262606632D01*
X253735990Y-262363411D01*
X253847932Y-262093158D01*
X253905000Y-261806260D01*
X253905000Y-261513740D01*
X253847932Y-261226842D01*
X253735990Y-260956589D01*
X253573475Y-260713368D01*
X253366632Y-260506525D01*
X253184466Y-260384805D01*
X253301355Y-260315178D01*
X253517588Y-260120269D01*
X253691641Y-259886920D01*
X253816825Y-259624099D01*
X253861476Y-259476890D01*
X253740155Y-259247000D01*
X252547000Y-259247000D01*
X252547000Y-259267000D01*
X252293000Y-259267000D01*
X252293000Y-259247000D01*
X251099845Y-259247000D01*
X250978524Y-259476890D01*
X251023175Y-259624099D01*
X251148359Y-259886920D01*
X251322412Y-260120269D01*
X251538645Y-260315178D01*
X251655534Y-260384805D01*
X251473368Y-260506525D01*
X251266525Y-260713368D01*
X251104010Y-260956589D01*
X250992068Y-261226842D01*
X250935000Y-261513740D01*
X250935000Y-261806260D01*
X250992068Y-262093158D01*
X251104010Y-262363411D01*
X251266525Y-262606632D01*
X251473368Y-262813475D01*
X251647760Y-262930000D01*
X251473368Y-263046525D01*
X251266525Y-263253368D01*
X251104010Y-263496589D01*
X250992068Y-263766842D01*
X250935000Y-264053740D01*
X250935000Y-264346260D01*
X250992068Y-264633158D01*
X251104010Y-264903411D01*
X251266525Y-265146632D01*
X251473368Y-265353475D01*
X251647760Y-265470000D01*
X251473368Y-265586525D01*
X251266525Y-265793368D01*
X251104010Y-266036589D01*
X250992068Y-266306842D01*
X250935000Y-266593740D01*
X250935000Y-266886260D01*
X250992068Y-267173158D01*
X251104010Y-267443411D01*
X251266525Y-267686632D01*
X251473368Y-267893475D01*
X251647760Y-268010000D01*
X251473368Y-268126525D01*
X251266525Y-268333368D01*
X251104010Y-268576589D01*
X250992068Y-268846842D01*
X250935000Y-269133740D01*
X250935000Y-269426260D01*
X250992068Y-269713158D01*
X251104010Y-269983411D01*
X251266525Y-270226632D01*
X251473368Y-270433475D01*
X251647760Y-270550000D01*
X251473368Y-270666525D01*
X251266525Y-270873368D01*
X251104010Y-271116589D01*
X250992068Y-271386842D01*
X250935000Y-271673740D01*
X250935000Y-271966260D01*
X250992068Y-272253158D01*
X251104010Y-272523411D01*
X251266525Y-272766632D01*
X251398380Y-272898487D01*
X251325820Y-272920498D01*
X251215506Y-272979463D01*
X251118815Y-273058815D01*
X251039463Y-273155506D01*
X250980498Y-273265820D01*
X250944188Y-273385518D01*
X250931928Y-273510000D01*
X250127000Y-273510000D01*
X250127000Y-253893740D01*
X250935000Y-253893740D01*
X250935000Y-254186260D01*
X250992068Y-254473158D01*
X251104010Y-254743411D01*
X251266525Y-254986632D01*
X251473368Y-255193475D01*
X251647760Y-255310000D01*
X251473368Y-255426525D01*
X251266525Y-255633368D01*
X251104010Y-255876589D01*
X250992068Y-256146842D01*
X250935000Y-256433740D01*
X250935000Y-256726260D01*
X250992068Y-257013158D01*
X251104010Y-257283411D01*
X251266525Y-257526632D01*
X251473368Y-257733475D01*
X251655534Y-257855195D01*
X251538645Y-257924822D01*
X251322412Y-258119731D01*
X251148359Y-258353080D01*
X251023175Y-258615901D01*
X250978524Y-258763110D01*
X251099845Y-258993000D01*
X252293000Y-258993000D01*
X252293000Y-258973000D01*
X252547000Y-258973000D01*
X252547000Y-258993000D01*
X253740155Y-258993000D01*
X253861476Y-258763110D01*
X253816825Y-258615901D01*
X253691641Y-258353080D01*
X253517588Y-258119731D01*
X253301355Y-257924822D01*
X253184466Y-257855195D01*
X253366632Y-257733475D01*
X253573475Y-257526632D01*
X253735990Y-257283411D01*
X253847932Y-257013158D01*
X253905000Y-256726260D01*
X253905000Y-256433740D01*
X253847932Y-256146842D01*
X253735990Y-255876589D01*
X253573475Y-255633368D01*
X253366632Y-255426525D01*
X253192240Y-255310000D01*
X253366632Y-255193475D01*
X253573475Y-254986632D01*
X253735990Y-254743411D01*
X253847932Y-254473158D01*
X253905000Y-254186260D01*
X253905000Y-253893740D01*
X253847932Y-253606842D01*
X253735990Y-253336589D01*
X253573475Y-253093368D01*
X253366632Y-252886525D01*
X253123411Y-252724010D01*
X252853158Y-252612068D01*
X252566260Y-252555000D01*
X252273740Y-252555000D01*
X251986842Y-252612068D01*
X251716589Y-252724010D01*
X251473368Y-252886525D01*
X251266525Y-253093368D01*
X251104010Y-253336589D01*
X250992068Y-253606842D01*
X250935000Y-253893740D01*
X250127000Y-253893740D01*
X250127000Y-247167000D01*
X289285000Y-247167000D01*
X289285000Y-247442000D01*
X289335908Y-247704883D01*
X289437124Y-247952783D01*
X289584758Y-248176173D01*
X289773137Y-248366469D01*
X289995021Y-248516357D01*
X290241883Y-248620078D01*
X290307742Y-248632519D01*
X290518000Y-248509518D01*
X290518000Y-247167000D01*
X290772000Y-247167000D01*
X290772000Y-248509518D01*
X290982258Y-248632519D01*
X291048117Y-248620078D01*
X291294979Y-248516357D01*
X291516863Y-248366469D01*
X291705242Y-248176173D01*
X291852876Y-247952783D01*
X291954092Y-247704883D01*
X292005000Y-247442000D01*
X292005000Y-247167000D01*
X296735000Y-247167000D01*
X296735000Y-247442000D01*
X296785908Y-247704883D01*
X296887124Y-247952783D01*
X297034758Y-248176173D01*
X297223137Y-248366469D01*
X297445021Y-248516357D01*
X297691883Y-248620078D01*
X297757742Y-248632519D01*
X297968000Y-248509518D01*
X297968000Y-247167000D01*
X298222000Y-247167000D01*
X298222000Y-248509518D01*
X298432258Y-248632519D01*
X298498117Y-248620078D01*
X298744979Y-248516357D01*
X298966863Y-248366469D01*
X299155242Y-248176173D01*
X299302876Y-247952783D01*
X299404092Y-247704883D01*
X299455000Y-247442000D01*
X299455000Y-247167000D01*
X298222000Y-247167000D01*
X297968000Y-247167000D01*
X296735000Y-247167000D01*
X292005000Y-247167000D01*
X290772000Y-247167000D01*
X290518000Y-247167000D01*
X289285000Y-247167000D01*
X250127000Y-247167000D01*
X250127000Y-246638000D01*
X289285000Y-246638000D01*
X289285000Y-246913000D01*
X290518000Y-246913000D01*
X290518000Y-245570482D01*
X290772000Y-245570482D01*
X290772000Y-246913000D01*
X291393734Y-246913000D01*
X291568102Y-246985226D01*
X291768061Y-247025000D01*
X291971939Y-247025000D01*
X292171898Y-246985226D01*
X292360256Y-246907205D01*
X292529774Y-246793937D01*
X292673937Y-246649774D01*
X292787205Y-246480256D01*
X292865226Y-246291898D01*
X292905000Y-246091939D01*
X292905000Y-245888061D01*
X295835000Y-245888061D01*
X295835000Y-246091939D01*
X295874774Y-246291898D01*
X295952795Y-246480256D01*
X296066063Y-246649774D01*
X296210226Y-246793937D01*
X296379744Y-246907205D01*
X296568102Y-246985226D01*
X296768061Y-247025000D01*
X296971939Y-247025000D01*
X297171898Y-246985226D01*
X297346266Y-246913000D01*
X297968000Y-246913000D01*
X297968000Y-245570482D01*
X298222000Y-245570482D01*
X298222000Y-246913000D01*
X299455000Y-246913000D01*
X299455000Y-246638000D01*
X299404092Y-246375117D01*
X299302876Y-246127217D01*
X299155242Y-245903827D01*
X298966863Y-245713531D01*
X298744979Y-245563643D01*
X298498117Y-245459922D01*
X298432258Y-245447481D01*
X298222000Y-245570482D01*
X297968000Y-245570482D01*
X297757742Y-245447481D01*
X297752896Y-245448396D01*
X297673937Y-245330226D01*
X297529774Y-245186063D01*
X297360256Y-245072795D01*
X297171898Y-244994774D01*
X296971939Y-244955000D01*
X296768061Y-244955000D01*
X296568102Y-244994774D01*
X296379744Y-245072795D01*
X296210226Y-245186063D01*
X296066063Y-245330226D01*
X295952795Y-245499744D01*
X295874774Y-245688102D01*
X295835000Y-245888061D01*
X292905000Y-245888061D01*
X292865226Y-245688102D01*
X292787205Y-245499744D01*
X292673937Y-245330226D01*
X292529774Y-245186063D01*
X292360256Y-245072795D01*
X292171898Y-244994774D01*
X291971939Y-244955000D01*
X291768061Y-244955000D01*
X291568102Y-244994774D01*
X291379744Y-245072795D01*
X291210226Y-245186063D01*
X291066063Y-245330226D01*
X290987104Y-245448396D01*
X290982258Y-245447481D01*
X290772000Y-245570482D01*
X290518000Y-245570482D01*
X290307742Y-245447481D01*
X290241883Y-245459922D01*
X289995021Y-245563643D01*
X289773137Y-245713531D01*
X289584758Y-245903827D01*
X289437124Y-246127217D01*
X289335908Y-246375117D01*
X289285000Y-246638000D01*
X250127000Y-246638000D01*
X250127000Y-243367000D01*
X289285000Y-243367000D01*
X289285000Y-243692000D01*
X289333026Y-243925619D01*
X289425706Y-244145380D01*
X289559479Y-244342837D01*
X289729203Y-244510402D01*
X289928356Y-244641636D01*
X290149285Y-244731496D01*
X290181323Y-244733635D01*
X290368000Y-244608550D01*
X290368000Y-243367000D01*
X290622000Y-243367000D01*
X290622000Y-244608550D01*
X290808677Y-244733635D01*
X290840715Y-244731496D01*
X291061644Y-244641636D01*
X291260797Y-244510402D01*
X291430521Y-244342837D01*
X291564294Y-244145380D01*
X291656974Y-243925619D01*
X291705000Y-243692000D01*
X291705000Y-243367000D01*
X297035000Y-243367000D01*
X297035000Y-243692000D01*
X297083026Y-243925619D01*
X297175706Y-244145380D01*
X297309479Y-244342837D01*
X297479203Y-244510402D01*
X297678356Y-244641636D01*
X297899285Y-244731496D01*
X297931323Y-244733635D01*
X298118000Y-244608550D01*
X298118000Y-243367000D01*
X298372000Y-243367000D01*
X298372000Y-244608550D01*
X298558677Y-244733635D01*
X298590715Y-244731496D01*
X298811644Y-244641636D01*
X299010797Y-244510402D01*
X299180521Y-244342837D01*
X299314294Y-244145380D01*
X299406974Y-243925619D01*
X299455000Y-243692000D01*
X299455000Y-243367000D01*
X298372000Y-243367000D01*
X298118000Y-243367000D01*
X297035000Y-243367000D01*
X291705000Y-243367000D01*
X290622000Y-243367000D01*
X290368000Y-243367000D01*
X289285000Y-243367000D01*
X250127000Y-243367000D01*
X250127000Y-242788000D01*
X289285000Y-242788000D01*
X289285000Y-243113000D01*
X290368000Y-243113000D01*
X290368000Y-241871450D01*
X290622000Y-241871450D01*
X290622000Y-243113000D01*
X291705000Y-243113000D01*
X291705000Y-242788000D01*
X297035000Y-242788000D01*
X297035000Y-243113000D01*
X298118000Y-243113000D01*
X298118000Y-241871450D01*
X298372000Y-241871450D01*
X298372000Y-243113000D01*
X299455000Y-243113000D01*
X299455000Y-242788000D01*
X299406974Y-242554381D01*
X299314294Y-242334620D01*
X299180521Y-242137163D01*
X299010797Y-241969598D01*
X298811644Y-241838364D01*
X298590715Y-241748504D01*
X298558677Y-241746365D01*
X298372000Y-241871450D01*
X298118000Y-241871450D01*
X297931323Y-241746365D01*
X297899285Y-241748504D01*
X297678356Y-241838364D01*
X297479203Y-241969598D01*
X297309479Y-242137163D01*
X297175706Y-242334620D01*
X297083026Y-242554381D01*
X297035000Y-242788000D01*
X291705000Y-242788000D01*
X291656974Y-242554381D01*
X291564294Y-242334620D01*
X291430521Y-242137163D01*
X291260797Y-241969598D01*
X291061644Y-241838364D01*
X290840715Y-241748504D01*
X290808677Y-241746365D01*
X290622000Y-241871450D01*
X290368000Y-241871450D01*
X290181323Y-241746365D01*
X290149285Y-241748504D01*
X289928356Y-241838364D01*
X289729203Y-241969598D01*
X289559479Y-242137163D01*
X289425706Y-242334620D01*
X289333026Y-242554381D01*
X289285000Y-242788000D01*
X250127000Y-242788000D01*
X250127000Y-240127000D01*
X299873000Y-240127000D01*
X299873000Y-299873000D01*
M02*
