G04 #@! TF.GenerationSoftware,KiCad,Pcbnew,5.1.5-52549c5~84~ubuntu18.04.1*
G04 #@! TF.CreationDate,2020-02-14T13:22:25+01:00*
G04 #@! TF.ProjectId,Project,50726f6a-6563-4742-9e6b-696361645f70,rev?*
G04 #@! TF.SameCoordinates,Original*
G04 #@! TF.FileFunction,Soldermask,Top*
G04 #@! TF.FilePolarity,Negative*
%FSLAX46Y46*%
G04 Gerber Fmt 4.6, Leading zero omitted, Abs format (unit mm)*
G04 Created by KiCad (PCBNEW 5.1.5-52549c5~84~ubuntu18.04.1) date 2020-02-14 13:22:25*
%MOMM*%
%LPD*%
G04 APERTURE LIST*
%ADD10C,0.100000*%
G04 APERTURE END LIST*
D10*
G36*
X273061000Y-299581000D02*
G01*
X271659000Y-299581000D01*
X271659000Y-297929000D01*
X273061000Y-297929000D01*
X273061000Y-299581000D01*
G37*
G36*
X268561000Y-299581000D02*
G01*
X267159000Y-299581000D01*
X267159000Y-297929000D01*
X268561000Y-297929000D01*
X268561000Y-299581000D01*
G37*
G36*
X291491000Y-298861000D02*
G01*
X289839000Y-298861000D01*
X289839000Y-297459000D01*
X291491000Y-297459000D01*
X291491000Y-298861000D01*
G37*
G36*
X299441000Y-298861000D02*
G01*
X297789000Y-298861000D01*
X297789000Y-297459000D01*
X299441000Y-297459000D01*
X299441000Y-298861000D01*
G37*
G36*
X281413512Y-296703927D02*
G01*
X281562812Y-296733624D01*
X281726784Y-296801544D01*
X281874354Y-296900147D01*
X281999853Y-297025646D01*
X282098456Y-297173216D01*
X282166376Y-297337188D01*
X282201000Y-297511259D01*
X282201000Y-297688741D01*
X282166376Y-297862812D01*
X282098456Y-298026784D01*
X281999853Y-298174354D01*
X281874354Y-298299853D01*
X281726784Y-298398456D01*
X281562812Y-298466376D01*
X281413512Y-298496073D01*
X281388742Y-298501000D01*
X281211258Y-298501000D01*
X281186488Y-298496073D01*
X281037188Y-298466376D01*
X280873216Y-298398456D01*
X280725646Y-298299853D01*
X280600147Y-298174354D01*
X280501544Y-298026784D01*
X280433624Y-297862812D01*
X280399000Y-297688741D01*
X280399000Y-297511259D01*
X280433624Y-297337188D01*
X280501544Y-297173216D01*
X280600147Y-297025646D01*
X280725646Y-296900147D01*
X280873216Y-296801544D01*
X281037188Y-296733624D01*
X281186488Y-296703927D01*
X281211258Y-296699000D01*
X281388742Y-296699000D01*
X281413512Y-296703927D01*
G37*
G36*
X278873512Y-296703927D02*
G01*
X279022812Y-296733624D01*
X279186784Y-296801544D01*
X279334354Y-296900147D01*
X279459853Y-297025646D01*
X279558456Y-297173216D01*
X279626376Y-297337188D01*
X279661000Y-297511259D01*
X279661000Y-297688741D01*
X279626376Y-297862812D01*
X279558456Y-298026784D01*
X279459853Y-298174354D01*
X279334354Y-298299853D01*
X279186784Y-298398456D01*
X279022812Y-298466376D01*
X278873512Y-298496073D01*
X278848742Y-298501000D01*
X278671258Y-298501000D01*
X278646488Y-298496073D01*
X278497188Y-298466376D01*
X278333216Y-298398456D01*
X278185646Y-298299853D01*
X278060147Y-298174354D01*
X277961544Y-298026784D01*
X277893624Y-297862812D01*
X277859000Y-297688741D01*
X277859000Y-297511259D01*
X277893624Y-297337188D01*
X277961544Y-297173216D01*
X278060147Y-297025646D01*
X278185646Y-296900147D01*
X278333216Y-296801544D01*
X278497188Y-296733624D01*
X278646488Y-296703927D01*
X278671258Y-296699000D01*
X278848742Y-296699000D01*
X278873512Y-296703927D01*
G37*
G36*
X277121000Y-298501000D02*
G01*
X275319000Y-298501000D01*
X275319000Y-296699000D01*
X277121000Y-296699000D01*
X277121000Y-298501000D01*
G37*
G36*
X286493512Y-296703927D02*
G01*
X286642812Y-296733624D01*
X286806784Y-296801544D01*
X286954354Y-296900147D01*
X287079853Y-297025646D01*
X287178456Y-297173216D01*
X287246376Y-297337188D01*
X287281000Y-297511259D01*
X287281000Y-297688741D01*
X287246376Y-297862812D01*
X287178456Y-298026784D01*
X287079853Y-298174354D01*
X286954354Y-298299853D01*
X286806784Y-298398456D01*
X286642812Y-298466376D01*
X286493512Y-298496073D01*
X286468742Y-298501000D01*
X286291258Y-298501000D01*
X286266488Y-298496073D01*
X286117188Y-298466376D01*
X285953216Y-298398456D01*
X285805646Y-298299853D01*
X285680147Y-298174354D01*
X285581544Y-298026784D01*
X285513624Y-297862812D01*
X285479000Y-297688741D01*
X285479000Y-297511259D01*
X285513624Y-297337188D01*
X285581544Y-297173216D01*
X285680147Y-297025646D01*
X285805646Y-296900147D01*
X285953216Y-296801544D01*
X286117188Y-296733624D01*
X286266488Y-296703927D01*
X286291258Y-296699000D01*
X286468742Y-296699000D01*
X286493512Y-296703927D01*
G37*
G36*
X283953512Y-296703927D02*
G01*
X284102812Y-296733624D01*
X284266784Y-296801544D01*
X284414354Y-296900147D01*
X284539853Y-297025646D01*
X284638456Y-297173216D01*
X284706376Y-297337188D01*
X284741000Y-297511259D01*
X284741000Y-297688741D01*
X284706376Y-297862812D01*
X284638456Y-298026784D01*
X284539853Y-298174354D01*
X284414354Y-298299853D01*
X284266784Y-298398456D01*
X284102812Y-298466376D01*
X283953512Y-298496073D01*
X283928742Y-298501000D01*
X283751258Y-298501000D01*
X283726488Y-298496073D01*
X283577188Y-298466376D01*
X283413216Y-298398456D01*
X283265646Y-298299853D01*
X283140147Y-298174354D01*
X283041544Y-298026784D01*
X282973624Y-297862812D01*
X282939000Y-297688741D01*
X282939000Y-297511259D01*
X282973624Y-297337188D01*
X283041544Y-297173216D01*
X283140147Y-297025646D01*
X283265646Y-296900147D01*
X283413216Y-296801544D01*
X283577188Y-296733624D01*
X283726488Y-296703927D01*
X283751258Y-296699000D01*
X283928742Y-296699000D01*
X283953512Y-296703927D01*
G37*
G36*
X258048674Y-295103465D02*
G01*
X258086367Y-295114899D01*
X258121103Y-295133466D01*
X258151548Y-295158452D01*
X258176534Y-295188897D01*
X258195101Y-295223633D01*
X258206535Y-295261326D01*
X258211000Y-295306661D01*
X258211000Y-296143339D01*
X258206535Y-296188674D01*
X258195101Y-296226367D01*
X258176534Y-296261103D01*
X258151548Y-296291548D01*
X258121103Y-296316534D01*
X258086367Y-296335101D01*
X258048674Y-296346535D01*
X258003339Y-296351000D01*
X256916661Y-296351000D01*
X256871326Y-296346535D01*
X256833633Y-296335101D01*
X256798897Y-296316534D01*
X256768452Y-296291548D01*
X256743466Y-296261103D01*
X256724899Y-296226367D01*
X256713465Y-296188674D01*
X256709000Y-296143339D01*
X256709000Y-295306661D01*
X256713465Y-295261326D01*
X256724899Y-295223633D01*
X256743466Y-295188897D01*
X256768452Y-295158452D01*
X256798897Y-295133466D01*
X256833633Y-295114899D01*
X256871326Y-295103465D01*
X256916661Y-295099000D01*
X258003339Y-295099000D01*
X258048674Y-295103465D01*
G37*
G36*
X264078674Y-295038465D02*
G01*
X264116367Y-295049899D01*
X264151103Y-295068466D01*
X264181548Y-295093452D01*
X264206534Y-295123897D01*
X264225101Y-295158633D01*
X264236535Y-295196326D01*
X264241000Y-295241661D01*
X264241000Y-296078339D01*
X264236535Y-296123674D01*
X264225101Y-296161367D01*
X264206534Y-296196103D01*
X264181548Y-296226548D01*
X264151103Y-296251534D01*
X264116367Y-296270101D01*
X264078674Y-296281535D01*
X264033339Y-296286000D01*
X262946661Y-296286000D01*
X262901326Y-296281535D01*
X262863633Y-296270101D01*
X262828897Y-296251534D01*
X262798452Y-296226548D01*
X262773466Y-296196103D01*
X262754899Y-296161367D01*
X262743465Y-296123674D01*
X262739000Y-296078339D01*
X262739000Y-295241661D01*
X262743465Y-295196326D01*
X262754899Y-295158633D01*
X262773466Y-295123897D01*
X262798452Y-295093452D01*
X262828897Y-295068466D01*
X262863633Y-295049899D01*
X262901326Y-295038465D01*
X262946661Y-295034000D01*
X264033339Y-295034000D01*
X264078674Y-295038465D01*
G37*
G36*
X254041000Y-295866000D02*
G01*
X251739000Y-295866000D01*
X251739000Y-294714000D01*
X254041000Y-294714000D01*
X254041000Y-295866000D01*
G37*
G36*
X261893674Y-292983465D02*
G01*
X261931367Y-292994899D01*
X261966103Y-293013466D01*
X261996548Y-293038452D01*
X262021534Y-293068897D01*
X262040101Y-293103633D01*
X262051535Y-293141326D01*
X262056000Y-293186661D01*
X262056000Y-294273339D01*
X262051535Y-294318674D01*
X262040101Y-294356367D01*
X262021534Y-294391103D01*
X261996548Y-294421548D01*
X261966103Y-294446534D01*
X261931367Y-294465101D01*
X261893674Y-294476535D01*
X261848339Y-294481000D01*
X261011661Y-294481000D01*
X260966326Y-294476535D01*
X260928633Y-294465101D01*
X260893897Y-294446534D01*
X260863452Y-294421548D01*
X260838466Y-294391103D01*
X260819899Y-294356367D01*
X260808465Y-294318674D01*
X260804000Y-294273339D01*
X260804000Y-293186661D01*
X260808465Y-293141326D01*
X260819899Y-293103633D01*
X260838466Y-293068897D01*
X260863452Y-293038452D01*
X260893897Y-293013466D01*
X260928633Y-292994899D01*
X260966326Y-292983465D01*
X261011661Y-292979000D01*
X261848339Y-292979000D01*
X261893674Y-292983465D01*
G37*
G36*
X259843674Y-292983465D02*
G01*
X259881367Y-292994899D01*
X259916103Y-293013466D01*
X259946548Y-293038452D01*
X259971534Y-293068897D01*
X259990101Y-293103633D01*
X260001535Y-293141326D01*
X260006000Y-293186661D01*
X260006000Y-294273339D01*
X260001535Y-294318674D01*
X259990101Y-294356367D01*
X259971534Y-294391103D01*
X259946548Y-294421548D01*
X259916103Y-294446534D01*
X259881367Y-294465101D01*
X259843674Y-294476535D01*
X259798339Y-294481000D01*
X258961661Y-294481000D01*
X258916326Y-294476535D01*
X258878633Y-294465101D01*
X258843897Y-294446534D01*
X258813452Y-294421548D01*
X258788466Y-294391103D01*
X258769899Y-294356367D01*
X258758465Y-294318674D01*
X258754000Y-294273339D01*
X258754000Y-293186661D01*
X258758465Y-293141326D01*
X258769899Y-293103633D01*
X258788466Y-293068897D01*
X258813452Y-293038452D01*
X258843897Y-293013466D01*
X258878633Y-292994899D01*
X258916326Y-292983465D01*
X258961661Y-292979000D01*
X259798339Y-292979000D01*
X259843674Y-292983465D01*
G37*
G36*
X286721674Y-292877465D02*
G01*
X286759367Y-292888899D01*
X286794103Y-292907466D01*
X286824548Y-292932452D01*
X286849534Y-292962897D01*
X286868101Y-292997633D01*
X286879535Y-293035326D01*
X286884000Y-293080661D01*
X286884000Y-294167339D01*
X286879535Y-294212674D01*
X286868101Y-294250367D01*
X286849534Y-294285103D01*
X286824548Y-294315548D01*
X286794103Y-294340534D01*
X286759367Y-294359101D01*
X286721674Y-294370535D01*
X286676339Y-294375000D01*
X285839661Y-294375000D01*
X285794326Y-294370535D01*
X285756633Y-294359101D01*
X285721897Y-294340534D01*
X285691452Y-294315548D01*
X285666466Y-294285103D01*
X285647899Y-294250367D01*
X285636465Y-294212674D01*
X285632000Y-294167339D01*
X285632000Y-293080661D01*
X285636465Y-293035326D01*
X285647899Y-292997633D01*
X285666466Y-292962897D01*
X285691452Y-292932452D01*
X285721897Y-292907466D01*
X285756633Y-292888899D01*
X285794326Y-292877465D01*
X285839661Y-292873000D01*
X286676339Y-292873000D01*
X286721674Y-292877465D01*
G37*
G36*
X288771674Y-292877465D02*
G01*
X288809367Y-292888899D01*
X288844103Y-292907466D01*
X288874548Y-292932452D01*
X288899534Y-292962897D01*
X288918101Y-292997633D01*
X288929535Y-293035326D01*
X288934000Y-293080661D01*
X288934000Y-294167339D01*
X288929535Y-294212674D01*
X288918101Y-294250367D01*
X288899534Y-294285103D01*
X288874548Y-294315548D01*
X288844103Y-294340534D01*
X288809367Y-294359101D01*
X288771674Y-294370535D01*
X288726339Y-294375000D01*
X287889661Y-294375000D01*
X287844326Y-294370535D01*
X287806633Y-294359101D01*
X287771897Y-294340534D01*
X287741452Y-294315548D01*
X287716466Y-294285103D01*
X287697899Y-294250367D01*
X287686465Y-294212674D01*
X287682000Y-294167339D01*
X287682000Y-293080661D01*
X287686465Y-293035326D01*
X287697899Y-292997633D01*
X287716466Y-292962897D01*
X287741452Y-292932452D01*
X287771897Y-292907466D01*
X287806633Y-292888899D01*
X287844326Y-292877465D01*
X287889661Y-292873000D01*
X288726339Y-292873000D01*
X288771674Y-292877465D01*
G37*
G36*
X254941000Y-294366000D02*
G01*
X253839000Y-294366000D01*
X253839000Y-293264000D01*
X254941000Y-293264000D01*
X254941000Y-294366000D01*
G37*
G36*
X251941000Y-294366000D02*
G01*
X250839000Y-294366000D01*
X250839000Y-293264000D01*
X251941000Y-293264000D01*
X251941000Y-294366000D01*
G37*
G36*
X299441000Y-294361000D02*
G01*
X297789000Y-294361000D01*
X297789000Y-292959000D01*
X299441000Y-292959000D01*
X299441000Y-294361000D01*
G37*
G36*
X291491000Y-294361000D02*
G01*
X289839000Y-294361000D01*
X289839000Y-292959000D01*
X291491000Y-292959000D01*
X291491000Y-294361000D01*
G37*
G36*
X258048674Y-293053465D02*
G01*
X258086367Y-293064899D01*
X258121103Y-293083466D01*
X258151548Y-293108452D01*
X258176534Y-293138897D01*
X258195101Y-293173633D01*
X258206535Y-293211326D01*
X258211000Y-293256661D01*
X258211000Y-294093339D01*
X258206535Y-294138674D01*
X258195101Y-294176367D01*
X258176534Y-294211103D01*
X258151548Y-294241548D01*
X258121103Y-294266534D01*
X258086367Y-294285101D01*
X258048674Y-294296535D01*
X258003339Y-294301000D01*
X256916661Y-294301000D01*
X256871326Y-294296535D01*
X256833633Y-294285101D01*
X256798897Y-294266534D01*
X256768452Y-294241548D01*
X256743466Y-294211103D01*
X256724899Y-294176367D01*
X256713465Y-294138674D01*
X256709000Y-294093339D01*
X256709000Y-293256661D01*
X256713465Y-293211326D01*
X256724899Y-293173633D01*
X256743466Y-293138897D01*
X256768452Y-293108452D01*
X256798897Y-293083466D01*
X256833633Y-293064899D01*
X256871326Y-293053465D01*
X256916661Y-293049000D01*
X258003339Y-293049000D01*
X258048674Y-293053465D01*
G37*
G36*
X264078674Y-292988465D02*
G01*
X264116367Y-292999899D01*
X264151103Y-293018466D01*
X264181548Y-293043452D01*
X264206534Y-293073897D01*
X264225101Y-293108633D01*
X264236535Y-293146326D01*
X264241000Y-293191661D01*
X264241000Y-294028339D01*
X264236535Y-294073674D01*
X264225101Y-294111367D01*
X264206534Y-294146103D01*
X264181548Y-294176548D01*
X264151103Y-294201534D01*
X264116367Y-294220101D01*
X264078674Y-294231535D01*
X264033339Y-294236000D01*
X262946661Y-294236000D01*
X262901326Y-294231535D01*
X262863633Y-294220101D01*
X262828897Y-294201534D01*
X262798452Y-294176548D01*
X262773466Y-294146103D01*
X262754899Y-294111367D01*
X262743465Y-294073674D01*
X262739000Y-294028339D01*
X262739000Y-293191661D01*
X262743465Y-293146326D01*
X262754899Y-293108633D01*
X262773466Y-293073897D01*
X262798452Y-293043452D01*
X262828897Y-293018466D01*
X262863633Y-292999899D01*
X262901326Y-292988465D01*
X262946661Y-292984000D01*
X264033339Y-292984000D01*
X264078674Y-292988465D01*
G37*
G36*
X254041000Y-292916000D02*
G01*
X251739000Y-292916000D01*
X251739000Y-291764000D01*
X254041000Y-291764000D01*
X254041000Y-292916000D01*
G37*
G36*
X273061000Y-291631000D02*
G01*
X271659000Y-291631000D01*
X271659000Y-289979000D01*
X273061000Y-289979000D01*
X273061000Y-291631000D01*
G37*
G36*
X268561000Y-291631000D02*
G01*
X267159000Y-291631000D01*
X267159000Y-289979000D01*
X268561000Y-289979000D01*
X268561000Y-291631000D01*
G37*
G36*
X291237000Y-290733000D02*
G01*
X289585000Y-290733000D01*
X289585000Y-289331000D01*
X291237000Y-289331000D01*
X291237000Y-290733000D01*
G37*
G36*
X299187000Y-290733000D02*
G01*
X297535000Y-290733000D01*
X297535000Y-289331000D01*
X299187000Y-289331000D01*
X299187000Y-290733000D01*
G37*
G36*
X288517674Y-289067465D02*
G01*
X288555367Y-289078899D01*
X288590103Y-289097466D01*
X288620548Y-289122452D01*
X288645534Y-289152897D01*
X288664101Y-289187633D01*
X288675535Y-289225326D01*
X288680000Y-289270661D01*
X288680000Y-290357339D01*
X288675535Y-290402674D01*
X288664101Y-290440367D01*
X288645534Y-290475103D01*
X288620548Y-290505548D01*
X288590103Y-290530534D01*
X288555367Y-290549101D01*
X288517674Y-290560535D01*
X288472339Y-290565000D01*
X287635661Y-290565000D01*
X287590326Y-290560535D01*
X287552633Y-290549101D01*
X287517897Y-290530534D01*
X287487452Y-290505548D01*
X287462466Y-290475103D01*
X287443899Y-290440367D01*
X287432465Y-290402674D01*
X287428000Y-290357339D01*
X287428000Y-289270661D01*
X287432465Y-289225326D01*
X287443899Y-289187633D01*
X287462466Y-289152897D01*
X287487452Y-289122452D01*
X287517897Y-289097466D01*
X287552633Y-289078899D01*
X287590326Y-289067465D01*
X287635661Y-289063000D01*
X288472339Y-289063000D01*
X288517674Y-289067465D01*
G37*
G36*
X286467674Y-289067465D02*
G01*
X286505367Y-289078899D01*
X286540103Y-289097466D01*
X286570548Y-289122452D01*
X286595534Y-289152897D01*
X286614101Y-289187633D01*
X286625535Y-289225326D01*
X286630000Y-289270661D01*
X286630000Y-290357339D01*
X286625535Y-290402674D01*
X286614101Y-290440367D01*
X286595534Y-290475103D01*
X286570548Y-290505548D01*
X286540103Y-290530534D01*
X286505367Y-290549101D01*
X286467674Y-290560535D01*
X286422339Y-290565000D01*
X285585661Y-290565000D01*
X285540326Y-290560535D01*
X285502633Y-290549101D01*
X285467897Y-290530534D01*
X285437452Y-290505548D01*
X285412466Y-290475103D01*
X285393899Y-290440367D01*
X285382465Y-290402674D01*
X285378000Y-290357339D01*
X285378000Y-289270661D01*
X285382465Y-289225326D01*
X285393899Y-289187633D01*
X285412466Y-289152897D01*
X285437452Y-289122452D01*
X285467897Y-289097466D01*
X285502633Y-289078899D01*
X285540326Y-289067465D01*
X285585661Y-289063000D01*
X286422339Y-289063000D01*
X286467674Y-289067465D01*
G37*
G36*
X276833674Y-287543465D02*
G01*
X276871367Y-287554899D01*
X276906103Y-287573466D01*
X276936548Y-287598452D01*
X276961534Y-287628897D01*
X276980101Y-287663633D01*
X276991535Y-287701326D01*
X276996000Y-287746661D01*
X276996000Y-288833339D01*
X276991535Y-288878674D01*
X276980101Y-288916367D01*
X276961534Y-288951103D01*
X276936548Y-288981548D01*
X276906103Y-289006534D01*
X276871367Y-289025101D01*
X276833674Y-289036535D01*
X276788339Y-289041000D01*
X275951661Y-289041000D01*
X275906326Y-289036535D01*
X275868633Y-289025101D01*
X275833897Y-289006534D01*
X275803452Y-288981548D01*
X275778466Y-288951103D01*
X275759899Y-288916367D01*
X275748465Y-288878674D01*
X275744000Y-288833339D01*
X275744000Y-287746661D01*
X275748465Y-287701326D01*
X275759899Y-287663633D01*
X275778466Y-287628897D01*
X275803452Y-287598452D01*
X275833897Y-287573466D01*
X275868633Y-287554899D01*
X275906326Y-287543465D01*
X275951661Y-287539000D01*
X276788339Y-287539000D01*
X276833674Y-287543465D01*
G37*
G36*
X274783674Y-287543465D02*
G01*
X274821367Y-287554899D01*
X274856103Y-287573466D01*
X274886548Y-287598452D01*
X274911534Y-287628897D01*
X274930101Y-287663633D01*
X274941535Y-287701326D01*
X274946000Y-287746661D01*
X274946000Y-288833339D01*
X274941535Y-288878674D01*
X274930101Y-288916367D01*
X274911534Y-288951103D01*
X274886548Y-288981548D01*
X274856103Y-289006534D01*
X274821367Y-289025101D01*
X274783674Y-289036535D01*
X274738339Y-289041000D01*
X273901661Y-289041000D01*
X273856326Y-289036535D01*
X273818633Y-289025101D01*
X273783897Y-289006534D01*
X273753452Y-288981548D01*
X273728466Y-288951103D01*
X273709899Y-288916367D01*
X273698465Y-288878674D01*
X273694000Y-288833339D01*
X273694000Y-287746661D01*
X273698465Y-287701326D01*
X273709899Y-287663633D01*
X273728466Y-287628897D01*
X273753452Y-287598452D01*
X273783897Y-287573466D01*
X273818633Y-287554899D01*
X273856326Y-287543465D01*
X273901661Y-287539000D01*
X274738339Y-287539000D01*
X274783674Y-287543465D01*
G37*
G36*
X283664674Y-286781465D02*
G01*
X283702367Y-286792899D01*
X283737103Y-286811466D01*
X283767548Y-286836452D01*
X283792534Y-286866897D01*
X283811101Y-286901633D01*
X283822535Y-286939326D01*
X283827000Y-286984661D01*
X283827000Y-288071339D01*
X283822535Y-288116674D01*
X283811101Y-288154367D01*
X283792534Y-288189103D01*
X283767548Y-288219548D01*
X283737103Y-288244534D01*
X283702367Y-288263101D01*
X283664674Y-288274535D01*
X283619339Y-288279000D01*
X282782661Y-288279000D01*
X282737326Y-288274535D01*
X282699633Y-288263101D01*
X282664897Y-288244534D01*
X282634452Y-288219548D01*
X282609466Y-288189103D01*
X282590899Y-288154367D01*
X282579465Y-288116674D01*
X282575000Y-288071339D01*
X282575000Y-286984661D01*
X282579465Y-286939326D01*
X282590899Y-286901633D01*
X282609466Y-286866897D01*
X282634452Y-286836452D01*
X282664897Y-286811466D01*
X282699633Y-286792899D01*
X282737326Y-286781465D01*
X282782661Y-286777000D01*
X283619339Y-286777000D01*
X283664674Y-286781465D01*
G37*
G36*
X285714674Y-286781465D02*
G01*
X285752367Y-286792899D01*
X285787103Y-286811466D01*
X285817548Y-286836452D01*
X285842534Y-286866897D01*
X285861101Y-286901633D01*
X285872535Y-286939326D01*
X285877000Y-286984661D01*
X285877000Y-288071339D01*
X285872535Y-288116674D01*
X285861101Y-288154367D01*
X285842534Y-288189103D01*
X285817548Y-288219548D01*
X285787103Y-288244534D01*
X285752367Y-288263101D01*
X285714674Y-288274535D01*
X285669339Y-288279000D01*
X284832661Y-288279000D01*
X284787326Y-288274535D01*
X284749633Y-288263101D01*
X284714897Y-288244534D01*
X284684452Y-288219548D01*
X284659466Y-288189103D01*
X284640899Y-288154367D01*
X284629465Y-288116674D01*
X284625000Y-288071339D01*
X284625000Y-286984661D01*
X284629465Y-286939326D01*
X284640899Y-286901633D01*
X284659466Y-286866897D01*
X284684452Y-286836452D01*
X284714897Y-286811466D01*
X284749633Y-286792899D01*
X284787326Y-286781465D01*
X284832661Y-286777000D01*
X285669339Y-286777000D01*
X285714674Y-286781465D01*
G37*
G36*
X254269928Y-287556764D02*
G01*
X254291009Y-287563160D01*
X254310445Y-287573548D01*
X254327476Y-287587524D01*
X254341452Y-287604555D01*
X254351840Y-287623991D01*
X254358236Y-287645072D01*
X254361000Y-287673140D01*
X254361000Y-288136860D01*
X254358236Y-288164928D01*
X254351840Y-288186009D01*
X254341452Y-288205445D01*
X254327476Y-288222476D01*
X254310445Y-288236452D01*
X254291009Y-288246840D01*
X254269928Y-288253236D01*
X254241860Y-288256000D01*
X252428140Y-288256000D01*
X252400072Y-288253236D01*
X252378991Y-288246840D01*
X252359555Y-288236452D01*
X252342524Y-288222476D01*
X252328548Y-288205445D01*
X252318160Y-288186009D01*
X252311764Y-288164928D01*
X252309000Y-288136860D01*
X252309000Y-287673140D01*
X252311764Y-287645072D01*
X252318160Y-287623991D01*
X252328548Y-287604555D01*
X252342524Y-287587524D01*
X252359555Y-287573548D01*
X252378991Y-287563160D01*
X252400072Y-287556764D01*
X252428140Y-287554000D01*
X254241860Y-287554000D01*
X254269928Y-287556764D01*
G37*
G36*
X259219928Y-287556764D02*
G01*
X259241009Y-287563160D01*
X259260445Y-287573548D01*
X259277476Y-287587524D01*
X259291452Y-287604555D01*
X259301840Y-287623991D01*
X259308236Y-287645072D01*
X259311000Y-287673140D01*
X259311000Y-288136860D01*
X259308236Y-288164928D01*
X259301840Y-288186009D01*
X259291452Y-288205445D01*
X259277476Y-288222476D01*
X259260445Y-288236452D01*
X259241009Y-288246840D01*
X259219928Y-288253236D01*
X259191860Y-288256000D01*
X257378140Y-288256000D01*
X257350072Y-288253236D01*
X257328991Y-288246840D01*
X257309555Y-288236452D01*
X257292524Y-288222476D01*
X257278548Y-288205445D01*
X257268160Y-288186009D01*
X257261764Y-288164928D01*
X257259000Y-288136860D01*
X257259000Y-287673140D01*
X257261764Y-287645072D01*
X257268160Y-287623991D01*
X257278548Y-287604555D01*
X257292524Y-287587524D01*
X257309555Y-287573548D01*
X257328991Y-287563160D01*
X257350072Y-287556764D01*
X257378140Y-287554000D01*
X259191860Y-287554000D01*
X259219928Y-287556764D01*
G37*
G36*
X281151674Y-286527465D02*
G01*
X281189367Y-286538899D01*
X281224103Y-286557466D01*
X281254548Y-286582452D01*
X281279534Y-286612897D01*
X281298101Y-286647633D01*
X281309535Y-286685326D01*
X281314000Y-286730661D01*
X281314000Y-287817339D01*
X281309535Y-287862674D01*
X281298101Y-287900367D01*
X281279534Y-287935103D01*
X281254548Y-287965548D01*
X281224103Y-287990534D01*
X281189367Y-288009101D01*
X281151674Y-288020535D01*
X281106339Y-288025000D01*
X280269661Y-288025000D01*
X280224326Y-288020535D01*
X280186633Y-288009101D01*
X280151897Y-287990534D01*
X280121452Y-287965548D01*
X280096466Y-287935103D01*
X280077899Y-287900367D01*
X280066465Y-287862674D01*
X280062000Y-287817339D01*
X280062000Y-286730661D01*
X280066465Y-286685326D01*
X280077899Y-286647633D01*
X280096466Y-286612897D01*
X280121452Y-286582452D01*
X280151897Y-286557466D01*
X280186633Y-286538899D01*
X280224326Y-286527465D01*
X280269661Y-286523000D01*
X281106339Y-286523000D01*
X281151674Y-286527465D01*
G37*
G36*
X279101674Y-286527465D02*
G01*
X279139367Y-286538899D01*
X279174103Y-286557466D01*
X279204548Y-286582452D01*
X279229534Y-286612897D01*
X279248101Y-286647633D01*
X279259535Y-286685326D01*
X279264000Y-286730661D01*
X279264000Y-287817339D01*
X279259535Y-287862674D01*
X279248101Y-287900367D01*
X279229534Y-287935103D01*
X279204548Y-287965548D01*
X279174103Y-287990534D01*
X279139367Y-288009101D01*
X279101674Y-288020535D01*
X279056339Y-288025000D01*
X278219661Y-288025000D01*
X278174326Y-288020535D01*
X278136633Y-288009101D01*
X278101897Y-287990534D01*
X278071452Y-287965548D01*
X278046466Y-287935103D01*
X278027899Y-287900367D01*
X278016465Y-287862674D01*
X278012000Y-287817339D01*
X278012000Y-286730661D01*
X278016465Y-286685326D01*
X278027899Y-286647633D01*
X278046466Y-286612897D01*
X278071452Y-286582452D01*
X278101897Y-286557466D01*
X278136633Y-286538899D01*
X278174326Y-286527465D01*
X278219661Y-286523000D01*
X279056339Y-286523000D01*
X279101674Y-286527465D01*
G37*
G36*
X263868674Y-286583465D02*
G01*
X263906367Y-286594899D01*
X263941103Y-286613466D01*
X263971548Y-286638452D01*
X263996534Y-286668897D01*
X264015101Y-286703633D01*
X264026535Y-286741326D01*
X264031000Y-286786661D01*
X264031000Y-287623339D01*
X264026535Y-287668674D01*
X264015101Y-287706367D01*
X263996534Y-287741103D01*
X263971548Y-287771548D01*
X263941103Y-287796534D01*
X263906367Y-287815101D01*
X263868674Y-287826535D01*
X263823339Y-287831000D01*
X262736661Y-287831000D01*
X262691326Y-287826535D01*
X262653633Y-287815101D01*
X262618897Y-287796534D01*
X262588452Y-287771548D01*
X262563466Y-287741103D01*
X262544899Y-287706367D01*
X262533465Y-287668674D01*
X262529000Y-287623339D01*
X262529000Y-286786661D01*
X262533465Y-286741326D01*
X262544899Y-286703633D01*
X262563466Y-286668897D01*
X262588452Y-286638452D01*
X262618897Y-286613466D01*
X262653633Y-286594899D01*
X262691326Y-286583465D01*
X262736661Y-286579000D01*
X263823339Y-286579000D01*
X263868674Y-286583465D01*
G37*
G36*
X254269928Y-286286764D02*
G01*
X254291009Y-286293160D01*
X254310445Y-286303548D01*
X254327476Y-286317524D01*
X254341452Y-286334555D01*
X254351840Y-286353991D01*
X254358236Y-286375072D01*
X254361000Y-286403140D01*
X254361000Y-286866860D01*
X254358236Y-286894928D01*
X254351840Y-286916009D01*
X254341452Y-286935445D01*
X254327476Y-286952476D01*
X254310445Y-286966452D01*
X254291009Y-286976840D01*
X254269928Y-286983236D01*
X254241860Y-286986000D01*
X252428140Y-286986000D01*
X252400072Y-286983236D01*
X252378991Y-286976840D01*
X252359555Y-286966452D01*
X252342524Y-286952476D01*
X252328548Y-286935445D01*
X252318160Y-286916009D01*
X252311764Y-286894928D01*
X252309000Y-286866860D01*
X252309000Y-286403140D01*
X252311764Y-286375072D01*
X252318160Y-286353991D01*
X252328548Y-286334555D01*
X252342524Y-286317524D01*
X252359555Y-286303548D01*
X252378991Y-286293160D01*
X252400072Y-286286764D01*
X252428140Y-286284000D01*
X254241860Y-286284000D01*
X254269928Y-286286764D01*
G37*
G36*
X259219928Y-286286764D02*
G01*
X259241009Y-286293160D01*
X259260445Y-286303548D01*
X259277476Y-286317524D01*
X259291452Y-286334555D01*
X259301840Y-286353991D01*
X259308236Y-286375072D01*
X259311000Y-286403140D01*
X259311000Y-286866860D01*
X259308236Y-286894928D01*
X259301840Y-286916009D01*
X259291452Y-286935445D01*
X259277476Y-286952476D01*
X259260445Y-286966452D01*
X259241009Y-286976840D01*
X259219928Y-286983236D01*
X259191860Y-286986000D01*
X257378140Y-286986000D01*
X257350072Y-286983236D01*
X257328991Y-286976840D01*
X257309555Y-286966452D01*
X257292524Y-286952476D01*
X257278548Y-286935445D01*
X257268160Y-286916009D01*
X257261764Y-286894928D01*
X257259000Y-286866860D01*
X257259000Y-286403140D01*
X257261764Y-286375072D01*
X257268160Y-286353991D01*
X257278548Y-286334555D01*
X257292524Y-286317524D01*
X257309555Y-286303548D01*
X257328991Y-286293160D01*
X257350072Y-286286764D01*
X257378140Y-286284000D01*
X259191860Y-286284000D01*
X259219928Y-286286764D01*
G37*
G36*
X299187000Y-286233000D02*
G01*
X297535000Y-286233000D01*
X297535000Y-284831000D01*
X299187000Y-284831000D01*
X299187000Y-286233000D01*
G37*
G36*
X291237000Y-286233000D02*
G01*
X289585000Y-286233000D01*
X289585000Y-284831000D01*
X291237000Y-284831000D01*
X291237000Y-286233000D01*
G37*
G36*
X285714674Y-284495465D02*
G01*
X285752367Y-284506899D01*
X285787103Y-284525466D01*
X285817548Y-284550452D01*
X285842534Y-284580897D01*
X285861101Y-284615633D01*
X285872535Y-284653326D01*
X285877000Y-284698661D01*
X285877000Y-285785339D01*
X285872535Y-285830674D01*
X285861101Y-285868367D01*
X285842534Y-285903103D01*
X285817548Y-285933548D01*
X285787103Y-285958534D01*
X285752367Y-285977101D01*
X285714674Y-285988535D01*
X285669339Y-285993000D01*
X284832661Y-285993000D01*
X284787326Y-285988535D01*
X284749633Y-285977101D01*
X284714897Y-285958534D01*
X284684452Y-285933548D01*
X284659466Y-285903103D01*
X284640899Y-285868367D01*
X284629465Y-285830674D01*
X284625000Y-285785339D01*
X284625000Y-284698661D01*
X284629465Y-284653326D01*
X284640899Y-284615633D01*
X284659466Y-284580897D01*
X284684452Y-284550452D01*
X284714897Y-284525466D01*
X284749633Y-284506899D01*
X284787326Y-284495465D01*
X284832661Y-284491000D01*
X285669339Y-284491000D01*
X285714674Y-284495465D01*
G37*
G36*
X283664674Y-284495465D02*
G01*
X283702367Y-284506899D01*
X283737103Y-284525466D01*
X283767548Y-284550452D01*
X283792534Y-284580897D01*
X283811101Y-284615633D01*
X283822535Y-284653326D01*
X283827000Y-284698661D01*
X283827000Y-285785339D01*
X283822535Y-285830674D01*
X283811101Y-285868367D01*
X283792534Y-285903103D01*
X283767548Y-285933548D01*
X283737103Y-285958534D01*
X283702367Y-285977101D01*
X283664674Y-285988535D01*
X283619339Y-285993000D01*
X282782661Y-285993000D01*
X282737326Y-285988535D01*
X282699633Y-285977101D01*
X282664897Y-285958534D01*
X282634452Y-285933548D01*
X282609466Y-285903103D01*
X282590899Y-285868367D01*
X282579465Y-285830674D01*
X282575000Y-285785339D01*
X282575000Y-284698661D01*
X282579465Y-284653326D01*
X282590899Y-284615633D01*
X282609466Y-284580897D01*
X282634452Y-284550452D01*
X282664897Y-284525466D01*
X282699633Y-284506899D01*
X282737326Y-284495465D01*
X282782661Y-284491000D01*
X283619339Y-284491000D01*
X283664674Y-284495465D01*
G37*
G36*
X263868674Y-284533465D02*
G01*
X263906367Y-284544899D01*
X263941103Y-284563466D01*
X263971548Y-284588452D01*
X263996534Y-284618897D01*
X264015101Y-284653633D01*
X264026535Y-284691326D01*
X264031000Y-284736661D01*
X264031000Y-285573339D01*
X264026535Y-285618674D01*
X264015101Y-285656367D01*
X263996534Y-285691103D01*
X263971548Y-285721548D01*
X263941103Y-285746534D01*
X263906367Y-285765101D01*
X263868674Y-285776535D01*
X263823339Y-285781000D01*
X262736661Y-285781000D01*
X262691326Y-285776535D01*
X262653633Y-285765101D01*
X262618897Y-285746534D01*
X262588452Y-285721548D01*
X262563466Y-285691103D01*
X262544899Y-285656367D01*
X262533465Y-285618674D01*
X262529000Y-285573339D01*
X262529000Y-284736661D01*
X262533465Y-284691326D01*
X262544899Y-284653633D01*
X262563466Y-284618897D01*
X262588452Y-284588452D01*
X262618897Y-284563466D01*
X262653633Y-284544899D01*
X262691326Y-284533465D01*
X262736661Y-284529000D01*
X263823339Y-284529000D01*
X263868674Y-284533465D01*
G37*
G36*
X259219928Y-285016764D02*
G01*
X259241009Y-285023160D01*
X259260445Y-285033548D01*
X259277476Y-285047524D01*
X259291452Y-285064555D01*
X259301840Y-285083991D01*
X259308236Y-285105072D01*
X259311000Y-285133140D01*
X259311000Y-285596860D01*
X259308236Y-285624928D01*
X259301840Y-285646009D01*
X259291452Y-285665445D01*
X259277476Y-285682476D01*
X259260445Y-285696452D01*
X259241009Y-285706840D01*
X259219928Y-285713236D01*
X259191860Y-285716000D01*
X257378140Y-285716000D01*
X257350072Y-285713236D01*
X257328991Y-285706840D01*
X257309555Y-285696452D01*
X257292524Y-285682476D01*
X257278548Y-285665445D01*
X257268160Y-285646009D01*
X257261764Y-285624928D01*
X257259000Y-285596860D01*
X257259000Y-285133140D01*
X257261764Y-285105072D01*
X257268160Y-285083991D01*
X257278548Y-285064555D01*
X257292524Y-285047524D01*
X257309555Y-285033548D01*
X257328991Y-285023160D01*
X257350072Y-285016764D01*
X257378140Y-285014000D01*
X259191860Y-285014000D01*
X259219928Y-285016764D01*
G37*
G36*
X254269928Y-285016764D02*
G01*
X254291009Y-285023160D01*
X254310445Y-285033548D01*
X254327476Y-285047524D01*
X254341452Y-285064555D01*
X254351840Y-285083991D01*
X254358236Y-285105072D01*
X254361000Y-285133140D01*
X254361000Y-285596860D01*
X254358236Y-285624928D01*
X254351840Y-285646009D01*
X254341452Y-285665445D01*
X254327476Y-285682476D01*
X254310445Y-285696452D01*
X254291009Y-285706840D01*
X254269928Y-285713236D01*
X254241860Y-285716000D01*
X252428140Y-285716000D01*
X252400072Y-285713236D01*
X252378991Y-285706840D01*
X252359555Y-285696452D01*
X252342524Y-285682476D01*
X252328548Y-285665445D01*
X252318160Y-285646009D01*
X252311764Y-285624928D01*
X252309000Y-285596860D01*
X252309000Y-285133140D01*
X252311764Y-285105072D01*
X252318160Y-285083991D01*
X252328548Y-285064555D01*
X252342524Y-285047524D01*
X252359555Y-285033548D01*
X252378991Y-285023160D01*
X252400072Y-285016764D01*
X252428140Y-285014000D01*
X254241860Y-285014000D01*
X254269928Y-285016764D01*
G37*
G36*
X259219928Y-283746764D02*
G01*
X259241009Y-283753160D01*
X259260445Y-283763548D01*
X259277476Y-283777524D01*
X259291452Y-283794555D01*
X259301840Y-283813991D01*
X259308236Y-283835072D01*
X259311000Y-283863140D01*
X259311000Y-284326860D01*
X259308236Y-284354928D01*
X259301840Y-284376009D01*
X259291452Y-284395445D01*
X259277476Y-284412476D01*
X259260445Y-284426452D01*
X259241009Y-284436840D01*
X259219928Y-284443236D01*
X259191860Y-284446000D01*
X257378140Y-284446000D01*
X257350072Y-284443236D01*
X257328991Y-284436840D01*
X257309555Y-284426452D01*
X257292524Y-284412476D01*
X257278548Y-284395445D01*
X257268160Y-284376009D01*
X257261764Y-284354928D01*
X257259000Y-284326860D01*
X257259000Y-283863140D01*
X257261764Y-283835072D01*
X257268160Y-283813991D01*
X257278548Y-283794555D01*
X257292524Y-283777524D01*
X257309555Y-283763548D01*
X257328991Y-283753160D01*
X257350072Y-283746764D01*
X257378140Y-283744000D01*
X259191860Y-283744000D01*
X259219928Y-283746764D01*
G37*
G36*
X254269928Y-283746764D02*
G01*
X254291009Y-283753160D01*
X254310445Y-283763548D01*
X254327476Y-283777524D01*
X254341452Y-283794555D01*
X254351840Y-283813991D01*
X254358236Y-283835072D01*
X254361000Y-283863140D01*
X254361000Y-284326860D01*
X254358236Y-284354928D01*
X254351840Y-284376009D01*
X254341452Y-284395445D01*
X254327476Y-284412476D01*
X254310445Y-284426452D01*
X254291009Y-284436840D01*
X254269928Y-284443236D01*
X254241860Y-284446000D01*
X252428140Y-284446000D01*
X252400072Y-284443236D01*
X252378991Y-284436840D01*
X252359555Y-284426452D01*
X252342524Y-284412476D01*
X252328548Y-284395445D01*
X252318160Y-284376009D01*
X252311764Y-284354928D01*
X252309000Y-284326860D01*
X252309000Y-283863140D01*
X252311764Y-283835072D01*
X252318160Y-283813991D01*
X252328548Y-283794555D01*
X252342524Y-283777524D01*
X252359555Y-283763548D01*
X252378991Y-283753160D01*
X252400072Y-283746764D01*
X252428140Y-283744000D01*
X254241860Y-283744000D01*
X254269928Y-283746764D01*
G37*
G36*
X279783000Y-284253000D02*
G01*
X270381000Y-284253000D01*
X270381000Y-283351000D01*
X279783000Y-283351000D01*
X279783000Y-284253000D01*
G37*
G36*
X279783000Y-282453000D02*
G01*
X270381000Y-282453000D01*
X270381000Y-281551000D01*
X279783000Y-281551000D01*
X279783000Y-282453000D01*
G37*
G36*
X298026855Y-281038140D02*
G01*
X298090618Y-281044420D01*
X298181404Y-281071960D01*
X298213336Y-281081646D01*
X298326425Y-281142094D01*
X298425554Y-281223446D01*
X298506906Y-281322575D01*
X298567354Y-281435664D01*
X298567355Y-281435668D01*
X298604580Y-281558382D01*
X298617149Y-281686000D01*
X298604580Y-281813618D01*
X298577040Y-281904404D01*
X298567354Y-281936336D01*
X298506906Y-282049425D01*
X298425554Y-282148554D01*
X298326425Y-282229906D01*
X298213336Y-282290354D01*
X298181404Y-282300040D01*
X298090618Y-282327580D01*
X298026855Y-282333860D01*
X297994974Y-282337000D01*
X297381026Y-282337000D01*
X297349145Y-282333860D01*
X297285382Y-282327580D01*
X297194596Y-282300040D01*
X297162664Y-282290354D01*
X297049575Y-282229906D01*
X296950446Y-282148554D01*
X296869094Y-282049425D01*
X296808646Y-281936336D01*
X296798960Y-281904404D01*
X296771420Y-281813618D01*
X296758851Y-281686000D01*
X296771420Y-281558382D01*
X296808645Y-281435668D01*
X296808646Y-281435664D01*
X296869094Y-281322575D01*
X296950446Y-281223446D01*
X297049575Y-281142094D01*
X297162664Y-281081646D01*
X297194596Y-281071960D01*
X297285382Y-281044420D01*
X297349145Y-281038140D01*
X297381026Y-281035000D01*
X297994974Y-281035000D01*
X298026855Y-281038140D01*
G37*
G36*
X264115674Y-280685465D02*
G01*
X264153367Y-280696899D01*
X264188103Y-280715466D01*
X264218548Y-280740452D01*
X264243534Y-280770897D01*
X264262101Y-280805633D01*
X264273535Y-280843326D01*
X264278000Y-280888661D01*
X264278000Y-281975339D01*
X264273535Y-282020674D01*
X264262101Y-282058367D01*
X264243534Y-282093103D01*
X264218548Y-282123548D01*
X264188103Y-282148534D01*
X264153367Y-282167101D01*
X264115674Y-282178535D01*
X264070339Y-282183000D01*
X263233661Y-282183000D01*
X263188326Y-282178535D01*
X263150633Y-282167101D01*
X263115897Y-282148534D01*
X263085452Y-282123548D01*
X263060466Y-282093103D01*
X263041899Y-282058367D01*
X263030465Y-282020674D01*
X263026000Y-281975339D01*
X263026000Y-280888661D01*
X263030465Y-280843326D01*
X263041899Y-280805633D01*
X263060466Y-280770897D01*
X263085452Y-280740452D01*
X263115897Y-280715466D01*
X263150633Y-280696899D01*
X263188326Y-280685465D01*
X263233661Y-280681000D01*
X264070339Y-280681000D01*
X264115674Y-280685465D01*
G37*
G36*
X266165674Y-280685465D02*
G01*
X266203367Y-280696899D01*
X266238103Y-280715466D01*
X266268548Y-280740452D01*
X266293534Y-280770897D01*
X266312101Y-280805633D01*
X266323535Y-280843326D01*
X266328000Y-280888661D01*
X266328000Y-281975339D01*
X266323535Y-282020674D01*
X266312101Y-282058367D01*
X266293534Y-282093103D01*
X266268548Y-282123548D01*
X266238103Y-282148534D01*
X266203367Y-282167101D01*
X266165674Y-282178535D01*
X266120339Y-282183000D01*
X265283661Y-282183000D01*
X265238326Y-282178535D01*
X265200633Y-282167101D01*
X265165897Y-282148534D01*
X265135452Y-282123548D01*
X265110466Y-282093103D01*
X265091899Y-282058367D01*
X265080465Y-282020674D01*
X265076000Y-281975339D01*
X265076000Y-280888661D01*
X265080465Y-280843326D01*
X265091899Y-280805633D01*
X265110466Y-280770897D01*
X265135452Y-280740452D01*
X265165897Y-280715466D01*
X265200633Y-280696899D01*
X265238326Y-280685465D01*
X265283661Y-280681000D01*
X266120339Y-280681000D01*
X266165674Y-280685465D01*
G37*
G36*
X268543000Y-274729257D02*
G01*
X268542515Y-274730164D01*
X268535402Y-274753613D01*
X268533000Y-274777999D01*
X268533000Y-281053000D01*
X267631000Y-281053000D01*
X267631000Y-274774743D01*
X267631485Y-274773836D01*
X267638598Y-274750387D01*
X267641000Y-274726001D01*
X267641000Y-271651000D01*
X268543000Y-271651000D01*
X268543000Y-274729257D01*
G37*
G36*
X282533000Y-281053000D02*
G01*
X281631000Y-281053000D01*
X281631000Y-271651000D01*
X282533000Y-271651000D01*
X282533000Y-281053000D01*
G37*
G36*
X270333000Y-281053000D02*
G01*
X269431000Y-281053000D01*
X269431000Y-271651000D01*
X270333000Y-271651000D01*
X270333000Y-281053000D01*
G37*
G36*
X280733000Y-281053000D02*
G01*
X279831000Y-281053000D01*
X279831000Y-271651000D01*
X280733000Y-271651000D01*
X280733000Y-281053000D01*
G37*
G36*
X298026855Y-279038140D02*
G01*
X298090618Y-279044420D01*
X298181404Y-279071960D01*
X298213336Y-279081646D01*
X298326425Y-279142094D01*
X298425554Y-279223446D01*
X298506906Y-279322575D01*
X298567354Y-279435664D01*
X298567355Y-279435668D01*
X298604580Y-279558382D01*
X298617149Y-279686000D01*
X298604580Y-279813618D01*
X298577040Y-279904404D01*
X298567354Y-279936336D01*
X298506906Y-280049425D01*
X298425554Y-280148554D01*
X298326425Y-280229906D01*
X298213336Y-280290354D01*
X298181404Y-280300040D01*
X298090618Y-280327580D01*
X298026855Y-280333860D01*
X297994974Y-280337000D01*
X297381026Y-280337000D01*
X297349145Y-280333860D01*
X297285382Y-280327580D01*
X297194596Y-280300040D01*
X297162664Y-280290354D01*
X297049575Y-280229906D01*
X296950446Y-280148554D01*
X296869094Y-280049425D01*
X296808646Y-279936336D01*
X296798960Y-279904404D01*
X296771420Y-279813618D01*
X296758851Y-279686000D01*
X296771420Y-279558382D01*
X296808645Y-279435668D01*
X296808646Y-279435664D01*
X296869094Y-279322575D01*
X296950446Y-279223446D01*
X297049575Y-279142094D01*
X297162664Y-279081646D01*
X297194596Y-279071960D01*
X297285382Y-279044420D01*
X297349145Y-279038140D01*
X297381026Y-279035000D01*
X297994974Y-279035000D01*
X298026855Y-279038140D01*
G37*
G36*
X278433000Y-279703000D02*
G01*
X276731000Y-279703000D01*
X276731000Y-278001000D01*
X278433000Y-278001000D01*
X278433000Y-279703000D01*
G37*
G36*
X273433000Y-279703000D02*
G01*
X271731000Y-279703000D01*
X271731000Y-278001000D01*
X273433000Y-278001000D01*
X273433000Y-279703000D01*
G37*
G36*
X275933000Y-279703000D02*
G01*
X274231000Y-279703000D01*
X274231000Y-278001000D01*
X275933000Y-278001000D01*
X275933000Y-279703000D01*
G37*
G36*
X293647000Y-278573000D02*
G01*
X290045000Y-278573000D01*
X290045000Y-276671000D01*
X293647000Y-276671000D01*
X293647000Y-278573000D01*
G37*
G36*
X288647000Y-278573000D02*
G01*
X285045000Y-278573000D01*
X285045000Y-276671000D01*
X288647000Y-276671000D01*
X288647000Y-278573000D01*
G37*
G36*
X298454242Y-277039404D02*
G01*
X298491337Y-277050657D01*
X298525515Y-277068925D01*
X298555481Y-277093519D01*
X298580075Y-277123485D01*
X298598343Y-277157663D01*
X298609596Y-277194758D01*
X298614000Y-277239474D01*
X298614000Y-278132526D01*
X298609596Y-278177242D01*
X298598343Y-278214337D01*
X298580075Y-278248515D01*
X298555481Y-278278481D01*
X298525515Y-278303075D01*
X298491337Y-278321343D01*
X298454242Y-278332596D01*
X298409526Y-278337000D01*
X296966474Y-278337000D01*
X296921758Y-278332596D01*
X296884663Y-278321343D01*
X296850485Y-278303075D01*
X296820519Y-278278481D01*
X296795925Y-278248515D01*
X296777657Y-278214337D01*
X296766404Y-278177242D01*
X296762000Y-278132526D01*
X296762000Y-277239474D01*
X296766404Y-277194758D01*
X296777657Y-277157663D01*
X296795925Y-277123485D01*
X296820519Y-277093519D01*
X296850485Y-277068925D01*
X296884663Y-277050657D01*
X296921758Y-277039404D01*
X296966474Y-277035000D01*
X298409526Y-277035000D01*
X298454242Y-277039404D01*
G37*
G36*
X275933000Y-277203000D02*
G01*
X274231000Y-277203000D01*
X274231000Y-275501000D01*
X275933000Y-275501000D01*
X275933000Y-277203000D01*
G37*
G36*
X278433000Y-277203000D02*
G01*
X276731000Y-277203000D01*
X276731000Y-275501000D01*
X278433000Y-275501000D01*
X278433000Y-277203000D01*
G37*
G36*
X273433000Y-277203000D02*
G01*
X271731000Y-277203000D01*
X271731000Y-275501000D01*
X273433000Y-275501000D01*
X273433000Y-277203000D01*
G37*
G36*
X284306674Y-274968465D02*
G01*
X284344367Y-274979899D01*
X284379103Y-274998466D01*
X284409548Y-275023452D01*
X284434534Y-275053897D01*
X284453101Y-275088633D01*
X284464535Y-275126326D01*
X284469000Y-275171661D01*
X284469000Y-276008339D01*
X284464535Y-276053674D01*
X284453101Y-276091367D01*
X284434534Y-276126103D01*
X284409548Y-276156548D01*
X284379103Y-276181534D01*
X284344367Y-276200101D01*
X284306674Y-276211535D01*
X284261339Y-276216000D01*
X283174661Y-276216000D01*
X283129326Y-276211535D01*
X283091633Y-276200101D01*
X283056897Y-276181534D01*
X283026452Y-276156548D01*
X283001466Y-276126103D01*
X282982899Y-276091367D01*
X282971465Y-276053674D01*
X282967000Y-276008339D01*
X282967000Y-275171661D01*
X282971465Y-275126326D01*
X282982899Y-275088633D01*
X283001466Y-275053897D01*
X283026452Y-275023452D01*
X283056897Y-274998466D01*
X283091633Y-274979899D01*
X283129326Y-274968465D01*
X283174661Y-274964000D01*
X284261339Y-274964000D01*
X284306674Y-274968465D01*
G37*
G36*
X253321000Y-275261000D02*
G01*
X251519000Y-275261000D01*
X251519000Y-273459000D01*
X253321000Y-273459000D01*
X253321000Y-275261000D01*
G37*
G36*
X278433000Y-274703000D02*
G01*
X276731000Y-274703000D01*
X276731000Y-273001000D01*
X278433000Y-273001000D01*
X278433000Y-274703000D01*
G37*
G36*
X275933000Y-274703000D02*
G01*
X274231000Y-274703000D01*
X274231000Y-273001000D01*
X275933000Y-273001000D01*
X275933000Y-274703000D01*
G37*
G36*
X273433000Y-274703000D02*
G01*
X271731000Y-274703000D01*
X271731000Y-273001000D01*
X273433000Y-273001000D01*
X273433000Y-274703000D01*
G37*
G36*
X284306674Y-272918465D02*
G01*
X284344367Y-272929899D01*
X284379103Y-272948466D01*
X284409548Y-272973452D01*
X284434534Y-273003897D01*
X284453101Y-273038633D01*
X284464535Y-273076326D01*
X284469000Y-273121661D01*
X284469000Y-273958339D01*
X284464535Y-274003674D01*
X284453101Y-274041367D01*
X284434534Y-274076103D01*
X284409548Y-274106548D01*
X284379103Y-274131534D01*
X284344367Y-274150101D01*
X284306674Y-274161535D01*
X284261339Y-274166000D01*
X283174661Y-274166000D01*
X283129326Y-274161535D01*
X283091633Y-274150101D01*
X283056897Y-274131534D01*
X283026452Y-274106548D01*
X283001466Y-274076103D01*
X282982899Y-274041367D01*
X282971465Y-274003674D01*
X282967000Y-273958339D01*
X282967000Y-273121661D01*
X282971465Y-273076326D01*
X282982899Y-273038633D01*
X283001466Y-273003897D01*
X283026452Y-272973452D01*
X283056897Y-272948466D01*
X283091633Y-272929899D01*
X283129326Y-272918465D01*
X283174661Y-272914000D01*
X284261339Y-272914000D01*
X284306674Y-272918465D01*
G37*
G36*
X252533512Y-270923927D02*
G01*
X252682812Y-270953624D01*
X252846784Y-271021544D01*
X252994354Y-271120147D01*
X253119853Y-271245646D01*
X253218456Y-271393216D01*
X253286376Y-271557188D01*
X253321000Y-271731259D01*
X253321000Y-271908741D01*
X253286376Y-272082812D01*
X253218456Y-272246784D01*
X253119853Y-272394354D01*
X252994354Y-272519853D01*
X252846784Y-272618456D01*
X252682812Y-272686376D01*
X252533512Y-272716073D01*
X252508742Y-272721000D01*
X252331258Y-272721000D01*
X252306488Y-272716073D01*
X252157188Y-272686376D01*
X251993216Y-272618456D01*
X251845646Y-272519853D01*
X251720147Y-272394354D01*
X251621544Y-272246784D01*
X251553624Y-272082812D01*
X251519000Y-271908741D01*
X251519000Y-271731259D01*
X251553624Y-271557188D01*
X251621544Y-271393216D01*
X251720147Y-271245646D01*
X251845646Y-271120147D01*
X251993216Y-271021544D01*
X252157188Y-270953624D01*
X252306488Y-270923927D01*
X252331258Y-270919000D01*
X252508742Y-270919000D01*
X252533512Y-270923927D01*
G37*
G36*
X294003997Y-269663051D02*
G01*
X294037652Y-269673261D01*
X294068665Y-269689838D01*
X294095851Y-269712149D01*
X294118162Y-269739335D01*
X294134739Y-269770348D01*
X294144949Y-269804003D01*
X294149000Y-269845138D01*
X294149000Y-271174862D01*
X294144949Y-271215997D01*
X294134739Y-271249652D01*
X294118162Y-271280665D01*
X294095851Y-271307851D01*
X294068665Y-271330162D01*
X294037652Y-271346739D01*
X294003997Y-271356949D01*
X293962862Y-271361000D01*
X290733138Y-271361000D01*
X290692003Y-271356949D01*
X290658348Y-271346739D01*
X290627335Y-271330162D01*
X290600149Y-271307851D01*
X290577838Y-271280665D01*
X290561261Y-271249652D01*
X290551051Y-271215997D01*
X290547000Y-271174862D01*
X290547000Y-269845138D01*
X290551051Y-269804003D01*
X290561261Y-269770348D01*
X290577838Y-269739335D01*
X290600149Y-269712149D01*
X290627335Y-269689838D01*
X290658348Y-269673261D01*
X290692003Y-269663051D01*
X290733138Y-269659000D01*
X293962862Y-269659000D01*
X294003997Y-269663051D01*
G37*
G36*
X299603997Y-269663051D02*
G01*
X299637652Y-269673261D01*
X299668665Y-269689838D01*
X299695851Y-269712149D01*
X299718162Y-269739335D01*
X299734739Y-269770348D01*
X299744949Y-269804003D01*
X299749000Y-269845138D01*
X299749000Y-271174862D01*
X299744949Y-271215997D01*
X299734739Y-271249652D01*
X299718162Y-271280665D01*
X299695851Y-271307851D01*
X299668665Y-271330162D01*
X299637652Y-271346739D01*
X299603997Y-271356949D01*
X299562862Y-271361000D01*
X296333138Y-271361000D01*
X296292003Y-271356949D01*
X296258348Y-271346739D01*
X296227335Y-271330162D01*
X296200149Y-271307851D01*
X296177838Y-271280665D01*
X296161261Y-271249652D01*
X296151051Y-271215997D01*
X296147000Y-271174862D01*
X296147000Y-269845138D01*
X296151051Y-269804003D01*
X296161261Y-269770348D01*
X296177838Y-269739335D01*
X296200149Y-269712149D01*
X296227335Y-269689838D01*
X296258348Y-269673261D01*
X296292003Y-269663051D01*
X296333138Y-269659000D01*
X299562862Y-269659000D01*
X299603997Y-269663051D01*
G37*
G36*
X279783000Y-271153000D02*
G01*
X270381000Y-271153000D01*
X270381000Y-270251000D01*
X279783000Y-270251000D01*
X279783000Y-271153000D01*
G37*
G36*
X252533512Y-268383927D02*
G01*
X252682812Y-268413624D01*
X252846784Y-268481544D01*
X252994354Y-268580147D01*
X253119853Y-268705646D01*
X253218456Y-268853216D01*
X253286376Y-269017188D01*
X253321000Y-269191259D01*
X253321000Y-269368741D01*
X253286376Y-269542812D01*
X253218456Y-269706784D01*
X253119853Y-269854354D01*
X252994354Y-269979853D01*
X252846784Y-270078456D01*
X252682812Y-270146376D01*
X252533512Y-270176073D01*
X252508742Y-270181000D01*
X252331258Y-270181000D01*
X252306488Y-270176073D01*
X252157188Y-270146376D01*
X251993216Y-270078456D01*
X251845646Y-269979853D01*
X251720147Y-269854354D01*
X251621544Y-269706784D01*
X251553624Y-269542812D01*
X251519000Y-269368741D01*
X251519000Y-269191259D01*
X251553624Y-269017188D01*
X251621544Y-268853216D01*
X251720147Y-268705646D01*
X251845646Y-268580147D01*
X251993216Y-268481544D01*
X252157188Y-268413624D01*
X252306488Y-268383927D01*
X252331258Y-268379000D01*
X252508742Y-268379000D01*
X252533512Y-268383927D01*
G37*
G36*
X279783000Y-269353000D02*
G01*
X270381000Y-269353000D01*
X270381000Y-268451000D01*
X279783000Y-268451000D01*
X279783000Y-269353000D01*
G37*
G36*
X277831674Y-266207465D02*
G01*
X277869367Y-266218899D01*
X277904103Y-266237466D01*
X277934548Y-266262452D01*
X277959534Y-266292897D01*
X277978101Y-266327633D01*
X277989535Y-266365326D01*
X277994000Y-266410661D01*
X277994000Y-267497339D01*
X277989535Y-267542674D01*
X277978101Y-267580367D01*
X277959534Y-267615103D01*
X277934548Y-267645548D01*
X277904103Y-267670534D01*
X277869367Y-267689101D01*
X277831674Y-267700535D01*
X277786339Y-267705000D01*
X276949661Y-267705000D01*
X276904326Y-267700535D01*
X276866633Y-267689101D01*
X276831897Y-267670534D01*
X276801452Y-267645548D01*
X276776466Y-267615103D01*
X276757899Y-267580367D01*
X276746465Y-267542674D01*
X276742000Y-267497339D01*
X276742000Y-266410661D01*
X276746465Y-266365326D01*
X276757899Y-266327633D01*
X276776466Y-266292897D01*
X276801452Y-266262452D01*
X276831897Y-266237466D01*
X276866633Y-266218899D01*
X276904326Y-266207465D01*
X276949661Y-266203000D01*
X277786339Y-266203000D01*
X277831674Y-266207465D01*
G37*
G36*
X275817674Y-266207465D02*
G01*
X275855367Y-266218899D01*
X275890103Y-266237466D01*
X275920548Y-266262452D01*
X275945534Y-266292897D01*
X275964101Y-266327633D01*
X275975535Y-266365326D01*
X275980000Y-266410661D01*
X275980000Y-267497339D01*
X275975535Y-267542674D01*
X275964101Y-267580367D01*
X275945534Y-267615103D01*
X275920548Y-267645548D01*
X275890103Y-267670534D01*
X275855367Y-267689101D01*
X275817674Y-267700535D01*
X275772339Y-267705000D01*
X274935661Y-267705000D01*
X274890326Y-267700535D01*
X274852633Y-267689101D01*
X274817897Y-267670534D01*
X274787452Y-267645548D01*
X274762466Y-267615103D01*
X274743899Y-267580367D01*
X274732465Y-267542674D01*
X274728000Y-267497339D01*
X274728000Y-266410661D01*
X274732465Y-266365326D01*
X274743899Y-266327633D01*
X274762466Y-266292897D01*
X274787452Y-266262452D01*
X274817897Y-266237466D01*
X274852633Y-266218899D01*
X274890326Y-266207465D01*
X274935661Y-266203000D01*
X275772339Y-266203000D01*
X275817674Y-266207465D01*
G37*
G36*
X273767674Y-266207465D02*
G01*
X273805367Y-266218899D01*
X273840103Y-266237466D01*
X273870548Y-266262452D01*
X273895534Y-266292897D01*
X273914101Y-266327633D01*
X273925535Y-266365326D01*
X273930000Y-266410661D01*
X273930000Y-267497339D01*
X273925535Y-267542674D01*
X273914101Y-267580367D01*
X273895534Y-267615103D01*
X273870548Y-267645548D01*
X273840103Y-267670534D01*
X273805367Y-267689101D01*
X273767674Y-267700535D01*
X273722339Y-267705000D01*
X272885661Y-267705000D01*
X272840326Y-267700535D01*
X272802633Y-267689101D01*
X272767897Y-267670534D01*
X272737452Y-267645548D01*
X272712466Y-267615103D01*
X272693899Y-267580367D01*
X272682465Y-267542674D01*
X272678000Y-267497339D01*
X272678000Y-266410661D01*
X272682465Y-266365326D01*
X272693899Y-266327633D01*
X272712466Y-266292897D01*
X272737452Y-266262452D01*
X272767897Y-266237466D01*
X272802633Y-266218899D01*
X272840326Y-266207465D01*
X272885661Y-266203000D01*
X273722339Y-266203000D01*
X273767674Y-266207465D01*
G37*
G36*
X279881674Y-266207465D02*
G01*
X279919367Y-266218899D01*
X279954103Y-266237466D01*
X279984548Y-266262452D01*
X280009534Y-266292897D01*
X280028101Y-266327633D01*
X280039535Y-266365326D01*
X280044000Y-266410661D01*
X280044000Y-267497339D01*
X280039535Y-267542674D01*
X280028101Y-267580367D01*
X280009534Y-267615103D01*
X279984548Y-267645548D01*
X279954103Y-267670534D01*
X279919367Y-267689101D01*
X279881674Y-267700535D01*
X279836339Y-267705000D01*
X278999661Y-267705000D01*
X278954326Y-267700535D01*
X278916633Y-267689101D01*
X278881897Y-267670534D01*
X278851452Y-267645548D01*
X278826466Y-267615103D01*
X278807899Y-267580367D01*
X278796465Y-267542674D01*
X278792000Y-267497339D01*
X278792000Y-266410661D01*
X278796465Y-266365326D01*
X278807899Y-266327633D01*
X278826466Y-266292897D01*
X278851452Y-266262452D01*
X278881897Y-266237466D01*
X278916633Y-266218899D01*
X278954326Y-266207465D01*
X278999661Y-266203000D01*
X279836339Y-266203000D01*
X279881674Y-266207465D01*
G37*
G36*
X252533512Y-265843927D02*
G01*
X252682812Y-265873624D01*
X252846784Y-265941544D01*
X252994354Y-266040147D01*
X253119853Y-266165646D01*
X253218456Y-266313216D01*
X253286376Y-266477188D01*
X253321000Y-266651259D01*
X253321000Y-266828741D01*
X253286376Y-267002812D01*
X253218456Y-267166784D01*
X253119853Y-267314354D01*
X252994354Y-267439853D01*
X252846784Y-267538456D01*
X252682812Y-267606376D01*
X252533512Y-267636073D01*
X252508742Y-267641000D01*
X252331258Y-267641000D01*
X252306488Y-267636073D01*
X252157188Y-267606376D01*
X251993216Y-267538456D01*
X251845646Y-267439853D01*
X251720147Y-267314354D01*
X251621544Y-267166784D01*
X251553624Y-267002812D01*
X251519000Y-266828741D01*
X251519000Y-266651259D01*
X251553624Y-266477188D01*
X251621544Y-266313216D01*
X251720147Y-266165646D01*
X251845646Y-266040147D01*
X251993216Y-265941544D01*
X252157188Y-265873624D01*
X252306488Y-265843927D01*
X252331258Y-265839000D01*
X252508742Y-265839000D01*
X252533512Y-265843927D01*
G37*
G36*
X277577674Y-263921465D02*
G01*
X277615367Y-263932899D01*
X277650103Y-263951466D01*
X277680548Y-263976452D01*
X277705534Y-264006897D01*
X277724101Y-264041633D01*
X277735535Y-264079326D01*
X277740000Y-264124661D01*
X277740000Y-265211339D01*
X277735535Y-265256674D01*
X277724101Y-265294367D01*
X277705534Y-265329103D01*
X277680548Y-265359548D01*
X277650103Y-265384534D01*
X277615367Y-265403101D01*
X277577674Y-265414535D01*
X277532339Y-265419000D01*
X276695661Y-265419000D01*
X276650326Y-265414535D01*
X276612633Y-265403101D01*
X276577897Y-265384534D01*
X276547452Y-265359548D01*
X276522466Y-265329103D01*
X276503899Y-265294367D01*
X276492465Y-265256674D01*
X276488000Y-265211339D01*
X276488000Y-264124661D01*
X276492465Y-264079326D01*
X276503899Y-264041633D01*
X276522466Y-264006897D01*
X276547452Y-263976452D01*
X276577897Y-263951466D01*
X276612633Y-263932899D01*
X276650326Y-263921465D01*
X276695661Y-263917000D01*
X277532339Y-263917000D01*
X277577674Y-263921465D01*
G37*
G36*
X279627674Y-263921465D02*
G01*
X279665367Y-263932899D01*
X279700103Y-263951466D01*
X279730548Y-263976452D01*
X279755534Y-264006897D01*
X279774101Y-264041633D01*
X279785535Y-264079326D01*
X279790000Y-264124661D01*
X279790000Y-265211339D01*
X279785535Y-265256674D01*
X279774101Y-265294367D01*
X279755534Y-265329103D01*
X279730548Y-265359548D01*
X279700103Y-265384534D01*
X279665367Y-265403101D01*
X279627674Y-265414535D01*
X279582339Y-265419000D01*
X278745661Y-265419000D01*
X278700326Y-265414535D01*
X278662633Y-265403101D01*
X278627897Y-265384534D01*
X278597452Y-265359548D01*
X278572466Y-265329103D01*
X278553899Y-265294367D01*
X278542465Y-265256674D01*
X278538000Y-265211339D01*
X278538000Y-264124661D01*
X278542465Y-264079326D01*
X278553899Y-264041633D01*
X278572466Y-264006897D01*
X278597452Y-263976452D01*
X278627897Y-263951466D01*
X278662633Y-263932899D01*
X278700326Y-263921465D01*
X278745661Y-263917000D01*
X279582339Y-263917000D01*
X279627674Y-263921465D01*
G37*
G36*
X273749674Y-263667465D02*
G01*
X273787367Y-263678899D01*
X273822103Y-263697466D01*
X273852548Y-263722452D01*
X273877534Y-263752897D01*
X273896101Y-263787633D01*
X273907535Y-263825326D01*
X273912000Y-263870661D01*
X273912000Y-264957339D01*
X273907535Y-265002674D01*
X273896101Y-265040367D01*
X273877534Y-265075103D01*
X273852548Y-265105548D01*
X273822103Y-265130534D01*
X273787367Y-265149101D01*
X273749674Y-265160535D01*
X273704339Y-265165000D01*
X272867661Y-265165000D01*
X272822326Y-265160535D01*
X272784633Y-265149101D01*
X272749897Y-265130534D01*
X272719452Y-265105548D01*
X272694466Y-265075103D01*
X272675899Y-265040367D01*
X272664465Y-265002674D01*
X272660000Y-264957339D01*
X272660000Y-263870661D01*
X272664465Y-263825326D01*
X272675899Y-263787633D01*
X272694466Y-263752897D01*
X272719452Y-263722452D01*
X272749897Y-263697466D01*
X272784633Y-263678899D01*
X272822326Y-263667465D01*
X272867661Y-263663000D01*
X273704339Y-263663000D01*
X273749674Y-263667465D01*
G37*
G36*
X275799674Y-263667465D02*
G01*
X275837367Y-263678899D01*
X275872103Y-263697466D01*
X275902548Y-263722452D01*
X275927534Y-263752897D01*
X275946101Y-263787633D01*
X275957535Y-263825326D01*
X275962000Y-263870661D01*
X275962000Y-264957339D01*
X275957535Y-265002674D01*
X275946101Y-265040367D01*
X275927534Y-265075103D01*
X275902548Y-265105548D01*
X275872103Y-265130534D01*
X275837367Y-265149101D01*
X275799674Y-265160535D01*
X275754339Y-265165000D01*
X274917661Y-265165000D01*
X274872326Y-265160535D01*
X274834633Y-265149101D01*
X274799897Y-265130534D01*
X274769452Y-265105548D01*
X274744466Y-265075103D01*
X274725899Y-265040367D01*
X274714465Y-265002674D01*
X274710000Y-264957339D01*
X274710000Y-263870661D01*
X274714465Y-263825326D01*
X274725899Y-263787633D01*
X274744466Y-263752897D01*
X274769452Y-263722452D01*
X274799897Y-263697466D01*
X274834633Y-263678899D01*
X274872326Y-263667465D01*
X274917661Y-263663000D01*
X275754339Y-263663000D01*
X275799674Y-263667465D01*
G37*
G36*
X252533512Y-263303927D02*
G01*
X252682812Y-263333624D01*
X252846784Y-263401544D01*
X252994354Y-263500147D01*
X253119853Y-263625646D01*
X253218456Y-263773216D01*
X253286376Y-263937188D01*
X253321000Y-264111259D01*
X253321000Y-264288741D01*
X253286376Y-264462812D01*
X253218456Y-264626784D01*
X253119853Y-264774354D01*
X252994354Y-264899853D01*
X252846784Y-264998456D01*
X252682812Y-265066376D01*
X252533512Y-265096073D01*
X252508742Y-265101000D01*
X252331258Y-265101000D01*
X252306488Y-265096073D01*
X252157188Y-265066376D01*
X251993216Y-264998456D01*
X251845646Y-264899853D01*
X251720147Y-264774354D01*
X251621544Y-264626784D01*
X251553624Y-264462812D01*
X251519000Y-264288741D01*
X251519000Y-264111259D01*
X251553624Y-263937188D01*
X251621544Y-263773216D01*
X251720147Y-263625646D01*
X251845646Y-263500147D01*
X251993216Y-263401544D01*
X252157188Y-263333624D01*
X252306488Y-263303927D01*
X252331258Y-263299000D01*
X252508742Y-263299000D01*
X252533512Y-263303927D01*
G37*
G36*
X295545997Y-261523051D02*
G01*
X295579652Y-261533261D01*
X295610665Y-261549838D01*
X295637851Y-261572149D01*
X295660162Y-261599335D01*
X295676739Y-261630348D01*
X295686949Y-261664003D01*
X295691000Y-261705138D01*
X295691000Y-263034862D01*
X295686949Y-263075997D01*
X295676739Y-263109652D01*
X295660162Y-263140665D01*
X295637851Y-263167851D01*
X295610665Y-263190162D01*
X295579652Y-263206739D01*
X295545997Y-263216949D01*
X295504862Y-263221000D01*
X292275138Y-263221000D01*
X292234003Y-263216949D01*
X292200348Y-263206739D01*
X292169335Y-263190162D01*
X292142149Y-263167851D01*
X292119838Y-263140665D01*
X292103261Y-263109652D01*
X292093051Y-263075997D01*
X292089000Y-263034862D01*
X292089000Y-261705138D01*
X292093051Y-261664003D01*
X292103261Y-261630348D01*
X292119838Y-261599335D01*
X292142149Y-261572149D01*
X292169335Y-261549838D01*
X292200348Y-261533261D01*
X292234003Y-261523051D01*
X292275138Y-261519000D01*
X295504862Y-261519000D01*
X295545997Y-261523051D01*
G37*
G36*
X289945997Y-261523051D02*
G01*
X289979652Y-261533261D01*
X290010665Y-261549838D01*
X290037851Y-261572149D01*
X290060162Y-261599335D01*
X290076739Y-261630348D01*
X290086949Y-261664003D01*
X290091000Y-261705138D01*
X290091000Y-263034862D01*
X290086949Y-263075997D01*
X290076739Y-263109652D01*
X290060162Y-263140665D01*
X290037851Y-263167851D01*
X290010665Y-263190162D01*
X289979652Y-263206739D01*
X289945997Y-263216949D01*
X289904862Y-263221000D01*
X286675138Y-263221000D01*
X286634003Y-263216949D01*
X286600348Y-263206739D01*
X286569335Y-263190162D01*
X286542149Y-263167851D01*
X286519838Y-263140665D01*
X286503261Y-263109652D01*
X286493051Y-263075997D01*
X286489000Y-263034862D01*
X286489000Y-261705138D01*
X286493051Y-261664003D01*
X286503261Y-261630348D01*
X286519838Y-261599335D01*
X286542149Y-261572149D01*
X286569335Y-261549838D01*
X286600348Y-261533261D01*
X286634003Y-261523051D01*
X286675138Y-261519000D01*
X289904862Y-261519000D01*
X289945997Y-261523051D01*
G37*
G36*
X273767674Y-261635465D02*
G01*
X273805367Y-261646899D01*
X273840103Y-261665466D01*
X273870548Y-261690452D01*
X273895534Y-261720897D01*
X273914101Y-261755633D01*
X273925535Y-261793326D01*
X273930000Y-261838661D01*
X273930000Y-262925339D01*
X273925535Y-262970674D01*
X273914101Y-263008367D01*
X273895534Y-263043103D01*
X273870548Y-263073548D01*
X273840103Y-263098534D01*
X273805367Y-263117101D01*
X273767674Y-263128535D01*
X273722339Y-263133000D01*
X272885661Y-263133000D01*
X272840326Y-263128535D01*
X272802633Y-263117101D01*
X272767897Y-263098534D01*
X272737452Y-263073548D01*
X272712466Y-263043103D01*
X272693899Y-263008367D01*
X272682465Y-262970674D01*
X272678000Y-262925339D01*
X272678000Y-261838661D01*
X272682465Y-261793326D01*
X272693899Y-261755633D01*
X272712466Y-261720897D01*
X272737452Y-261690452D01*
X272767897Y-261665466D01*
X272802633Y-261646899D01*
X272840326Y-261635465D01*
X272885661Y-261631000D01*
X273722339Y-261631000D01*
X273767674Y-261635465D01*
G37*
G36*
X275817674Y-261635465D02*
G01*
X275855367Y-261646899D01*
X275890103Y-261665466D01*
X275920548Y-261690452D01*
X275945534Y-261720897D01*
X275964101Y-261755633D01*
X275975535Y-261793326D01*
X275980000Y-261838661D01*
X275980000Y-262925339D01*
X275975535Y-262970674D01*
X275964101Y-263008367D01*
X275945534Y-263043103D01*
X275920548Y-263073548D01*
X275890103Y-263098534D01*
X275855367Y-263117101D01*
X275817674Y-263128535D01*
X275772339Y-263133000D01*
X274935661Y-263133000D01*
X274890326Y-263128535D01*
X274852633Y-263117101D01*
X274817897Y-263098534D01*
X274787452Y-263073548D01*
X274762466Y-263043103D01*
X274743899Y-263008367D01*
X274732465Y-262970674D01*
X274728000Y-262925339D01*
X274728000Y-261838661D01*
X274732465Y-261793326D01*
X274743899Y-261755633D01*
X274762466Y-261720897D01*
X274787452Y-261690452D01*
X274817897Y-261665466D01*
X274852633Y-261646899D01*
X274890326Y-261635465D01*
X274935661Y-261631000D01*
X275772339Y-261631000D01*
X275817674Y-261635465D01*
G37*
G36*
X252533512Y-260763927D02*
G01*
X252682812Y-260793624D01*
X252846784Y-260861544D01*
X252994354Y-260960147D01*
X253119853Y-261085646D01*
X253218456Y-261233216D01*
X253286376Y-261397188D01*
X253321000Y-261571259D01*
X253321000Y-261748741D01*
X253286376Y-261922812D01*
X253218456Y-262086784D01*
X253119853Y-262234354D01*
X252994354Y-262359853D01*
X252846784Y-262458456D01*
X252682812Y-262526376D01*
X252533512Y-262556073D01*
X252508742Y-262561000D01*
X252331258Y-262561000D01*
X252306488Y-262556073D01*
X252157188Y-262526376D01*
X251993216Y-262458456D01*
X251845646Y-262359853D01*
X251720147Y-262234354D01*
X251621544Y-262086784D01*
X251553624Y-261922812D01*
X251519000Y-261748741D01*
X251519000Y-261571259D01*
X251553624Y-261397188D01*
X251621544Y-261233216D01*
X251720147Y-261085646D01*
X251845646Y-260960147D01*
X251993216Y-260861544D01*
X252157188Y-260793624D01*
X252306488Y-260763927D01*
X252331258Y-260759000D01*
X252508742Y-260759000D01*
X252533512Y-260763927D01*
G37*
G36*
X282117997Y-258075051D02*
G01*
X282151652Y-258085261D01*
X282182665Y-258101838D01*
X282209851Y-258124149D01*
X282232162Y-258151335D01*
X282248739Y-258182348D01*
X282258949Y-258216003D01*
X282263000Y-258257138D01*
X282263000Y-261486862D01*
X282258949Y-261527997D01*
X282248739Y-261561652D01*
X282232162Y-261592665D01*
X282209851Y-261619851D01*
X282182665Y-261642162D01*
X282151652Y-261658739D01*
X282117997Y-261668949D01*
X282076862Y-261673000D01*
X280747138Y-261673000D01*
X280706003Y-261668949D01*
X280672348Y-261658739D01*
X280641335Y-261642162D01*
X280614149Y-261619851D01*
X280591838Y-261592665D01*
X280575261Y-261561652D01*
X280565051Y-261527997D01*
X280561000Y-261486862D01*
X280561000Y-258257138D01*
X280565051Y-258216003D01*
X280575261Y-258182348D01*
X280591838Y-258151335D01*
X280614149Y-258124149D01*
X280641335Y-258101838D01*
X280672348Y-258085261D01*
X280706003Y-258075051D01*
X280747138Y-258071000D01*
X282076862Y-258071000D01*
X282117997Y-258075051D01*
G37*
G36*
X252533512Y-258223927D02*
G01*
X252682812Y-258253624D01*
X252846784Y-258321544D01*
X252994354Y-258420147D01*
X253119853Y-258545646D01*
X253218456Y-258693216D01*
X253286376Y-258857188D01*
X253321000Y-259031259D01*
X253321000Y-259208741D01*
X253286376Y-259382812D01*
X253218456Y-259546784D01*
X253119853Y-259694354D01*
X252994354Y-259819853D01*
X252846784Y-259918456D01*
X252682812Y-259986376D01*
X252533512Y-260016073D01*
X252508742Y-260021000D01*
X252331258Y-260021000D01*
X252306488Y-260016073D01*
X252157188Y-259986376D01*
X251993216Y-259918456D01*
X251845646Y-259819853D01*
X251720147Y-259694354D01*
X251621544Y-259546784D01*
X251553624Y-259382812D01*
X251519000Y-259208741D01*
X251519000Y-259031259D01*
X251553624Y-258857188D01*
X251621544Y-258693216D01*
X251720147Y-258545646D01*
X251845646Y-258420147D01*
X251993216Y-258321544D01*
X252157188Y-258253624D01*
X252306488Y-258223927D01*
X252331258Y-258219000D01*
X252508742Y-258219000D01*
X252533512Y-258223927D01*
G37*
G36*
X297995674Y-256091465D02*
G01*
X298033367Y-256102899D01*
X298068103Y-256121466D01*
X298098548Y-256146452D01*
X298123534Y-256176897D01*
X298142101Y-256211633D01*
X298153535Y-256249326D01*
X298158000Y-256294661D01*
X298158000Y-257381339D01*
X298153535Y-257426674D01*
X298142101Y-257464367D01*
X298123534Y-257499103D01*
X298098548Y-257529548D01*
X298068103Y-257554534D01*
X298033367Y-257573101D01*
X297995674Y-257584535D01*
X297950339Y-257589000D01*
X297113661Y-257589000D01*
X297068326Y-257584535D01*
X297030633Y-257573101D01*
X296995897Y-257554534D01*
X296965452Y-257529548D01*
X296940466Y-257499103D01*
X296921899Y-257464367D01*
X296910465Y-257426674D01*
X296906000Y-257381339D01*
X296906000Y-256294661D01*
X296910465Y-256249326D01*
X296921899Y-256211633D01*
X296940466Y-256176897D01*
X296965452Y-256146452D01*
X296995897Y-256121466D01*
X297030633Y-256102899D01*
X297068326Y-256091465D01*
X297113661Y-256087000D01*
X297950339Y-256087000D01*
X297995674Y-256091465D01*
G37*
G36*
X295945674Y-256091465D02*
G01*
X295983367Y-256102899D01*
X296018103Y-256121466D01*
X296048548Y-256146452D01*
X296073534Y-256176897D01*
X296092101Y-256211633D01*
X296103535Y-256249326D01*
X296108000Y-256294661D01*
X296108000Y-257381339D01*
X296103535Y-257426674D01*
X296092101Y-257464367D01*
X296073534Y-257499103D01*
X296048548Y-257529548D01*
X296018103Y-257554534D01*
X295983367Y-257573101D01*
X295945674Y-257584535D01*
X295900339Y-257589000D01*
X295063661Y-257589000D01*
X295018326Y-257584535D01*
X294980633Y-257573101D01*
X294945897Y-257554534D01*
X294915452Y-257529548D01*
X294890466Y-257499103D01*
X294871899Y-257464367D01*
X294860465Y-257426674D01*
X294856000Y-257381339D01*
X294856000Y-256294661D01*
X294860465Y-256249326D01*
X294871899Y-256211633D01*
X294890466Y-256176897D01*
X294915452Y-256146452D01*
X294945897Y-256121466D01*
X294980633Y-256102899D01*
X295018326Y-256091465D01*
X295063661Y-256087000D01*
X295900339Y-256087000D01*
X295945674Y-256091465D01*
G37*
G36*
X252533512Y-255683927D02*
G01*
X252682812Y-255713624D01*
X252846784Y-255781544D01*
X252994354Y-255880147D01*
X253119853Y-256005646D01*
X253218456Y-256153216D01*
X253286376Y-256317188D01*
X253321000Y-256491259D01*
X253321000Y-256668741D01*
X253286376Y-256842812D01*
X253218456Y-257006784D01*
X253119853Y-257154354D01*
X252994354Y-257279853D01*
X252846784Y-257378456D01*
X252682812Y-257446376D01*
X252533512Y-257476073D01*
X252508742Y-257481000D01*
X252331258Y-257481000D01*
X252306488Y-257476073D01*
X252157188Y-257446376D01*
X251993216Y-257378456D01*
X251845646Y-257279853D01*
X251720147Y-257154354D01*
X251621544Y-257006784D01*
X251553624Y-256842812D01*
X251519000Y-256668741D01*
X251519000Y-256491259D01*
X251553624Y-256317188D01*
X251621544Y-256153216D01*
X251720147Y-256005646D01*
X251845646Y-255880147D01*
X251993216Y-255781544D01*
X252157188Y-255713624D01*
X252306488Y-255683927D01*
X252331258Y-255679000D01*
X252508742Y-255679000D01*
X252533512Y-255683927D01*
G37*
G36*
X287327674Y-255075465D02*
G01*
X287365367Y-255086899D01*
X287400103Y-255105466D01*
X287430548Y-255130452D01*
X287455534Y-255160897D01*
X287474101Y-255195633D01*
X287485535Y-255233326D01*
X287490000Y-255278661D01*
X287490000Y-256365339D01*
X287485535Y-256410674D01*
X287474101Y-256448367D01*
X287455534Y-256483103D01*
X287430548Y-256513548D01*
X287400103Y-256538534D01*
X287365367Y-256557101D01*
X287327674Y-256568535D01*
X287282339Y-256573000D01*
X286445661Y-256573000D01*
X286400326Y-256568535D01*
X286362633Y-256557101D01*
X286327897Y-256538534D01*
X286297452Y-256513548D01*
X286272466Y-256483103D01*
X286253899Y-256448367D01*
X286242465Y-256410674D01*
X286238000Y-256365339D01*
X286238000Y-255278661D01*
X286242465Y-255233326D01*
X286253899Y-255195633D01*
X286272466Y-255160897D01*
X286297452Y-255130452D01*
X286327897Y-255105466D01*
X286362633Y-255086899D01*
X286400326Y-255075465D01*
X286445661Y-255071000D01*
X287282339Y-255071000D01*
X287327674Y-255075465D01*
G37*
G36*
X289377674Y-255075465D02*
G01*
X289415367Y-255086899D01*
X289450103Y-255105466D01*
X289480548Y-255130452D01*
X289505534Y-255160897D01*
X289524101Y-255195633D01*
X289535535Y-255233326D01*
X289540000Y-255278661D01*
X289540000Y-256365339D01*
X289535535Y-256410674D01*
X289524101Y-256448367D01*
X289505534Y-256483103D01*
X289480548Y-256513548D01*
X289450103Y-256538534D01*
X289415367Y-256557101D01*
X289377674Y-256568535D01*
X289332339Y-256573000D01*
X288495661Y-256573000D01*
X288450326Y-256568535D01*
X288412633Y-256557101D01*
X288377897Y-256538534D01*
X288347452Y-256513548D01*
X288322466Y-256483103D01*
X288303899Y-256448367D01*
X288292465Y-256410674D01*
X288288000Y-256365339D01*
X288288000Y-255278661D01*
X288292465Y-255233326D01*
X288303899Y-255195633D01*
X288322466Y-255160897D01*
X288347452Y-255130452D01*
X288377897Y-255105466D01*
X288412633Y-255086899D01*
X288450326Y-255075465D01*
X288495661Y-255071000D01*
X289332339Y-255071000D01*
X289377674Y-255075465D01*
G37*
G36*
X282117997Y-252475051D02*
G01*
X282151652Y-252485261D01*
X282182665Y-252501838D01*
X282209851Y-252524149D01*
X282232162Y-252551335D01*
X282248739Y-252582348D01*
X282258949Y-252616003D01*
X282263000Y-252657138D01*
X282263000Y-255886862D01*
X282258949Y-255927997D01*
X282248739Y-255961652D01*
X282232162Y-255992665D01*
X282209851Y-256019851D01*
X282182665Y-256042162D01*
X282151652Y-256058739D01*
X282117997Y-256068949D01*
X282076862Y-256073000D01*
X280747138Y-256073000D01*
X280706003Y-256068949D01*
X280672348Y-256058739D01*
X280641335Y-256042162D01*
X280614149Y-256019851D01*
X280591838Y-255992665D01*
X280575261Y-255961652D01*
X280565051Y-255927997D01*
X280561000Y-255886862D01*
X280561000Y-252657138D01*
X280565051Y-252616003D01*
X280575261Y-252582348D01*
X280591838Y-252551335D01*
X280614149Y-252524149D01*
X280641335Y-252501838D01*
X280672348Y-252485261D01*
X280706003Y-252475051D01*
X280747138Y-252471000D01*
X282076862Y-252471000D01*
X282117997Y-252475051D01*
G37*
G36*
X276666674Y-254690465D02*
G01*
X276704367Y-254701899D01*
X276739103Y-254720466D01*
X276769548Y-254745452D01*
X276794534Y-254775897D01*
X276813101Y-254810633D01*
X276824535Y-254848326D01*
X276829000Y-254893661D01*
X276829000Y-255730339D01*
X276824535Y-255775674D01*
X276813101Y-255813367D01*
X276794534Y-255848103D01*
X276769548Y-255878548D01*
X276739103Y-255903534D01*
X276704367Y-255922101D01*
X276666674Y-255933535D01*
X276621339Y-255938000D01*
X275534661Y-255938000D01*
X275489326Y-255933535D01*
X275451633Y-255922101D01*
X275416897Y-255903534D01*
X275386452Y-255878548D01*
X275361466Y-255848103D01*
X275342899Y-255813367D01*
X275331465Y-255775674D01*
X275327000Y-255730339D01*
X275327000Y-254893661D01*
X275331465Y-254848326D01*
X275342899Y-254810633D01*
X275361466Y-254775897D01*
X275386452Y-254745452D01*
X275416897Y-254720466D01*
X275451633Y-254701899D01*
X275489326Y-254690465D01*
X275534661Y-254686000D01*
X276621339Y-254686000D01*
X276666674Y-254690465D01*
G37*
G36*
X274380674Y-254681465D02*
G01*
X274418367Y-254692899D01*
X274453103Y-254711466D01*
X274483548Y-254736452D01*
X274508534Y-254766897D01*
X274527101Y-254801633D01*
X274538535Y-254839326D01*
X274543000Y-254884661D01*
X274543000Y-255721339D01*
X274538535Y-255766674D01*
X274527101Y-255804367D01*
X274508534Y-255839103D01*
X274483548Y-255869548D01*
X274453103Y-255894534D01*
X274418367Y-255913101D01*
X274380674Y-255924535D01*
X274335339Y-255929000D01*
X273248661Y-255929000D01*
X273203326Y-255924535D01*
X273165633Y-255913101D01*
X273130897Y-255894534D01*
X273100452Y-255869548D01*
X273075466Y-255839103D01*
X273056899Y-255804367D01*
X273045465Y-255766674D01*
X273041000Y-255721339D01*
X273041000Y-254884661D01*
X273045465Y-254839326D01*
X273056899Y-254801633D01*
X273075466Y-254766897D01*
X273100452Y-254736452D01*
X273130897Y-254711466D01*
X273165633Y-254692899D01*
X273203326Y-254681465D01*
X273248661Y-254677000D01*
X274335339Y-254677000D01*
X274380674Y-254681465D01*
G37*
G36*
X293423674Y-254313465D02*
G01*
X293461367Y-254324899D01*
X293496103Y-254343466D01*
X293526548Y-254368452D01*
X293551534Y-254398897D01*
X293570101Y-254433633D01*
X293581535Y-254471326D01*
X293586000Y-254516661D01*
X293586000Y-255603339D01*
X293581535Y-255648674D01*
X293570101Y-255686367D01*
X293551534Y-255721103D01*
X293526548Y-255751548D01*
X293496103Y-255776534D01*
X293461367Y-255795101D01*
X293423674Y-255806535D01*
X293378339Y-255811000D01*
X292541661Y-255811000D01*
X292496326Y-255806535D01*
X292458633Y-255795101D01*
X292423897Y-255776534D01*
X292393452Y-255751548D01*
X292368466Y-255721103D01*
X292349899Y-255686367D01*
X292338465Y-255648674D01*
X292334000Y-255603339D01*
X292334000Y-254516661D01*
X292338465Y-254471326D01*
X292349899Y-254433633D01*
X292368466Y-254398897D01*
X292393452Y-254368452D01*
X292423897Y-254343466D01*
X292458633Y-254324899D01*
X292496326Y-254313465D01*
X292541661Y-254309000D01*
X293378339Y-254309000D01*
X293423674Y-254313465D01*
G37*
G36*
X291373674Y-254313465D02*
G01*
X291411367Y-254324899D01*
X291446103Y-254343466D01*
X291476548Y-254368452D01*
X291501534Y-254398897D01*
X291520101Y-254433633D01*
X291531535Y-254471326D01*
X291536000Y-254516661D01*
X291536000Y-255603339D01*
X291531535Y-255648674D01*
X291520101Y-255686367D01*
X291501534Y-255721103D01*
X291476548Y-255751548D01*
X291446103Y-255776534D01*
X291411367Y-255795101D01*
X291373674Y-255806535D01*
X291328339Y-255811000D01*
X290491661Y-255811000D01*
X290446326Y-255806535D01*
X290408633Y-255795101D01*
X290373897Y-255776534D01*
X290343452Y-255751548D01*
X290318466Y-255721103D01*
X290299899Y-255686367D01*
X290288465Y-255648674D01*
X290284000Y-255603339D01*
X290284000Y-254516661D01*
X290288465Y-254471326D01*
X290299899Y-254433633D01*
X290318466Y-254398897D01*
X290343452Y-254368452D01*
X290373897Y-254343466D01*
X290408633Y-254324899D01*
X290446326Y-254313465D01*
X290491661Y-254309000D01*
X291328339Y-254309000D01*
X291373674Y-254313465D01*
G37*
G36*
X252533512Y-253143927D02*
G01*
X252682812Y-253173624D01*
X252846784Y-253241544D01*
X252994354Y-253340147D01*
X253119853Y-253465646D01*
X253218456Y-253613216D01*
X253286376Y-253777188D01*
X253321000Y-253951259D01*
X253321000Y-254128741D01*
X253286376Y-254302812D01*
X253218456Y-254466784D01*
X253119853Y-254614354D01*
X252994354Y-254739853D01*
X252846784Y-254838456D01*
X252682812Y-254906376D01*
X252533512Y-254936073D01*
X252508742Y-254941000D01*
X252331258Y-254941000D01*
X252306488Y-254936073D01*
X252157188Y-254906376D01*
X251993216Y-254838456D01*
X251845646Y-254739853D01*
X251720147Y-254614354D01*
X251621544Y-254466784D01*
X251553624Y-254302812D01*
X251519000Y-254128741D01*
X251519000Y-253951259D01*
X251553624Y-253777188D01*
X251621544Y-253613216D01*
X251720147Y-253465646D01*
X251845646Y-253340147D01*
X251993216Y-253241544D01*
X252157188Y-253173624D01*
X252306488Y-253143927D01*
X252331258Y-253139000D01*
X252508742Y-253139000D01*
X252533512Y-253143927D01*
G37*
G36*
X297588000Y-254709000D02*
G01*
X294936000Y-254709000D01*
X294936000Y-253547000D01*
X297588000Y-253547000D01*
X297588000Y-254709000D01*
G37*
G36*
X287318674Y-252789465D02*
G01*
X287356367Y-252800899D01*
X287391103Y-252819466D01*
X287421548Y-252844452D01*
X287446534Y-252874897D01*
X287465101Y-252909633D01*
X287476535Y-252947326D01*
X287481000Y-252992661D01*
X287481000Y-254079339D01*
X287476535Y-254124674D01*
X287465101Y-254162367D01*
X287446534Y-254197103D01*
X287421548Y-254227548D01*
X287391103Y-254252534D01*
X287356367Y-254271101D01*
X287318674Y-254282535D01*
X287273339Y-254287000D01*
X286436661Y-254287000D01*
X286391326Y-254282535D01*
X286353633Y-254271101D01*
X286318897Y-254252534D01*
X286288452Y-254227548D01*
X286263466Y-254197103D01*
X286244899Y-254162367D01*
X286233465Y-254124674D01*
X286229000Y-254079339D01*
X286229000Y-252992661D01*
X286233465Y-252947326D01*
X286244899Y-252909633D01*
X286263466Y-252874897D01*
X286288452Y-252844452D01*
X286318897Y-252819466D01*
X286353633Y-252800899D01*
X286391326Y-252789465D01*
X286436661Y-252785000D01*
X287273339Y-252785000D01*
X287318674Y-252789465D01*
G37*
G36*
X289368674Y-252789465D02*
G01*
X289406367Y-252800899D01*
X289441103Y-252819466D01*
X289471548Y-252844452D01*
X289496534Y-252874897D01*
X289515101Y-252909633D01*
X289526535Y-252947326D01*
X289531000Y-252992661D01*
X289531000Y-254079339D01*
X289526535Y-254124674D01*
X289515101Y-254162367D01*
X289496534Y-254197103D01*
X289471548Y-254227548D01*
X289441103Y-254252534D01*
X289406367Y-254271101D01*
X289368674Y-254282535D01*
X289323339Y-254287000D01*
X288486661Y-254287000D01*
X288441326Y-254282535D01*
X288403633Y-254271101D01*
X288368897Y-254252534D01*
X288338452Y-254227548D01*
X288313466Y-254197103D01*
X288294899Y-254162367D01*
X288283465Y-254124674D01*
X288279000Y-254079339D01*
X288279000Y-252992661D01*
X288283465Y-252947326D01*
X288294899Y-252909633D01*
X288313466Y-252874897D01*
X288338452Y-252844452D01*
X288368897Y-252819466D01*
X288403633Y-252800899D01*
X288441326Y-252789465D01*
X288486661Y-252785000D01*
X289323339Y-252785000D01*
X289368674Y-252789465D01*
G37*
G36*
X276666674Y-252640465D02*
G01*
X276704367Y-252651899D01*
X276739103Y-252670466D01*
X276769548Y-252695452D01*
X276794534Y-252725897D01*
X276813101Y-252760633D01*
X276824535Y-252798326D01*
X276829000Y-252843661D01*
X276829000Y-253680339D01*
X276824535Y-253725674D01*
X276813101Y-253763367D01*
X276794534Y-253798103D01*
X276769548Y-253828548D01*
X276739103Y-253853534D01*
X276704367Y-253872101D01*
X276666674Y-253883535D01*
X276621339Y-253888000D01*
X275534661Y-253888000D01*
X275489326Y-253883535D01*
X275451633Y-253872101D01*
X275416897Y-253853534D01*
X275386452Y-253828548D01*
X275361466Y-253798103D01*
X275342899Y-253763367D01*
X275331465Y-253725674D01*
X275327000Y-253680339D01*
X275327000Y-252843661D01*
X275331465Y-252798326D01*
X275342899Y-252760633D01*
X275361466Y-252725897D01*
X275386452Y-252695452D01*
X275416897Y-252670466D01*
X275451633Y-252651899D01*
X275489326Y-252640465D01*
X275534661Y-252636000D01*
X276621339Y-252636000D01*
X276666674Y-252640465D01*
G37*
G36*
X274380674Y-252631465D02*
G01*
X274418367Y-252642899D01*
X274453103Y-252661466D01*
X274483548Y-252686452D01*
X274508534Y-252716897D01*
X274527101Y-252751633D01*
X274538535Y-252789326D01*
X274543000Y-252834661D01*
X274543000Y-253671339D01*
X274538535Y-253716674D01*
X274527101Y-253754367D01*
X274508534Y-253789103D01*
X274483548Y-253819548D01*
X274453103Y-253844534D01*
X274418367Y-253863101D01*
X274380674Y-253874535D01*
X274335339Y-253879000D01*
X273248661Y-253879000D01*
X273203326Y-253874535D01*
X273165633Y-253863101D01*
X273130897Y-253844534D01*
X273100452Y-253819548D01*
X273075466Y-253789103D01*
X273056899Y-253754367D01*
X273045465Y-253716674D01*
X273041000Y-253671339D01*
X273041000Y-252834661D01*
X273045465Y-252789326D01*
X273056899Y-252751633D01*
X273075466Y-252716897D01*
X273100452Y-252686452D01*
X273130897Y-252661466D01*
X273165633Y-252642899D01*
X273203326Y-252631465D01*
X273248661Y-252627000D01*
X274335339Y-252627000D01*
X274380674Y-252631465D01*
G37*
G36*
X293677674Y-251519465D02*
G01*
X293715367Y-251530899D01*
X293750103Y-251549466D01*
X293780548Y-251574452D01*
X293805534Y-251604897D01*
X293824101Y-251639633D01*
X293835535Y-251677326D01*
X293840000Y-251722661D01*
X293840000Y-252809339D01*
X293835535Y-252854674D01*
X293824101Y-252892367D01*
X293805534Y-252927103D01*
X293780548Y-252957548D01*
X293750103Y-252982534D01*
X293715367Y-253001101D01*
X293677674Y-253012535D01*
X293632339Y-253017000D01*
X292795661Y-253017000D01*
X292750326Y-253012535D01*
X292712633Y-253001101D01*
X292677897Y-252982534D01*
X292647452Y-252957548D01*
X292622466Y-252927103D01*
X292603899Y-252892367D01*
X292592465Y-252854674D01*
X292588000Y-252809339D01*
X292588000Y-251722661D01*
X292592465Y-251677326D01*
X292603899Y-251639633D01*
X292622466Y-251604897D01*
X292647452Y-251574452D01*
X292677897Y-251549466D01*
X292712633Y-251530899D01*
X292750326Y-251519465D01*
X292795661Y-251515000D01*
X293632339Y-251515000D01*
X293677674Y-251519465D01*
G37*
G36*
X291627674Y-251519465D02*
G01*
X291665367Y-251530899D01*
X291700103Y-251549466D01*
X291730548Y-251574452D01*
X291755534Y-251604897D01*
X291774101Y-251639633D01*
X291785535Y-251677326D01*
X291790000Y-251722661D01*
X291790000Y-252809339D01*
X291785535Y-252854674D01*
X291774101Y-252892367D01*
X291755534Y-252927103D01*
X291730548Y-252957548D01*
X291700103Y-252982534D01*
X291665367Y-253001101D01*
X291627674Y-253012535D01*
X291582339Y-253017000D01*
X290745661Y-253017000D01*
X290700326Y-253012535D01*
X290662633Y-253001101D01*
X290627897Y-252982534D01*
X290597452Y-252957548D01*
X290572466Y-252927103D01*
X290553899Y-252892367D01*
X290542465Y-252854674D01*
X290538000Y-252809339D01*
X290538000Y-251722661D01*
X290542465Y-251677326D01*
X290553899Y-251639633D01*
X290572466Y-251604897D01*
X290597452Y-251574452D01*
X290627897Y-251549466D01*
X290662633Y-251530899D01*
X290700326Y-251519465D01*
X290745661Y-251515000D01*
X291582339Y-251515000D01*
X291627674Y-251519465D01*
G37*
G36*
X297588000Y-252509000D02*
G01*
X296836000Y-252509000D01*
X296836000Y-251347000D01*
X297588000Y-251347000D01*
X297588000Y-252509000D01*
G37*
G36*
X295688000Y-252509000D02*
G01*
X294936000Y-252509000D01*
X294936000Y-251347000D01*
X295688000Y-251347000D01*
X295688000Y-252509000D01*
G37*
G36*
X270997997Y-246125051D02*
G01*
X271031652Y-246135261D01*
X271062665Y-246151838D01*
X271089851Y-246174149D01*
X271112162Y-246201335D01*
X271128739Y-246232348D01*
X271138949Y-246266003D01*
X271143000Y-246307138D01*
X271143000Y-249536862D01*
X271138949Y-249577997D01*
X271128739Y-249611652D01*
X271112162Y-249642665D01*
X271089851Y-249669851D01*
X271062665Y-249692162D01*
X271031652Y-249708739D01*
X270997997Y-249718949D01*
X270956862Y-249723000D01*
X269627138Y-249723000D01*
X269586003Y-249718949D01*
X269552348Y-249708739D01*
X269521335Y-249692162D01*
X269494149Y-249669851D01*
X269471838Y-249642665D01*
X269455261Y-249611652D01*
X269445051Y-249577997D01*
X269441000Y-249536862D01*
X269441000Y-246307138D01*
X269445051Y-246266003D01*
X269455261Y-246232348D01*
X269471838Y-246201335D01*
X269494149Y-246174149D01*
X269521335Y-246151838D01*
X269552348Y-246135261D01*
X269586003Y-246125051D01*
X269627138Y-246121000D01*
X270956862Y-246121000D01*
X270997997Y-246125051D01*
G37*
G36*
X292001552Y-245556331D02*
G01*
X292083627Y-245590328D01*
X292083629Y-245590329D01*
X292120813Y-245615175D01*
X292157495Y-245639685D01*
X292220315Y-245702505D01*
X292269672Y-245776373D01*
X292303669Y-245858448D01*
X292321000Y-245945579D01*
X292321000Y-246034421D01*
X292303669Y-246121552D01*
X292269672Y-246203627D01*
X292220399Y-246277370D01*
X292220314Y-246277496D01*
X292157496Y-246340314D01*
X292083629Y-246389671D01*
X292083628Y-246389672D01*
X292083627Y-246389672D01*
X292001552Y-246423669D01*
X291914421Y-246441000D01*
X291825579Y-246441000D01*
X291738448Y-246423669D01*
X291656373Y-246389672D01*
X291656372Y-246389672D01*
X291656371Y-246389671D01*
X291582504Y-246340314D01*
X291566952Y-246324762D01*
X291548010Y-246309217D01*
X291526399Y-246297666D01*
X291502950Y-246290553D01*
X291478564Y-246288151D01*
X291454178Y-246290553D01*
X291430729Y-246297666D01*
X291409118Y-246309217D01*
X291390176Y-246324762D01*
X291374631Y-246343704D01*
X291363080Y-246365315D01*
X291355967Y-246388764D01*
X291353565Y-246413150D01*
X291355967Y-246437536D01*
X291363080Y-246460985D01*
X291364796Y-246464614D01*
X291409772Y-246612879D01*
X291421000Y-246726882D01*
X291421000Y-247353118D01*
X291409772Y-247467121D01*
X291365398Y-247613402D01*
X291293345Y-247748204D01*
X291196367Y-247866372D01*
X291078206Y-247963343D01*
X290943401Y-248035398D01*
X290797120Y-248079772D01*
X290645000Y-248094754D01*
X290492879Y-248079772D01*
X290346598Y-248035398D01*
X290211796Y-247963345D01*
X290093628Y-247866367D01*
X289996657Y-247748206D01*
X289924602Y-247613401D01*
X289880228Y-247467120D01*
X289869000Y-247353117D01*
X289869000Y-246726882D01*
X289880228Y-246612879D01*
X289924601Y-246466600D01*
X289996657Y-246331794D01*
X290093632Y-246213631D01*
X290141741Y-246174149D01*
X290211793Y-246116658D01*
X290211794Y-246116657D01*
X290211797Y-246116655D01*
X290346599Y-246044602D01*
X290492880Y-246000228D01*
X290645000Y-245985246D01*
X290797121Y-246000228D01*
X290943402Y-246044602D01*
X291078204Y-246116655D01*
X291078207Y-246116657D01*
X291078208Y-246116658D01*
X291108165Y-246141243D01*
X291196372Y-246213633D01*
X291223288Y-246246430D01*
X291240615Y-246263757D01*
X291260989Y-246277370D01*
X291283628Y-246286748D01*
X291307661Y-246291528D01*
X291332165Y-246291528D01*
X291356199Y-246286748D01*
X291378837Y-246277370D01*
X291399212Y-246263756D01*
X291416539Y-246246429D01*
X291430152Y-246226055D01*
X291439530Y-246203416D01*
X291444310Y-246179383D01*
X291444310Y-246154879D01*
X291439530Y-246130845D01*
X291436490Y-246122351D01*
X291419000Y-246034421D01*
X291419000Y-245945579D01*
X291436331Y-245858448D01*
X291470328Y-245776373D01*
X291519685Y-245702505D01*
X291582505Y-245639685D01*
X291619187Y-245615175D01*
X291656371Y-245590329D01*
X291656373Y-245590328D01*
X291738448Y-245556331D01*
X291825579Y-245539000D01*
X291914421Y-245539000D01*
X292001552Y-245556331D01*
G37*
G36*
X297001552Y-245556331D02*
G01*
X297083627Y-245590328D01*
X297083629Y-245590329D01*
X297120813Y-245615175D01*
X297157495Y-245639685D01*
X297220315Y-245702505D01*
X297269672Y-245776373D01*
X297303669Y-245858448D01*
X297321000Y-245945579D01*
X297321000Y-246034421D01*
X297303193Y-246123946D01*
X297297490Y-246142743D01*
X297295087Y-246167129D01*
X297297488Y-246191515D01*
X297304600Y-246214964D01*
X297316151Y-246236575D01*
X297331695Y-246255518D01*
X297350637Y-246271063D01*
X297372247Y-246282615D01*
X297395696Y-246289729D01*
X297420082Y-246292132D01*
X297444468Y-246289731D01*
X297467917Y-246282619D01*
X297489528Y-246271068D01*
X297508471Y-246255524D01*
X297516711Y-246246432D01*
X297543628Y-246213634D01*
X297631836Y-246141243D01*
X297661793Y-246116658D01*
X297661794Y-246116657D01*
X297661797Y-246116655D01*
X297796599Y-246044602D01*
X297942880Y-246000228D01*
X298095000Y-245985246D01*
X298247121Y-246000228D01*
X298393402Y-246044602D01*
X298528204Y-246116655D01*
X298528207Y-246116657D01*
X298528208Y-246116658D01*
X298646369Y-246213631D01*
X298737573Y-246324762D01*
X298743345Y-246331796D01*
X298815398Y-246466598D01*
X298859772Y-246612879D01*
X298871000Y-246726882D01*
X298871000Y-247353118D01*
X298859772Y-247467121D01*
X298815398Y-247613402D01*
X298743345Y-247748204D01*
X298646367Y-247866372D01*
X298528206Y-247963343D01*
X298393401Y-248035398D01*
X298247120Y-248079772D01*
X298095000Y-248094754D01*
X297942879Y-248079772D01*
X297796598Y-248035398D01*
X297661796Y-247963345D01*
X297543628Y-247866367D01*
X297446657Y-247748206D01*
X297374602Y-247613401D01*
X297330228Y-247467120D01*
X297319000Y-247353117D01*
X297319000Y-246726882D01*
X297330228Y-246612879D01*
X297376402Y-246460664D01*
X297381052Y-246449439D01*
X297385833Y-246425405D01*
X297385833Y-246400901D01*
X297381054Y-246376868D01*
X297371677Y-246354229D01*
X297358064Y-246333854D01*
X297340737Y-246316527D01*
X297320363Y-246302912D01*
X297297725Y-246293534D01*
X297273691Y-246288753D01*
X297249187Y-246288753D01*
X297225154Y-246293532D01*
X297202515Y-246302909D01*
X297182140Y-246316522D01*
X297173048Y-246324762D01*
X297157496Y-246340314D01*
X297083629Y-246389671D01*
X297083628Y-246389672D01*
X297083627Y-246389672D01*
X297001552Y-246423669D01*
X296914421Y-246441000D01*
X296825579Y-246441000D01*
X296738448Y-246423669D01*
X296656373Y-246389672D01*
X296656372Y-246389672D01*
X296656371Y-246389671D01*
X296582504Y-246340314D01*
X296519686Y-246277496D01*
X296519602Y-246277370D01*
X296470328Y-246203627D01*
X296436331Y-246121552D01*
X296419000Y-246034421D01*
X296419000Y-245945579D01*
X296436331Y-245858448D01*
X296470328Y-245776373D01*
X296519685Y-245702505D01*
X296582505Y-245639685D01*
X296619187Y-245615175D01*
X296656371Y-245590329D01*
X296656373Y-245590328D01*
X296738448Y-245556331D01*
X296825579Y-245539000D01*
X296914421Y-245539000D01*
X297001552Y-245556331D01*
G37*
G36*
X295946000Y-247791000D02*
G01*
X292794000Y-247791000D01*
X292794000Y-246389000D01*
X295946000Y-246389000D01*
X295946000Y-247791000D01*
G37*
G36*
X256876000Y-247001000D02*
G01*
X254224000Y-247001000D01*
X254224000Y-245839000D01*
X256876000Y-245839000D01*
X256876000Y-247001000D01*
G37*
G36*
X278246674Y-245516465D02*
G01*
X278284367Y-245527899D01*
X278319103Y-245546466D01*
X278349548Y-245571452D01*
X278374534Y-245601897D01*
X278393101Y-245636633D01*
X278404535Y-245674326D01*
X278409000Y-245719661D01*
X278409000Y-246556339D01*
X278404535Y-246601674D01*
X278393101Y-246639367D01*
X278374534Y-246674103D01*
X278349548Y-246704548D01*
X278319103Y-246729534D01*
X278284367Y-246748101D01*
X278246674Y-246759535D01*
X278201339Y-246764000D01*
X277114661Y-246764000D01*
X277069326Y-246759535D01*
X277031633Y-246748101D01*
X276996897Y-246729534D01*
X276966452Y-246704548D01*
X276941466Y-246674103D01*
X276922899Y-246639367D01*
X276911465Y-246601674D01*
X276907000Y-246556339D01*
X276907000Y-245719661D01*
X276911465Y-245674326D01*
X276922899Y-245636633D01*
X276941466Y-245601897D01*
X276966452Y-245571452D01*
X276996897Y-245546466D01*
X277031633Y-245527899D01*
X277069326Y-245516465D01*
X277114661Y-245512000D01*
X278201339Y-245512000D01*
X278246674Y-245516465D01*
G37*
G36*
X275960674Y-245516465D02*
G01*
X275998367Y-245527899D01*
X276033103Y-245546466D01*
X276063548Y-245571452D01*
X276088534Y-245601897D01*
X276107101Y-245636633D01*
X276118535Y-245674326D01*
X276123000Y-245719661D01*
X276123000Y-246556339D01*
X276118535Y-246601674D01*
X276107101Y-246639367D01*
X276088534Y-246674103D01*
X276063548Y-246704548D01*
X276033103Y-246729534D01*
X275998367Y-246748101D01*
X275960674Y-246759535D01*
X275915339Y-246764000D01*
X274828661Y-246764000D01*
X274783326Y-246759535D01*
X274745633Y-246748101D01*
X274710897Y-246729534D01*
X274680452Y-246704548D01*
X274655466Y-246674103D01*
X274636899Y-246639367D01*
X274625465Y-246601674D01*
X274621000Y-246556339D01*
X274621000Y-245719661D01*
X274625465Y-245674326D01*
X274636899Y-245636633D01*
X274655466Y-245601897D01*
X274680452Y-245571452D01*
X274710897Y-245546466D01*
X274745633Y-245527899D01*
X274783326Y-245516465D01*
X274828661Y-245512000D01*
X275915339Y-245512000D01*
X275960674Y-245516465D01*
G37*
G36*
X280628674Y-245458465D02*
G01*
X280666367Y-245469899D01*
X280701103Y-245488466D01*
X280731548Y-245513452D01*
X280756534Y-245543897D01*
X280775101Y-245578633D01*
X280786535Y-245616326D01*
X280791000Y-245661661D01*
X280791000Y-246498339D01*
X280786535Y-246543674D01*
X280775101Y-246581367D01*
X280756534Y-246616103D01*
X280731548Y-246646548D01*
X280701103Y-246671534D01*
X280666367Y-246690101D01*
X280628674Y-246701535D01*
X280583339Y-246706000D01*
X279496661Y-246706000D01*
X279451326Y-246701535D01*
X279413633Y-246690101D01*
X279378897Y-246671534D01*
X279348452Y-246646548D01*
X279323466Y-246616103D01*
X279304899Y-246581367D01*
X279293465Y-246543674D01*
X279289000Y-246498339D01*
X279289000Y-245661661D01*
X279293465Y-245616326D01*
X279304899Y-245578633D01*
X279323466Y-245543897D01*
X279348452Y-245513452D01*
X279378897Y-245488466D01*
X279413633Y-245469899D01*
X279451326Y-245458465D01*
X279496661Y-245454000D01*
X280583339Y-245454000D01*
X280628674Y-245458465D01*
G37*
G36*
X261258674Y-244513465D02*
G01*
X261296367Y-244524899D01*
X261331103Y-244543466D01*
X261361548Y-244568452D01*
X261386534Y-244598897D01*
X261405101Y-244633633D01*
X261416535Y-244671326D01*
X261421000Y-244716661D01*
X261421000Y-245803339D01*
X261416535Y-245848674D01*
X261405101Y-245886367D01*
X261386534Y-245921103D01*
X261361548Y-245951548D01*
X261331103Y-245976534D01*
X261296367Y-245995101D01*
X261258674Y-246006535D01*
X261213339Y-246011000D01*
X260376661Y-246011000D01*
X260331326Y-246006535D01*
X260293633Y-245995101D01*
X260258897Y-245976534D01*
X260228452Y-245951548D01*
X260203466Y-245921103D01*
X260184899Y-245886367D01*
X260173465Y-245848674D01*
X260169000Y-245803339D01*
X260169000Y-244716661D01*
X260173465Y-244671326D01*
X260184899Y-244633633D01*
X260203466Y-244598897D01*
X260228452Y-244568452D01*
X260258897Y-244543466D01*
X260293633Y-244524899D01*
X260331326Y-244513465D01*
X260376661Y-244509000D01*
X261213339Y-244509000D01*
X261258674Y-244513465D01*
G37*
G36*
X259208674Y-244513465D02*
G01*
X259246367Y-244524899D01*
X259281103Y-244543466D01*
X259311548Y-244568452D01*
X259336534Y-244598897D01*
X259355101Y-244633633D01*
X259366535Y-244671326D01*
X259371000Y-244716661D01*
X259371000Y-245803339D01*
X259366535Y-245848674D01*
X259355101Y-245886367D01*
X259336534Y-245921103D01*
X259311548Y-245951548D01*
X259281103Y-245976534D01*
X259246367Y-245995101D01*
X259208674Y-246006535D01*
X259163339Y-246011000D01*
X258326661Y-246011000D01*
X258281326Y-246006535D01*
X258243633Y-245995101D01*
X258208897Y-245976534D01*
X258178452Y-245951548D01*
X258153466Y-245921103D01*
X258134899Y-245886367D01*
X258123465Y-245848674D01*
X258119000Y-245803339D01*
X258119000Y-244716661D01*
X258123465Y-244671326D01*
X258134899Y-244633633D01*
X258153466Y-244598897D01*
X258178452Y-244568452D01*
X258208897Y-244543466D01*
X258243633Y-244524899D01*
X258281326Y-244513465D01*
X258326661Y-244509000D01*
X259163339Y-244509000D01*
X259208674Y-244513465D01*
G37*
G36*
X256876000Y-244801000D02*
G01*
X256124000Y-244801000D01*
X256124000Y-243639000D01*
X256876000Y-243639000D01*
X256876000Y-244801000D01*
G37*
G36*
X254976000Y-244801000D02*
G01*
X254224000Y-244801000D01*
X254224000Y-243639000D01*
X254976000Y-243639000D01*
X254976000Y-244801000D01*
G37*
G36*
X278246674Y-243466465D02*
G01*
X278284367Y-243477899D01*
X278319103Y-243496466D01*
X278349548Y-243521452D01*
X278374534Y-243551897D01*
X278393101Y-243586633D01*
X278404535Y-243624326D01*
X278409000Y-243669661D01*
X278409000Y-244506339D01*
X278404535Y-244551674D01*
X278393101Y-244589367D01*
X278374534Y-244624103D01*
X278349548Y-244654548D01*
X278319103Y-244679534D01*
X278284367Y-244698101D01*
X278246674Y-244709535D01*
X278201339Y-244714000D01*
X277114661Y-244714000D01*
X277069326Y-244709535D01*
X277031633Y-244698101D01*
X276996897Y-244679534D01*
X276966452Y-244654548D01*
X276941466Y-244624103D01*
X276922899Y-244589367D01*
X276911465Y-244551674D01*
X276907000Y-244506339D01*
X276907000Y-243669661D01*
X276911465Y-243624326D01*
X276922899Y-243586633D01*
X276941466Y-243551897D01*
X276966452Y-243521452D01*
X276996897Y-243496466D01*
X277031633Y-243477899D01*
X277069326Y-243466465D01*
X277114661Y-243462000D01*
X278201339Y-243462000D01*
X278246674Y-243466465D01*
G37*
G36*
X275960674Y-243466465D02*
G01*
X275998367Y-243477899D01*
X276033103Y-243496466D01*
X276063548Y-243521452D01*
X276088534Y-243551897D01*
X276107101Y-243586633D01*
X276118535Y-243624326D01*
X276123000Y-243669661D01*
X276123000Y-244506339D01*
X276118535Y-244551674D01*
X276107101Y-244589367D01*
X276088534Y-244624103D01*
X276063548Y-244654548D01*
X276033103Y-244679534D01*
X275998367Y-244698101D01*
X275960674Y-244709535D01*
X275915339Y-244714000D01*
X274828661Y-244714000D01*
X274783326Y-244709535D01*
X274745633Y-244698101D01*
X274710897Y-244679534D01*
X274680452Y-244654548D01*
X274655466Y-244624103D01*
X274636899Y-244589367D01*
X274625465Y-244551674D01*
X274621000Y-244506339D01*
X274621000Y-243669661D01*
X274625465Y-243624326D01*
X274636899Y-243586633D01*
X274655466Y-243551897D01*
X274680452Y-243521452D01*
X274710897Y-243496466D01*
X274745633Y-243477899D01*
X274783326Y-243466465D01*
X274828661Y-243462000D01*
X275915339Y-243462000D01*
X275960674Y-243466465D01*
G37*
G36*
X280628674Y-243408465D02*
G01*
X280666367Y-243419899D01*
X280701103Y-243438466D01*
X280731548Y-243463452D01*
X280756534Y-243493897D01*
X280775101Y-243528633D01*
X280786535Y-243566326D01*
X280791000Y-243611661D01*
X280791000Y-244448339D01*
X280786535Y-244493674D01*
X280775101Y-244531367D01*
X280756534Y-244566103D01*
X280731548Y-244596548D01*
X280701103Y-244621534D01*
X280666367Y-244640101D01*
X280628674Y-244651535D01*
X280583339Y-244656000D01*
X279496661Y-244656000D01*
X279451326Y-244651535D01*
X279413633Y-244640101D01*
X279378897Y-244621534D01*
X279348452Y-244596548D01*
X279323466Y-244566103D01*
X279304899Y-244531367D01*
X279293465Y-244493674D01*
X279289000Y-244448339D01*
X279289000Y-243611661D01*
X279293465Y-243566326D01*
X279304899Y-243528633D01*
X279323466Y-243493897D01*
X279348452Y-243463452D01*
X279378897Y-243438466D01*
X279413633Y-243419899D01*
X279451326Y-243408465D01*
X279496661Y-243404000D01*
X280583339Y-243404000D01*
X280628674Y-243408465D01*
G37*
G36*
X290617715Y-242298058D02*
G01*
X290735722Y-242333855D01*
X290844468Y-242391981D01*
X290939790Y-242470210D01*
X291018019Y-242565532D01*
X291076145Y-242674278D01*
X291111942Y-242792285D01*
X291121000Y-242884254D01*
X291121000Y-243595746D01*
X291111942Y-243687715D01*
X291076145Y-243805722D01*
X291018019Y-243914468D01*
X290939790Y-244009790D01*
X290844468Y-244088019D01*
X290735721Y-244146145D01*
X290617714Y-244181942D01*
X290495000Y-244194028D01*
X290372285Y-244181942D01*
X290254278Y-244146145D01*
X290145532Y-244088019D01*
X290050210Y-244009790D01*
X289971981Y-243914468D01*
X289913855Y-243805721D01*
X289878058Y-243687714D01*
X289869000Y-243595745D01*
X289869000Y-242884254D01*
X289878058Y-242792285D01*
X289913855Y-242674279D01*
X289971982Y-242565532D01*
X290050211Y-242470210D01*
X290145533Y-242391981D01*
X290254279Y-242333855D01*
X290372286Y-242298058D01*
X290495000Y-242285972D01*
X290617715Y-242298058D01*
G37*
G36*
X298367715Y-242298058D02*
G01*
X298485722Y-242333855D01*
X298594468Y-242391981D01*
X298689790Y-242470210D01*
X298768019Y-242565532D01*
X298826145Y-242674278D01*
X298861942Y-242792285D01*
X298871000Y-242884254D01*
X298871000Y-243595746D01*
X298861942Y-243687715D01*
X298826145Y-243805722D01*
X298768019Y-243914468D01*
X298689790Y-244009790D01*
X298594468Y-244088019D01*
X298485721Y-244146145D01*
X298367714Y-244181942D01*
X298245000Y-244194028D01*
X298122285Y-244181942D01*
X298004278Y-244146145D01*
X297895532Y-244088019D01*
X297800210Y-244009790D01*
X297721981Y-243914468D01*
X297663855Y-243805721D01*
X297628058Y-243687714D01*
X297619000Y-243595745D01*
X297619000Y-242884254D01*
X297628058Y-242792285D01*
X297663855Y-242674279D01*
X297721982Y-242565532D01*
X297800211Y-242470210D01*
X297895533Y-242391981D01*
X298004279Y-242333855D01*
X298122286Y-242298058D01*
X298245000Y-242285972D01*
X298367715Y-242298058D01*
G37*
G36*
X270997997Y-240525051D02*
G01*
X271031652Y-240535261D01*
X271062665Y-240551838D01*
X271089851Y-240574149D01*
X271112162Y-240601335D01*
X271128739Y-240632348D01*
X271138949Y-240666003D01*
X271143000Y-240707138D01*
X271143000Y-243936862D01*
X271138949Y-243977997D01*
X271128739Y-244011652D01*
X271112162Y-244042665D01*
X271089851Y-244069851D01*
X271062665Y-244092162D01*
X271031652Y-244108739D01*
X270997997Y-244118949D01*
X270956862Y-244123000D01*
X269627138Y-244123000D01*
X269586003Y-244118949D01*
X269552348Y-244108739D01*
X269521335Y-244092162D01*
X269494149Y-244069851D01*
X269471838Y-244042665D01*
X269455261Y-244011652D01*
X269445051Y-243977997D01*
X269441000Y-243936862D01*
X269441000Y-240707138D01*
X269445051Y-240666003D01*
X269455261Y-240632348D01*
X269471838Y-240601335D01*
X269494149Y-240574149D01*
X269521335Y-240551838D01*
X269552348Y-240535261D01*
X269586003Y-240525051D01*
X269627138Y-240521000D01*
X270956862Y-240521000D01*
X270997997Y-240525051D01*
G37*
M02*
