G04 #@! TF.GenerationSoftware,KiCad,Pcbnew,5.1.5-52549c5~84~ubuntu18.04.1*
G04 #@! TF.CreationDate,2020-02-14T16:52:17+01:00*
G04 #@! TF.ProjectId,Project,50726f6a-6563-4742-9e6b-696361645f70,rev?*
G04 #@! TF.SameCoordinates,Original*
G04 #@! TF.FileFunction,Soldermask,Bot*
G04 #@! TF.FilePolarity,Negative*
%FSLAX46Y46*%
G04 Gerber Fmt 4.6, Leading zero omitted, Abs format (unit mm)*
G04 Created by KiCad (PCBNEW 5.1.5-52549c5~84~ubuntu18.04.1) date 2020-02-14 16:52:17*
%MOMM*%
%LPD*%
G04 APERTURE LIST*
%ADD10C,0.100000*%
G04 APERTURE END LIST*
D10*
G36*
X286493512Y-296703927D02*
G01*
X286642812Y-296733624D01*
X286806784Y-296801544D01*
X286954354Y-296900147D01*
X287079853Y-297025646D01*
X287178456Y-297173216D01*
X287246376Y-297337188D01*
X287281000Y-297511259D01*
X287281000Y-297688741D01*
X287246376Y-297862812D01*
X287178456Y-298026784D01*
X287079853Y-298174354D01*
X286954354Y-298299853D01*
X286806784Y-298398456D01*
X286642812Y-298466376D01*
X286493512Y-298496073D01*
X286468742Y-298501000D01*
X286291258Y-298501000D01*
X286266488Y-298496073D01*
X286117188Y-298466376D01*
X285953216Y-298398456D01*
X285805646Y-298299853D01*
X285680147Y-298174354D01*
X285581544Y-298026784D01*
X285513624Y-297862812D01*
X285479000Y-297688741D01*
X285479000Y-297511259D01*
X285513624Y-297337188D01*
X285581544Y-297173216D01*
X285680147Y-297025646D01*
X285805646Y-296900147D01*
X285953216Y-296801544D01*
X286117188Y-296733624D01*
X286266488Y-296703927D01*
X286291258Y-296699000D01*
X286468742Y-296699000D01*
X286493512Y-296703927D01*
G37*
G36*
X281413512Y-296703927D02*
G01*
X281562812Y-296733624D01*
X281726784Y-296801544D01*
X281874354Y-296900147D01*
X281999853Y-297025646D01*
X282098456Y-297173216D01*
X282166376Y-297337188D01*
X282201000Y-297511259D01*
X282201000Y-297688741D01*
X282166376Y-297862812D01*
X282098456Y-298026784D01*
X281999853Y-298174354D01*
X281874354Y-298299853D01*
X281726784Y-298398456D01*
X281562812Y-298466376D01*
X281413512Y-298496073D01*
X281388742Y-298501000D01*
X281211258Y-298501000D01*
X281186488Y-298496073D01*
X281037188Y-298466376D01*
X280873216Y-298398456D01*
X280725646Y-298299853D01*
X280600147Y-298174354D01*
X280501544Y-298026784D01*
X280433624Y-297862812D01*
X280399000Y-297688741D01*
X280399000Y-297511259D01*
X280433624Y-297337188D01*
X280501544Y-297173216D01*
X280600147Y-297025646D01*
X280725646Y-296900147D01*
X280873216Y-296801544D01*
X281037188Y-296733624D01*
X281186488Y-296703927D01*
X281211258Y-296699000D01*
X281388742Y-296699000D01*
X281413512Y-296703927D01*
G37*
G36*
X278873512Y-296703927D02*
G01*
X279022812Y-296733624D01*
X279186784Y-296801544D01*
X279334354Y-296900147D01*
X279459853Y-297025646D01*
X279558456Y-297173216D01*
X279626376Y-297337188D01*
X279661000Y-297511259D01*
X279661000Y-297688741D01*
X279626376Y-297862812D01*
X279558456Y-298026784D01*
X279459853Y-298174354D01*
X279334354Y-298299853D01*
X279186784Y-298398456D01*
X279022812Y-298466376D01*
X278873512Y-298496073D01*
X278848742Y-298501000D01*
X278671258Y-298501000D01*
X278646488Y-298496073D01*
X278497188Y-298466376D01*
X278333216Y-298398456D01*
X278185646Y-298299853D01*
X278060147Y-298174354D01*
X277961544Y-298026784D01*
X277893624Y-297862812D01*
X277859000Y-297688741D01*
X277859000Y-297511259D01*
X277893624Y-297337188D01*
X277961544Y-297173216D01*
X278060147Y-297025646D01*
X278185646Y-296900147D01*
X278333216Y-296801544D01*
X278497188Y-296733624D01*
X278646488Y-296703927D01*
X278671258Y-296699000D01*
X278848742Y-296699000D01*
X278873512Y-296703927D01*
G37*
G36*
X277121000Y-298501000D02*
G01*
X275319000Y-298501000D01*
X275319000Y-296699000D01*
X277121000Y-296699000D01*
X277121000Y-298501000D01*
G37*
G36*
X283953512Y-296703927D02*
G01*
X284102812Y-296733624D01*
X284266784Y-296801544D01*
X284414354Y-296900147D01*
X284539853Y-297025646D01*
X284638456Y-297173216D01*
X284706376Y-297337188D01*
X284741000Y-297511259D01*
X284741000Y-297688741D01*
X284706376Y-297862812D01*
X284638456Y-298026784D01*
X284539853Y-298174354D01*
X284414354Y-298299853D01*
X284266784Y-298398456D01*
X284102812Y-298466376D01*
X283953512Y-298496073D01*
X283928742Y-298501000D01*
X283751258Y-298501000D01*
X283726488Y-298496073D01*
X283577188Y-298466376D01*
X283413216Y-298398456D01*
X283265646Y-298299853D01*
X283140147Y-298174354D01*
X283041544Y-298026784D01*
X282973624Y-297862812D01*
X282939000Y-297688741D01*
X282939000Y-297511259D01*
X282973624Y-297337188D01*
X283041544Y-297173216D01*
X283140147Y-297025646D01*
X283265646Y-296900147D01*
X283413216Y-296801544D01*
X283577188Y-296733624D01*
X283726488Y-296703927D01*
X283751258Y-296699000D01*
X283928742Y-296699000D01*
X283953512Y-296703927D01*
G37*
G36*
X298026855Y-281038140D02*
G01*
X298090618Y-281044420D01*
X298181404Y-281071960D01*
X298213336Y-281081646D01*
X298326425Y-281142094D01*
X298425554Y-281223446D01*
X298506906Y-281322575D01*
X298567354Y-281435664D01*
X298567355Y-281435668D01*
X298604580Y-281558382D01*
X298617149Y-281686000D01*
X298604580Y-281813618D01*
X298577040Y-281904404D01*
X298567354Y-281936336D01*
X298506906Y-282049425D01*
X298425554Y-282148554D01*
X298326425Y-282229906D01*
X298213336Y-282290354D01*
X298181404Y-282300040D01*
X298090618Y-282327580D01*
X298026855Y-282333860D01*
X297994974Y-282337000D01*
X297381026Y-282337000D01*
X297349145Y-282333860D01*
X297285382Y-282327580D01*
X297194596Y-282300040D01*
X297162664Y-282290354D01*
X297049575Y-282229906D01*
X296950446Y-282148554D01*
X296869094Y-282049425D01*
X296808646Y-281936336D01*
X296798960Y-281904404D01*
X296771420Y-281813618D01*
X296758851Y-281686000D01*
X296771420Y-281558382D01*
X296808645Y-281435668D01*
X296808646Y-281435664D01*
X296869094Y-281322575D01*
X296950446Y-281223446D01*
X297049575Y-281142094D01*
X297162664Y-281081646D01*
X297194596Y-281071960D01*
X297285382Y-281044420D01*
X297349145Y-281038140D01*
X297381026Y-281035000D01*
X297994974Y-281035000D01*
X298026855Y-281038140D01*
G37*
G36*
X298026855Y-279038140D02*
G01*
X298090618Y-279044420D01*
X298181404Y-279071960D01*
X298213336Y-279081646D01*
X298326425Y-279142094D01*
X298425554Y-279223446D01*
X298506906Y-279322575D01*
X298567354Y-279435664D01*
X298567355Y-279435668D01*
X298604580Y-279558382D01*
X298617149Y-279686000D01*
X298604580Y-279813618D01*
X298577040Y-279904404D01*
X298567354Y-279936336D01*
X298506906Y-280049425D01*
X298425554Y-280148554D01*
X298326425Y-280229906D01*
X298213336Y-280290354D01*
X298181404Y-280300040D01*
X298090618Y-280327580D01*
X298026855Y-280333860D01*
X297994974Y-280337000D01*
X297381026Y-280337000D01*
X297349145Y-280333860D01*
X297285382Y-280327580D01*
X297194596Y-280300040D01*
X297162664Y-280290354D01*
X297049575Y-280229906D01*
X296950446Y-280148554D01*
X296869094Y-280049425D01*
X296808646Y-279936336D01*
X296798960Y-279904404D01*
X296771420Y-279813618D01*
X296758851Y-279686000D01*
X296771420Y-279558382D01*
X296808645Y-279435668D01*
X296808646Y-279435664D01*
X296869094Y-279322575D01*
X296950446Y-279223446D01*
X297049575Y-279142094D01*
X297162664Y-279081646D01*
X297194596Y-279071960D01*
X297285382Y-279044420D01*
X297349145Y-279038140D01*
X297381026Y-279035000D01*
X297994974Y-279035000D01*
X298026855Y-279038140D01*
G37*
G36*
X298454242Y-277039404D02*
G01*
X298491337Y-277050657D01*
X298525515Y-277068925D01*
X298555481Y-277093519D01*
X298580075Y-277123485D01*
X298598343Y-277157663D01*
X298609596Y-277194758D01*
X298614000Y-277239474D01*
X298614000Y-278132526D01*
X298609596Y-278177242D01*
X298598343Y-278214337D01*
X298580075Y-278248515D01*
X298555481Y-278278481D01*
X298525515Y-278303075D01*
X298491337Y-278321343D01*
X298454242Y-278332596D01*
X298409526Y-278337000D01*
X296966474Y-278337000D01*
X296921758Y-278332596D01*
X296884663Y-278321343D01*
X296850485Y-278303075D01*
X296820519Y-278278481D01*
X296795925Y-278248515D01*
X296777657Y-278214337D01*
X296766404Y-278177242D01*
X296762000Y-278132526D01*
X296762000Y-277239474D01*
X296766404Y-277194758D01*
X296777657Y-277157663D01*
X296795925Y-277123485D01*
X296820519Y-277093519D01*
X296850485Y-277068925D01*
X296884663Y-277050657D01*
X296921758Y-277039404D01*
X296966474Y-277035000D01*
X298409526Y-277035000D01*
X298454242Y-277039404D01*
G37*
G36*
X253321000Y-275261000D02*
G01*
X251519000Y-275261000D01*
X251519000Y-273459000D01*
X253321000Y-273459000D01*
X253321000Y-275261000D01*
G37*
G36*
X252533512Y-270923927D02*
G01*
X252682812Y-270953624D01*
X252846784Y-271021544D01*
X252994354Y-271120147D01*
X253119853Y-271245646D01*
X253218456Y-271393216D01*
X253286376Y-271557188D01*
X253321000Y-271731259D01*
X253321000Y-271908741D01*
X253286376Y-272082812D01*
X253218456Y-272246784D01*
X253119853Y-272394354D01*
X252994354Y-272519853D01*
X252846784Y-272618456D01*
X252682812Y-272686376D01*
X252533512Y-272716073D01*
X252508742Y-272721000D01*
X252331258Y-272721000D01*
X252306488Y-272716073D01*
X252157188Y-272686376D01*
X251993216Y-272618456D01*
X251845646Y-272519853D01*
X251720147Y-272394354D01*
X251621544Y-272246784D01*
X251553624Y-272082812D01*
X251519000Y-271908741D01*
X251519000Y-271731259D01*
X251553624Y-271557188D01*
X251621544Y-271393216D01*
X251720147Y-271245646D01*
X251845646Y-271120147D01*
X251993216Y-271021544D01*
X252157188Y-270953624D01*
X252306488Y-270923927D01*
X252331258Y-270919000D01*
X252508742Y-270919000D01*
X252533512Y-270923927D01*
G37*
G36*
X252533512Y-268383927D02*
G01*
X252682812Y-268413624D01*
X252846784Y-268481544D01*
X252994354Y-268580147D01*
X253119853Y-268705646D01*
X253218456Y-268853216D01*
X253286376Y-269017188D01*
X253321000Y-269191259D01*
X253321000Y-269368741D01*
X253286376Y-269542812D01*
X253218456Y-269706784D01*
X253119853Y-269854354D01*
X252994354Y-269979853D01*
X252846784Y-270078456D01*
X252682812Y-270146376D01*
X252533512Y-270176073D01*
X252508742Y-270181000D01*
X252331258Y-270181000D01*
X252306488Y-270176073D01*
X252157188Y-270146376D01*
X251993216Y-270078456D01*
X251845646Y-269979853D01*
X251720147Y-269854354D01*
X251621544Y-269706784D01*
X251553624Y-269542812D01*
X251519000Y-269368741D01*
X251519000Y-269191259D01*
X251553624Y-269017188D01*
X251621544Y-268853216D01*
X251720147Y-268705646D01*
X251845646Y-268580147D01*
X251993216Y-268481544D01*
X252157188Y-268413624D01*
X252306488Y-268383927D01*
X252331258Y-268379000D01*
X252508742Y-268379000D01*
X252533512Y-268383927D01*
G37*
G36*
X252533512Y-265843927D02*
G01*
X252682812Y-265873624D01*
X252846784Y-265941544D01*
X252994354Y-266040147D01*
X253119853Y-266165646D01*
X253218456Y-266313216D01*
X253286376Y-266477188D01*
X253321000Y-266651259D01*
X253321000Y-266828741D01*
X253286376Y-267002812D01*
X253218456Y-267166784D01*
X253119853Y-267314354D01*
X252994354Y-267439853D01*
X252846784Y-267538456D01*
X252682812Y-267606376D01*
X252533512Y-267636073D01*
X252508742Y-267641000D01*
X252331258Y-267641000D01*
X252306488Y-267636073D01*
X252157188Y-267606376D01*
X251993216Y-267538456D01*
X251845646Y-267439853D01*
X251720147Y-267314354D01*
X251621544Y-267166784D01*
X251553624Y-267002812D01*
X251519000Y-266828741D01*
X251519000Y-266651259D01*
X251553624Y-266477188D01*
X251621544Y-266313216D01*
X251720147Y-266165646D01*
X251845646Y-266040147D01*
X251993216Y-265941544D01*
X252157188Y-265873624D01*
X252306488Y-265843927D01*
X252331258Y-265839000D01*
X252508742Y-265839000D01*
X252533512Y-265843927D01*
G37*
G36*
X252533512Y-263303927D02*
G01*
X252682812Y-263333624D01*
X252846784Y-263401544D01*
X252994354Y-263500147D01*
X253119853Y-263625646D01*
X253218456Y-263773216D01*
X253286376Y-263937188D01*
X253321000Y-264111259D01*
X253321000Y-264288741D01*
X253286376Y-264462812D01*
X253218456Y-264626784D01*
X253119853Y-264774354D01*
X252994354Y-264899853D01*
X252846784Y-264998456D01*
X252682812Y-265066376D01*
X252533512Y-265096073D01*
X252508742Y-265101000D01*
X252331258Y-265101000D01*
X252306488Y-265096073D01*
X252157188Y-265066376D01*
X251993216Y-264998456D01*
X251845646Y-264899853D01*
X251720147Y-264774354D01*
X251621544Y-264626784D01*
X251553624Y-264462812D01*
X251519000Y-264288741D01*
X251519000Y-264111259D01*
X251553624Y-263937188D01*
X251621544Y-263773216D01*
X251720147Y-263625646D01*
X251845646Y-263500147D01*
X251993216Y-263401544D01*
X252157188Y-263333624D01*
X252306488Y-263303927D01*
X252331258Y-263299000D01*
X252508742Y-263299000D01*
X252533512Y-263303927D01*
G37*
G36*
X252533512Y-260763927D02*
G01*
X252682812Y-260793624D01*
X252846784Y-260861544D01*
X252994354Y-260960147D01*
X253119853Y-261085646D01*
X253218456Y-261233216D01*
X253286376Y-261397188D01*
X253321000Y-261571259D01*
X253321000Y-261748741D01*
X253286376Y-261922812D01*
X253218456Y-262086784D01*
X253119853Y-262234354D01*
X252994354Y-262359853D01*
X252846784Y-262458456D01*
X252682812Y-262526376D01*
X252533512Y-262556073D01*
X252508742Y-262561000D01*
X252331258Y-262561000D01*
X252306488Y-262556073D01*
X252157188Y-262526376D01*
X251993216Y-262458456D01*
X251845646Y-262359853D01*
X251720147Y-262234354D01*
X251621544Y-262086784D01*
X251553624Y-261922812D01*
X251519000Y-261748741D01*
X251519000Y-261571259D01*
X251553624Y-261397188D01*
X251621544Y-261233216D01*
X251720147Y-261085646D01*
X251845646Y-260960147D01*
X251993216Y-260861544D01*
X252157188Y-260793624D01*
X252306488Y-260763927D01*
X252331258Y-260759000D01*
X252508742Y-260759000D01*
X252533512Y-260763927D01*
G37*
G36*
X252533512Y-258223927D02*
G01*
X252682812Y-258253624D01*
X252846784Y-258321544D01*
X252994354Y-258420147D01*
X253119853Y-258545646D01*
X253218456Y-258693216D01*
X253286376Y-258857188D01*
X253321000Y-259031259D01*
X253321000Y-259208741D01*
X253286376Y-259382812D01*
X253218456Y-259546784D01*
X253119853Y-259694354D01*
X252994354Y-259819853D01*
X252846784Y-259918456D01*
X252682812Y-259986376D01*
X252533512Y-260016073D01*
X252508742Y-260021000D01*
X252331258Y-260021000D01*
X252306488Y-260016073D01*
X252157188Y-259986376D01*
X251993216Y-259918456D01*
X251845646Y-259819853D01*
X251720147Y-259694354D01*
X251621544Y-259546784D01*
X251553624Y-259382812D01*
X251519000Y-259208741D01*
X251519000Y-259031259D01*
X251553624Y-258857188D01*
X251621544Y-258693216D01*
X251720147Y-258545646D01*
X251845646Y-258420147D01*
X251993216Y-258321544D01*
X252157188Y-258253624D01*
X252306488Y-258223927D01*
X252331258Y-258219000D01*
X252508742Y-258219000D01*
X252533512Y-258223927D01*
G37*
G36*
X252533512Y-255683927D02*
G01*
X252682812Y-255713624D01*
X252846784Y-255781544D01*
X252994354Y-255880147D01*
X253119853Y-256005646D01*
X253218456Y-256153216D01*
X253286376Y-256317188D01*
X253321000Y-256491259D01*
X253321000Y-256668741D01*
X253286376Y-256842812D01*
X253218456Y-257006784D01*
X253119853Y-257154354D01*
X252994354Y-257279853D01*
X252846784Y-257378456D01*
X252682812Y-257446376D01*
X252533512Y-257476073D01*
X252508742Y-257481000D01*
X252331258Y-257481000D01*
X252306488Y-257476073D01*
X252157188Y-257446376D01*
X251993216Y-257378456D01*
X251845646Y-257279853D01*
X251720147Y-257154354D01*
X251621544Y-257006784D01*
X251553624Y-256842812D01*
X251519000Y-256668741D01*
X251519000Y-256491259D01*
X251553624Y-256317188D01*
X251621544Y-256153216D01*
X251720147Y-256005646D01*
X251845646Y-255880147D01*
X251993216Y-255781544D01*
X252157188Y-255713624D01*
X252306488Y-255683927D01*
X252331258Y-255679000D01*
X252508742Y-255679000D01*
X252533512Y-255683927D01*
G37*
G36*
X252533512Y-253143927D02*
G01*
X252682812Y-253173624D01*
X252846784Y-253241544D01*
X252994354Y-253340147D01*
X253119853Y-253465646D01*
X253218456Y-253613216D01*
X253286376Y-253777188D01*
X253321000Y-253951259D01*
X253321000Y-254128741D01*
X253286376Y-254302812D01*
X253218456Y-254466784D01*
X253119853Y-254614354D01*
X252994354Y-254739853D01*
X252846784Y-254838456D01*
X252682812Y-254906376D01*
X252533512Y-254936073D01*
X252508742Y-254941000D01*
X252331258Y-254941000D01*
X252306488Y-254936073D01*
X252157188Y-254906376D01*
X251993216Y-254838456D01*
X251845646Y-254739853D01*
X251720147Y-254614354D01*
X251621544Y-254466784D01*
X251553624Y-254302812D01*
X251519000Y-254128741D01*
X251519000Y-253951259D01*
X251553624Y-253777188D01*
X251621544Y-253613216D01*
X251720147Y-253465646D01*
X251845646Y-253340147D01*
X251993216Y-253241544D01*
X252157188Y-253173624D01*
X252306488Y-253143927D01*
X252331258Y-253139000D01*
X252508742Y-253139000D01*
X252533512Y-253143927D01*
G37*
G36*
X292001552Y-245556331D02*
G01*
X292083627Y-245590328D01*
X292083629Y-245590329D01*
X292120813Y-245615175D01*
X292157495Y-245639685D01*
X292220315Y-245702505D01*
X292269672Y-245776373D01*
X292303669Y-245858448D01*
X292321000Y-245945579D01*
X292321000Y-246034421D01*
X292303669Y-246121552D01*
X292269672Y-246203627D01*
X292220399Y-246277370D01*
X292220314Y-246277496D01*
X292157496Y-246340314D01*
X292083629Y-246389671D01*
X292083628Y-246389672D01*
X292083627Y-246389672D01*
X292001552Y-246423669D01*
X291914421Y-246441000D01*
X291825579Y-246441000D01*
X291738448Y-246423669D01*
X291656373Y-246389672D01*
X291656372Y-246389672D01*
X291656371Y-246389671D01*
X291582504Y-246340314D01*
X291566952Y-246324762D01*
X291548010Y-246309217D01*
X291526399Y-246297666D01*
X291502950Y-246290553D01*
X291478564Y-246288151D01*
X291454178Y-246290553D01*
X291430729Y-246297666D01*
X291409118Y-246309217D01*
X291390176Y-246324762D01*
X291374631Y-246343704D01*
X291363080Y-246365315D01*
X291355967Y-246388764D01*
X291353565Y-246413150D01*
X291355967Y-246437536D01*
X291363080Y-246460985D01*
X291364796Y-246464614D01*
X291409772Y-246612879D01*
X291421000Y-246726882D01*
X291421000Y-247353118D01*
X291409772Y-247467121D01*
X291365398Y-247613402D01*
X291293345Y-247748204D01*
X291196367Y-247866372D01*
X291078206Y-247963343D01*
X290943401Y-248035398D01*
X290797120Y-248079772D01*
X290645000Y-248094754D01*
X290492879Y-248079772D01*
X290346598Y-248035398D01*
X290211796Y-247963345D01*
X290093628Y-247866367D01*
X289996657Y-247748206D01*
X289924602Y-247613401D01*
X289880228Y-247467120D01*
X289869000Y-247353117D01*
X289869000Y-246726882D01*
X289880228Y-246612879D01*
X289924601Y-246466600D01*
X289996657Y-246331794D01*
X290093632Y-246213631D01*
X290135363Y-246179383D01*
X290211793Y-246116658D01*
X290211794Y-246116657D01*
X290211797Y-246116655D01*
X290346599Y-246044602D01*
X290492880Y-246000228D01*
X290645000Y-245985246D01*
X290797121Y-246000228D01*
X290943402Y-246044602D01*
X291078204Y-246116655D01*
X291196372Y-246213633D01*
X291223288Y-246246430D01*
X291240615Y-246263757D01*
X291260989Y-246277370D01*
X291283628Y-246286748D01*
X291307661Y-246291528D01*
X291332165Y-246291528D01*
X291356199Y-246286748D01*
X291378837Y-246277370D01*
X291399212Y-246263756D01*
X291416539Y-246246429D01*
X291430152Y-246226055D01*
X291439530Y-246203416D01*
X291444310Y-246179383D01*
X291444310Y-246154879D01*
X291439530Y-246130845D01*
X291436490Y-246122351D01*
X291419000Y-246034421D01*
X291419000Y-245945579D01*
X291436331Y-245858448D01*
X291470328Y-245776373D01*
X291519685Y-245702505D01*
X291582505Y-245639685D01*
X291619187Y-245615175D01*
X291656371Y-245590329D01*
X291656373Y-245590328D01*
X291738448Y-245556331D01*
X291825579Y-245539000D01*
X291914421Y-245539000D01*
X292001552Y-245556331D01*
G37*
G36*
X297001552Y-245556331D02*
G01*
X297083627Y-245590328D01*
X297083629Y-245590329D01*
X297120813Y-245615175D01*
X297157495Y-245639685D01*
X297220315Y-245702505D01*
X297269672Y-245776373D01*
X297303669Y-245858448D01*
X297321000Y-245945579D01*
X297321000Y-246034421D01*
X297303193Y-246123946D01*
X297297490Y-246142743D01*
X297295087Y-246167129D01*
X297297488Y-246191515D01*
X297304600Y-246214964D01*
X297316151Y-246236575D01*
X297331695Y-246255518D01*
X297350637Y-246271063D01*
X297372247Y-246282615D01*
X297395696Y-246289729D01*
X297420082Y-246292132D01*
X297444468Y-246289731D01*
X297467917Y-246282619D01*
X297489528Y-246271068D01*
X297508471Y-246255524D01*
X297516711Y-246246432D01*
X297543628Y-246213634D01*
X297661797Y-246116655D01*
X297796599Y-246044602D01*
X297942880Y-246000228D01*
X298095000Y-245985246D01*
X298247121Y-246000228D01*
X298393402Y-246044602D01*
X298528204Y-246116655D01*
X298528207Y-246116657D01*
X298528208Y-246116658D01*
X298646369Y-246213631D01*
X298737573Y-246324762D01*
X298743345Y-246331796D01*
X298815398Y-246466598D01*
X298859772Y-246612879D01*
X298871000Y-246726882D01*
X298871000Y-247353118D01*
X298859772Y-247467121D01*
X298815398Y-247613402D01*
X298743345Y-247748204D01*
X298646367Y-247866372D01*
X298528206Y-247963343D01*
X298393401Y-248035398D01*
X298247120Y-248079772D01*
X298095000Y-248094754D01*
X297942879Y-248079772D01*
X297796598Y-248035398D01*
X297661796Y-247963345D01*
X297543628Y-247866367D01*
X297446657Y-247748206D01*
X297374602Y-247613401D01*
X297330228Y-247467120D01*
X297319000Y-247353117D01*
X297319000Y-246726882D01*
X297330228Y-246612879D01*
X297376402Y-246460664D01*
X297381052Y-246449439D01*
X297385833Y-246425405D01*
X297385833Y-246400901D01*
X297381054Y-246376868D01*
X297371677Y-246354229D01*
X297358064Y-246333854D01*
X297340737Y-246316527D01*
X297320363Y-246302912D01*
X297297725Y-246293534D01*
X297273691Y-246288753D01*
X297249187Y-246288753D01*
X297225154Y-246293532D01*
X297202515Y-246302909D01*
X297182140Y-246316522D01*
X297173048Y-246324762D01*
X297157496Y-246340314D01*
X297083629Y-246389671D01*
X297083628Y-246389672D01*
X297083627Y-246389672D01*
X297001552Y-246423669D01*
X296914421Y-246441000D01*
X296825579Y-246441000D01*
X296738448Y-246423669D01*
X296656373Y-246389672D01*
X296656372Y-246389672D01*
X296656371Y-246389671D01*
X296582504Y-246340314D01*
X296519686Y-246277496D01*
X296519602Y-246277370D01*
X296470328Y-246203627D01*
X296436331Y-246121552D01*
X296419000Y-246034421D01*
X296419000Y-245945579D01*
X296436331Y-245858448D01*
X296470328Y-245776373D01*
X296519685Y-245702505D01*
X296582505Y-245639685D01*
X296619187Y-245615175D01*
X296656371Y-245590329D01*
X296656373Y-245590328D01*
X296738448Y-245556331D01*
X296825579Y-245539000D01*
X296914421Y-245539000D01*
X297001552Y-245556331D01*
G37*
G36*
X290617715Y-242298058D02*
G01*
X290735722Y-242333855D01*
X290844468Y-242391981D01*
X290939790Y-242470210D01*
X291018019Y-242565532D01*
X291076145Y-242674278D01*
X291111942Y-242792285D01*
X291121000Y-242884254D01*
X291121000Y-243595746D01*
X291111942Y-243687715D01*
X291076145Y-243805722D01*
X291018019Y-243914468D01*
X290939790Y-244009790D01*
X290844468Y-244088019D01*
X290735721Y-244146145D01*
X290617714Y-244181942D01*
X290495000Y-244194028D01*
X290372285Y-244181942D01*
X290254278Y-244146145D01*
X290145532Y-244088019D01*
X290050210Y-244009790D01*
X289971981Y-243914468D01*
X289913855Y-243805721D01*
X289878058Y-243687714D01*
X289869000Y-243595745D01*
X289869000Y-242884254D01*
X289878058Y-242792285D01*
X289913855Y-242674279D01*
X289971982Y-242565532D01*
X290050211Y-242470210D01*
X290145533Y-242391981D01*
X290254279Y-242333855D01*
X290372286Y-242298058D01*
X290495000Y-242285972D01*
X290617715Y-242298058D01*
G37*
G36*
X298367715Y-242298058D02*
G01*
X298485722Y-242333855D01*
X298594468Y-242391981D01*
X298689790Y-242470210D01*
X298768019Y-242565532D01*
X298826145Y-242674278D01*
X298861942Y-242792285D01*
X298871000Y-242884254D01*
X298871000Y-243595746D01*
X298861942Y-243687715D01*
X298826145Y-243805722D01*
X298768019Y-243914468D01*
X298689790Y-244009790D01*
X298594468Y-244088019D01*
X298485721Y-244146145D01*
X298367714Y-244181942D01*
X298245000Y-244194028D01*
X298122285Y-244181942D01*
X298004278Y-244146145D01*
X297895532Y-244088019D01*
X297800210Y-244009790D01*
X297721981Y-243914468D01*
X297663855Y-243805721D01*
X297628058Y-243687714D01*
X297619000Y-243595745D01*
X297619000Y-242884254D01*
X297628058Y-242792285D01*
X297663855Y-242674279D01*
X297721982Y-242565532D01*
X297800211Y-242470210D01*
X297895533Y-242391981D01*
X298004279Y-242333855D01*
X298122286Y-242298058D01*
X298245000Y-242285972D01*
X298367715Y-242298058D01*
G37*
M02*
