M48
; DRILL file {KiCad 5.1.5-52549c5~84~ubuntu18.04.1} date fre 14 feb 2020 13:22:20
; FORMAT={-:-/ absolute / metric / decimal}
; #@! TF.CreationDate,2020-02-14T13:22:20+01:00
; #@! TF.GenerationSoftware,Kicad,Pcbnew,5.1.5-52549c5~84~ubuntu18.04.1
; #@! TF.FileFunction,Plated,1,2,PTH
FMAT,2
METRIC
T1C0.300
T2C0.400
T3C0.550
T4C0.750
T5C0.850
T6C1.000
%
G90
G05
T1
X255.82Y-247.63
X260.35Y-281.94
X260.67Y-283.74
X266.821Y-277.501
X268.22Y-283.32
X273.41Y-286.17
X274.682Y-271.898
X275.26Y-260.34
X277.622Y-288.29
X277.882Y-271.968
X279.64Y-294.76
X280.73Y-267.22
X280.99Y-250.84
X282.03Y-289.57
X283.71Y-276.89
X283.81Y-294.97
X283.97Y-278.0
X286.215Y-281.475
X287.51Y-287.29
X287.782Y-292.1
X289.052Y-298.196
X290.322Y-291.846
X293.59Y-249.87
T2
X251.83Y-290.11
X255.15Y-298.75
X256.5Y-290.81
X261.79Y-284.89
X277.94Y-285.53
T4
X297.688Y-277.686
X297.688Y-279.686
X297.688Y-281.686
T6
X252.42Y-254.04
X252.42Y-256.58
X252.42Y-259.12
X252.42Y-261.66
X252.42Y-264.2
X252.42Y-266.74
X252.42Y-269.28
X252.42Y-271.82
X252.42Y-274.36
X276.22Y-297.6
X278.76Y-297.6
X281.3Y-297.6
X283.84Y-297.6
X286.38Y-297.6
T3
G00X290.495Y-243.565
M15
G01X290.495Y-242.915
M16
G05
G00X298.245Y-243.565
M15
G01X298.245Y-242.915
M16
G05
T5
G00X290.645Y-247.315
M15
G01X290.645Y-246.765
M16
G05
G00X298.095Y-247.315
M15
G01X298.095Y-246.765
M16
G05
T0
M30
