G04 #@! TF.GenerationSoftware,KiCad,Pcbnew,5.1.5-52549c5~84~ubuntu18.04.1*
G04 #@! TF.CreationDate,2020-02-03T11:01:42+01:00*
G04 #@! TF.ProjectId,lab1,6c616231-2e6b-4696-9361-645f70636258,rev?*
G04 #@! TF.SameCoordinates,Original*
G04 #@! TF.FileFunction,Copper,L2,Bot*
G04 #@! TF.FilePolarity,Positive*
%FSLAX46Y46*%
G04 Gerber Fmt 4.6, Leading zero omitted, Abs format (unit mm)*
G04 Created by KiCad (PCBNEW 5.1.5-52549c5~84~ubuntu18.04.1) date 2020-02-03 11:01:42*
%MOMM*%
%LPD*%
G04 APERTURE LIST*
%ADD10O,1.700000X1.700000*%
%ADD11R,1.700000X1.700000*%
%ADD12C,1.500000*%
%ADD13C,0.800000*%
%ADD14C,0.500000*%
%ADD15C,0.200000*%
%ADD16C,0.254000*%
G04 APERTURE END LIST*
D10*
X278160000Y-232000000D03*
X275620000Y-232000000D03*
X273080000Y-232000000D03*
X270540000Y-232000000D03*
D11*
X268000000Y-232000000D03*
D12*
X266000000Y-242000000D03*
X270880000Y-242000000D03*
D13*
X281400000Y-233000000D03*
X262800000Y-247000000D03*
X262800000Y-250300000D03*
X267700000Y-234600000D03*
X281600000Y-261400000D03*
X287100000Y-268100000D03*
X270437296Y-244953249D03*
X270500000Y-234400000D03*
X269600000Y-245500000D03*
X266500000Y-245500000D03*
X255800000Y-246600000D03*
X262300000Y-254300000D03*
X278200000Y-256300000D03*
X271200000Y-245600000D03*
X274800000Y-238200000D03*
D14*
X281000001Y-233399999D02*
X281400000Y-233000000D01*
X262800000Y-247000000D02*
X262800000Y-250300000D01*
X267700000Y-234600000D02*
X268900001Y-233399999D01*
X268900001Y-233399999D02*
X281000001Y-233399999D01*
X281600000Y-261400000D02*
X287100000Y-266900000D01*
X287100000Y-266900000D02*
X287100000Y-268100000D01*
D15*
X269829999Y-235070001D02*
X269829999Y-244693997D01*
X270500000Y-234400000D02*
X269829999Y-235070001D01*
X269829999Y-244693997D02*
X270089251Y-244953249D01*
X270089251Y-244953249D02*
X270437296Y-244953249D01*
X266500000Y-245500000D02*
X269600000Y-245500000D01*
X274800000Y-242000000D02*
X271200000Y-245600000D01*
X274800000Y-238200000D02*
X274800000Y-242000000D01*
D16*
G36*
X290315001Y-268315000D02*
G01*
X288112511Y-268315000D01*
X288135000Y-268201939D01*
X288135000Y-267998061D01*
X288095226Y-267798102D01*
X288017205Y-267609744D01*
X287985000Y-267561546D01*
X287985000Y-266943469D01*
X287989281Y-266900000D01*
X287985000Y-266856531D01*
X287985000Y-266856523D01*
X287972195Y-266726510D01*
X287921589Y-266559686D01*
X287839411Y-266405941D01*
X287756532Y-266304953D01*
X287756530Y-266304951D01*
X287728817Y-266271183D01*
X287695051Y-266243472D01*
X282606535Y-261154957D01*
X282595226Y-261098102D01*
X282517205Y-260909744D01*
X282403937Y-260740226D01*
X282259774Y-260596063D01*
X282090256Y-260482795D01*
X281901898Y-260404774D01*
X281701939Y-260365000D01*
X281498061Y-260365000D01*
X281298102Y-260404774D01*
X281109744Y-260482795D01*
X280940226Y-260596063D01*
X280796063Y-260740226D01*
X280682795Y-260909744D01*
X280604774Y-261098102D01*
X280565000Y-261298061D01*
X280565000Y-261501939D01*
X280604774Y-261701898D01*
X280682795Y-261890256D01*
X280796063Y-262059774D01*
X280940226Y-262203937D01*
X281109744Y-262317205D01*
X281298102Y-262395226D01*
X281354957Y-262406535D01*
X286215000Y-267266579D01*
X286215001Y-267561545D01*
X286182795Y-267609744D01*
X286104774Y-267798102D01*
X286065000Y-267998061D01*
X286065000Y-268201939D01*
X286087489Y-268315000D01*
X251685000Y-268315000D01*
X251685000Y-264093137D01*
X256915000Y-264093137D01*
X256915000Y-264306863D01*
X256956696Y-264516483D01*
X257038485Y-264713940D01*
X257157225Y-264891647D01*
X257308353Y-265042775D01*
X257486060Y-265161515D01*
X257683517Y-265243304D01*
X257893137Y-265285000D01*
X258106863Y-265285000D01*
X258316483Y-265243304D01*
X258513940Y-265161515D01*
X258691647Y-265042775D01*
X258842775Y-264891647D01*
X258961515Y-264713940D01*
X259043304Y-264516483D01*
X259085000Y-264306863D01*
X259085000Y-264093137D01*
X259043304Y-263883517D01*
X258961515Y-263686060D01*
X258842775Y-263508353D01*
X258691647Y-263357225D01*
X258513940Y-263238485D01*
X258316483Y-263156696D01*
X258106863Y-263115000D01*
X257893137Y-263115000D01*
X257683517Y-263156696D01*
X257486060Y-263238485D01*
X257308353Y-263357225D01*
X257157225Y-263508353D01*
X257038485Y-263686060D01*
X256956696Y-263883517D01*
X256915000Y-264093137D01*
X251685000Y-264093137D01*
X251685000Y-259693137D01*
X256915000Y-259693137D01*
X256915000Y-259906863D01*
X256956696Y-260116483D01*
X257038485Y-260313940D01*
X257157225Y-260491647D01*
X257308353Y-260642775D01*
X257486060Y-260761515D01*
X257683517Y-260843304D01*
X257893137Y-260885000D01*
X258106863Y-260885000D01*
X258316483Y-260843304D01*
X258513940Y-260761515D01*
X258691647Y-260642775D01*
X258842775Y-260491647D01*
X258961515Y-260313940D01*
X259043304Y-260116483D01*
X259085000Y-259906863D01*
X259085000Y-259693137D01*
X259043304Y-259483517D01*
X258961515Y-259286060D01*
X258842775Y-259108353D01*
X258691647Y-258957225D01*
X258513940Y-258838485D01*
X258316483Y-258756696D01*
X258106863Y-258715000D01*
X257893137Y-258715000D01*
X257683517Y-258756696D01*
X257486060Y-258838485D01*
X257308353Y-258957225D01*
X257157225Y-259108353D01*
X257038485Y-259286060D01*
X256956696Y-259483517D01*
X256915000Y-259693137D01*
X251685000Y-259693137D01*
X251685000Y-246898061D01*
X261765000Y-246898061D01*
X261765000Y-247101939D01*
X261804774Y-247301898D01*
X261882795Y-247490256D01*
X261915000Y-247538455D01*
X261915001Y-249761544D01*
X261882795Y-249809744D01*
X261804774Y-249998102D01*
X261765000Y-250198061D01*
X261765000Y-250401939D01*
X261804774Y-250601898D01*
X261882795Y-250790256D01*
X261996063Y-250959774D01*
X262140226Y-251103937D01*
X262309744Y-251217205D01*
X262498102Y-251295226D01*
X262698061Y-251335000D01*
X262901939Y-251335000D01*
X263101898Y-251295226D01*
X263290256Y-251217205D01*
X263459774Y-251103937D01*
X263603937Y-250959774D01*
X263717205Y-250790256D01*
X263795226Y-250601898D01*
X263835000Y-250401939D01*
X263835000Y-250198061D01*
X263795226Y-249998102D01*
X263717205Y-249809744D01*
X263685000Y-249761546D01*
X263685000Y-247538454D01*
X263717205Y-247490256D01*
X263795226Y-247301898D01*
X263835000Y-247101939D01*
X263835000Y-246898061D01*
X263795226Y-246698102D01*
X263717205Y-246509744D01*
X263603937Y-246340226D01*
X263459774Y-246196063D01*
X263290256Y-246082795D01*
X263101898Y-246004774D01*
X262901939Y-245965000D01*
X262698061Y-245965000D01*
X262498102Y-246004774D01*
X262309744Y-246082795D01*
X262140226Y-246196063D01*
X261996063Y-246340226D01*
X261882795Y-246509744D01*
X261804774Y-246698102D01*
X261765000Y-246898061D01*
X251685000Y-246898061D01*
X251685000Y-245398061D01*
X265465000Y-245398061D01*
X265465000Y-245601939D01*
X265504774Y-245801898D01*
X265582795Y-245990256D01*
X265696063Y-246159774D01*
X265840226Y-246303937D01*
X266009744Y-246417205D01*
X266198102Y-246495226D01*
X266398061Y-246535000D01*
X266601939Y-246535000D01*
X266801898Y-246495226D01*
X266990256Y-246417205D01*
X267159774Y-246303937D01*
X267228711Y-246235000D01*
X268871289Y-246235000D01*
X268940226Y-246303937D01*
X269109744Y-246417205D01*
X269298102Y-246495226D01*
X269498061Y-246535000D01*
X269701939Y-246535000D01*
X269901898Y-246495226D01*
X270090256Y-246417205D01*
X270259774Y-246303937D01*
X270359163Y-246204548D01*
X270396063Y-246259774D01*
X270540226Y-246403937D01*
X270709744Y-246517205D01*
X270898102Y-246595226D01*
X271098061Y-246635000D01*
X271301939Y-246635000D01*
X271501898Y-246595226D01*
X271690256Y-246517205D01*
X271859774Y-246403937D01*
X272003937Y-246259774D01*
X272117205Y-246090256D01*
X272195226Y-245901898D01*
X272235000Y-245701939D01*
X272235000Y-245604446D01*
X275294193Y-242545254D01*
X275322238Y-242522238D01*
X275414087Y-242410320D01*
X275482337Y-242282633D01*
X275524365Y-242144085D01*
X275535000Y-242036105D01*
X275538556Y-242000000D01*
X275535000Y-241963895D01*
X275535000Y-238928711D01*
X275603937Y-238859774D01*
X275717205Y-238690256D01*
X275795226Y-238501898D01*
X275835000Y-238301939D01*
X275835000Y-238098061D01*
X275795226Y-237898102D01*
X275717205Y-237709744D01*
X275603937Y-237540226D01*
X275459774Y-237396063D01*
X275290256Y-237282795D01*
X275101898Y-237204774D01*
X274901939Y-237165000D01*
X274698061Y-237165000D01*
X274498102Y-237204774D01*
X274309744Y-237282795D01*
X274140226Y-237396063D01*
X273996063Y-237540226D01*
X273882795Y-237709744D01*
X273804774Y-237898102D01*
X273765000Y-238098061D01*
X273765000Y-238301939D01*
X273804774Y-238501898D01*
X273882795Y-238690256D01*
X273996063Y-238859774D01*
X274065000Y-238928711D01*
X274065001Y-241695552D01*
X271331694Y-244428860D01*
X271241233Y-244293475D01*
X271097070Y-244149312D01*
X270927552Y-244036044D01*
X270739194Y-243958023D01*
X270564999Y-243923374D01*
X270564999Y-243349476D01*
X270743589Y-243385000D01*
X271016411Y-243385000D01*
X271283989Y-243331775D01*
X271536043Y-243227371D01*
X271762886Y-243075799D01*
X271955799Y-242882886D01*
X272107371Y-242656043D01*
X272211775Y-242403989D01*
X272265000Y-242136411D01*
X272265000Y-241863589D01*
X272211775Y-241596011D01*
X272107371Y-241343957D01*
X271955799Y-241117114D01*
X271762886Y-240924201D01*
X271536043Y-240772629D01*
X271283989Y-240668225D01*
X271016411Y-240615000D01*
X270743589Y-240615000D01*
X270564999Y-240650524D01*
X270564999Y-235435000D01*
X270601939Y-235435000D01*
X270801898Y-235395226D01*
X270990256Y-235317205D01*
X271159774Y-235203937D01*
X271303937Y-235059774D01*
X271417205Y-234890256D01*
X271495226Y-234701898D01*
X271535000Y-234501939D01*
X271535000Y-234298061D01*
X271532402Y-234284999D01*
X280956532Y-234284999D01*
X281000001Y-234289280D01*
X281043470Y-234284999D01*
X281043478Y-234284999D01*
X281173491Y-234272194D01*
X281340314Y-234221588D01*
X281494060Y-234139410D01*
X281628818Y-234028816D01*
X281647506Y-234006045D01*
X281701898Y-233995226D01*
X281890256Y-233917205D01*
X282059774Y-233803937D01*
X282203937Y-233659774D01*
X282317205Y-233490256D01*
X282395226Y-233301898D01*
X282435000Y-233101939D01*
X282435000Y-232898061D01*
X282395226Y-232698102D01*
X282317205Y-232509744D01*
X282203937Y-232340226D01*
X282059774Y-232196063D01*
X281890256Y-232082795D01*
X281701898Y-232004774D01*
X281501939Y-231965000D01*
X281298061Y-231965000D01*
X281098102Y-232004774D01*
X280909744Y-232082795D01*
X280740226Y-232196063D01*
X280596063Y-232340226D01*
X280482795Y-232509744D01*
X280480618Y-232514999D01*
X279554032Y-232514999D01*
X279587932Y-232433158D01*
X279645000Y-232146260D01*
X279645000Y-231853740D01*
X279587932Y-231566842D01*
X279475990Y-231296589D01*
X279313475Y-231053368D01*
X279106632Y-230846525D01*
X278863411Y-230684010D01*
X278593158Y-230572068D01*
X278306260Y-230515000D01*
X278013740Y-230515000D01*
X277726842Y-230572068D01*
X277456589Y-230684010D01*
X277213368Y-230846525D01*
X277006525Y-231053368D01*
X276890000Y-231227760D01*
X276773475Y-231053368D01*
X276566632Y-230846525D01*
X276323411Y-230684010D01*
X276053158Y-230572068D01*
X275766260Y-230515000D01*
X275473740Y-230515000D01*
X275186842Y-230572068D01*
X274916589Y-230684010D01*
X274673368Y-230846525D01*
X274466525Y-231053368D01*
X274344805Y-231235534D01*
X274275178Y-231118645D01*
X274080269Y-230902412D01*
X273846920Y-230728359D01*
X273584099Y-230603175D01*
X273436890Y-230558524D01*
X273207000Y-230679845D01*
X273207000Y-231873000D01*
X273227000Y-231873000D01*
X273227000Y-232127000D01*
X273207000Y-232127000D01*
X273207000Y-232147000D01*
X272953000Y-232147000D01*
X272953000Y-232127000D01*
X272933000Y-232127000D01*
X272933000Y-231873000D01*
X272953000Y-231873000D01*
X272953000Y-230679845D01*
X272723110Y-230558524D01*
X272575901Y-230603175D01*
X272313080Y-230728359D01*
X272079731Y-230902412D01*
X271884822Y-231118645D01*
X271815195Y-231235534D01*
X271693475Y-231053368D01*
X271486632Y-230846525D01*
X271243411Y-230684010D01*
X270973158Y-230572068D01*
X270686260Y-230515000D01*
X270393740Y-230515000D01*
X270106842Y-230572068D01*
X269836589Y-230684010D01*
X269593368Y-230846525D01*
X269461513Y-230978380D01*
X269439502Y-230905820D01*
X269380537Y-230795506D01*
X269301185Y-230698815D01*
X269204494Y-230619463D01*
X269094180Y-230560498D01*
X268974482Y-230524188D01*
X268850000Y-230511928D01*
X267150000Y-230511928D01*
X267025518Y-230524188D01*
X266905820Y-230560498D01*
X266795506Y-230619463D01*
X266698815Y-230698815D01*
X266619463Y-230795506D01*
X266560498Y-230905820D01*
X266524188Y-231025518D01*
X266511928Y-231150000D01*
X266511928Y-232850000D01*
X266524188Y-232974482D01*
X266560498Y-233094180D01*
X266619463Y-233204494D01*
X266698815Y-233301185D01*
X266795506Y-233380537D01*
X266905820Y-233439502D01*
X267025518Y-233475812D01*
X267150000Y-233488072D01*
X267560350Y-233488072D01*
X267454957Y-233593465D01*
X267398102Y-233604774D01*
X267209744Y-233682795D01*
X267040226Y-233796063D01*
X266896063Y-233940226D01*
X266782795Y-234109744D01*
X266704774Y-234298102D01*
X266665000Y-234498061D01*
X266665000Y-234701939D01*
X266704774Y-234901898D01*
X266782795Y-235090256D01*
X266896063Y-235259774D01*
X267040226Y-235403937D01*
X267209744Y-235517205D01*
X267398102Y-235595226D01*
X267598061Y-235635000D01*
X267801939Y-235635000D01*
X268001898Y-235595226D01*
X268190256Y-235517205D01*
X268359774Y-235403937D01*
X268503937Y-235259774D01*
X268617205Y-235090256D01*
X268695226Y-234901898D01*
X268706535Y-234845043D01*
X269266580Y-234284999D01*
X269467598Y-234284999D01*
X269465000Y-234298061D01*
X269465000Y-234395554D01*
X269335807Y-234524747D01*
X269307761Y-234547764D01*
X269215912Y-234659682D01*
X269147662Y-234787369D01*
X269140700Y-234810320D01*
X269105634Y-234925916D01*
X269091443Y-235070001D01*
X269094999Y-235106106D01*
X269095000Y-244592647D01*
X268940226Y-244696063D01*
X268871289Y-244765000D01*
X267228711Y-244765000D01*
X267159774Y-244696063D01*
X266990256Y-244582795D01*
X266801898Y-244504774D01*
X266601939Y-244465000D01*
X266398061Y-244465000D01*
X266198102Y-244504774D01*
X266009744Y-244582795D01*
X265840226Y-244696063D01*
X265696063Y-244840226D01*
X265582795Y-245009744D01*
X265504774Y-245198102D01*
X265465000Y-245398061D01*
X251685000Y-245398061D01*
X251685000Y-241863589D01*
X264615000Y-241863589D01*
X264615000Y-242136411D01*
X264668225Y-242403989D01*
X264772629Y-242656043D01*
X264924201Y-242882886D01*
X265117114Y-243075799D01*
X265343957Y-243227371D01*
X265596011Y-243331775D01*
X265863589Y-243385000D01*
X266136411Y-243385000D01*
X266403989Y-243331775D01*
X266656043Y-243227371D01*
X266882886Y-243075799D01*
X267075799Y-242882886D01*
X267227371Y-242656043D01*
X267331775Y-242403989D01*
X267385000Y-242136411D01*
X267385000Y-241863589D01*
X267331775Y-241596011D01*
X267227371Y-241343957D01*
X267075799Y-241117114D01*
X266882886Y-240924201D01*
X266656043Y-240772629D01*
X266403989Y-240668225D01*
X266136411Y-240615000D01*
X265863589Y-240615000D01*
X265596011Y-240668225D01*
X265343957Y-240772629D01*
X265117114Y-240924201D01*
X264924201Y-241117114D01*
X264772629Y-241343957D01*
X264668225Y-241596011D01*
X264615000Y-241863589D01*
X251685000Y-241863589D01*
X251685000Y-229685000D01*
X290315000Y-229685000D01*
X290315001Y-268315000D01*
G37*
X290315001Y-268315000D02*
X288112511Y-268315000D01*
X288135000Y-268201939D01*
X288135000Y-267998061D01*
X288095226Y-267798102D01*
X288017205Y-267609744D01*
X287985000Y-267561546D01*
X287985000Y-266943469D01*
X287989281Y-266900000D01*
X287985000Y-266856531D01*
X287985000Y-266856523D01*
X287972195Y-266726510D01*
X287921589Y-266559686D01*
X287839411Y-266405941D01*
X287756532Y-266304953D01*
X287756530Y-266304951D01*
X287728817Y-266271183D01*
X287695051Y-266243472D01*
X282606535Y-261154957D01*
X282595226Y-261098102D01*
X282517205Y-260909744D01*
X282403937Y-260740226D01*
X282259774Y-260596063D01*
X282090256Y-260482795D01*
X281901898Y-260404774D01*
X281701939Y-260365000D01*
X281498061Y-260365000D01*
X281298102Y-260404774D01*
X281109744Y-260482795D01*
X280940226Y-260596063D01*
X280796063Y-260740226D01*
X280682795Y-260909744D01*
X280604774Y-261098102D01*
X280565000Y-261298061D01*
X280565000Y-261501939D01*
X280604774Y-261701898D01*
X280682795Y-261890256D01*
X280796063Y-262059774D01*
X280940226Y-262203937D01*
X281109744Y-262317205D01*
X281298102Y-262395226D01*
X281354957Y-262406535D01*
X286215000Y-267266579D01*
X286215001Y-267561545D01*
X286182795Y-267609744D01*
X286104774Y-267798102D01*
X286065000Y-267998061D01*
X286065000Y-268201939D01*
X286087489Y-268315000D01*
X251685000Y-268315000D01*
X251685000Y-264093137D01*
X256915000Y-264093137D01*
X256915000Y-264306863D01*
X256956696Y-264516483D01*
X257038485Y-264713940D01*
X257157225Y-264891647D01*
X257308353Y-265042775D01*
X257486060Y-265161515D01*
X257683517Y-265243304D01*
X257893137Y-265285000D01*
X258106863Y-265285000D01*
X258316483Y-265243304D01*
X258513940Y-265161515D01*
X258691647Y-265042775D01*
X258842775Y-264891647D01*
X258961515Y-264713940D01*
X259043304Y-264516483D01*
X259085000Y-264306863D01*
X259085000Y-264093137D01*
X259043304Y-263883517D01*
X258961515Y-263686060D01*
X258842775Y-263508353D01*
X258691647Y-263357225D01*
X258513940Y-263238485D01*
X258316483Y-263156696D01*
X258106863Y-263115000D01*
X257893137Y-263115000D01*
X257683517Y-263156696D01*
X257486060Y-263238485D01*
X257308353Y-263357225D01*
X257157225Y-263508353D01*
X257038485Y-263686060D01*
X256956696Y-263883517D01*
X256915000Y-264093137D01*
X251685000Y-264093137D01*
X251685000Y-259693137D01*
X256915000Y-259693137D01*
X256915000Y-259906863D01*
X256956696Y-260116483D01*
X257038485Y-260313940D01*
X257157225Y-260491647D01*
X257308353Y-260642775D01*
X257486060Y-260761515D01*
X257683517Y-260843304D01*
X257893137Y-260885000D01*
X258106863Y-260885000D01*
X258316483Y-260843304D01*
X258513940Y-260761515D01*
X258691647Y-260642775D01*
X258842775Y-260491647D01*
X258961515Y-260313940D01*
X259043304Y-260116483D01*
X259085000Y-259906863D01*
X259085000Y-259693137D01*
X259043304Y-259483517D01*
X258961515Y-259286060D01*
X258842775Y-259108353D01*
X258691647Y-258957225D01*
X258513940Y-258838485D01*
X258316483Y-258756696D01*
X258106863Y-258715000D01*
X257893137Y-258715000D01*
X257683517Y-258756696D01*
X257486060Y-258838485D01*
X257308353Y-258957225D01*
X257157225Y-259108353D01*
X257038485Y-259286060D01*
X256956696Y-259483517D01*
X256915000Y-259693137D01*
X251685000Y-259693137D01*
X251685000Y-246898061D01*
X261765000Y-246898061D01*
X261765000Y-247101939D01*
X261804774Y-247301898D01*
X261882795Y-247490256D01*
X261915000Y-247538455D01*
X261915001Y-249761544D01*
X261882795Y-249809744D01*
X261804774Y-249998102D01*
X261765000Y-250198061D01*
X261765000Y-250401939D01*
X261804774Y-250601898D01*
X261882795Y-250790256D01*
X261996063Y-250959774D01*
X262140226Y-251103937D01*
X262309744Y-251217205D01*
X262498102Y-251295226D01*
X262698061Y-251335000D01*
X262901939Y-251335000D01*
X263101898Y-251295226D01*
X263290256Y-251217205D01*
X263459774Y-251103937D01*
X263603937Y-250959774D01*
X263717205Y-250790256D01*
X263795226Y-250601898D01*
X263835000Y-250401939D01*
X263835000Y-250198061D01*
X263795226Y-249998102D01*
X263717205Y-249809744D01*
X263685000Y-249761546D01*
X263685000Y-247538454D01*
X263717205Y-247490256D01*
X263795226Y-247301898D01*
X263835000Y-247101939D01*
X263835000Y-246898061D01*
X263795226Y-246698102D01*
X263717205Y-246509744D01*
X263603937Y-246340226D01*
X263459774Y-246196063D01*
X263290256Y-246082795D01*
X263101898Y-246004774D01*
X262901939Y-245965000D01*
X262698061Y-245965000D01*
X262498102Y-246004774D01*
X262309744Y-246082795D01*
X262140226Y-246196063D01*
X261996063Y-246340226D01*
X261882795Y-246509744D01*
X261804774Y-246698102D01*
X261765000Y-246898061D01*
X251685000Y-246898061D01*
X251685000Y-245398061D01*
X265465000Y-245398061D01*
X265465000Y-245601939D01*
X265504774Y-245801898D01*
X265582795Y-245990256D01*
X265696063Y-246159774D01*
X265840226Y-246303937D01*
X266009744Y-246417205D01*
X266198102Y-246495226D01*
X266398061Y-246535000D01*
X266601939Y-246535000D01*
X266801898Y-246495226D01*
X266990256Y-246417205D01*
X267159774Y-246303937D01*
X267228711Y-246235000D01*
X268871289Y-246235000D01*
X268940226Y-246303937D01*
X269109744Y-246417205D01*
X269298102Y-246495226D01*
X269498061Y-246535000D01*
X269701939Y-246535000D01*
X269901898Y-246495226D01*
X270090256Y-246417205D01*
X270259774Y-246303937D01*
X270359163Y-246204548D01*
X270396063Y-246259774D01*
X270540226Y-246403937D01*
X270709744Y-246517205D01*
X270898102Y-246595226D01*
X271098061Y-246635000D01*
X271301939Y-246635000D01*
X271501898Y-246595226D01*
X271690256Y-246517205D01*
X271859774Y-246403937D01*
X272003937Y-246259774D01*
X272117205Y-246090256D01*
X272195226Y-245901898D01*
X272235000Y-245701939D01*
X272235000Y-245604446D01*
X275294193Y-242545254D01*
X275322238Y-242522238D01*
X275414087Y-242410320D01*
X275482337Y-242282633D01*
X275524365Y-242144085D01*
X275535000Y-242036105D01*
X275538556Y-242000000D01*
X275535000Y-241963895D01*
X275535000Y-238928711D01*
X275603937Y-238859774D01*
X275717205Y-238690256D01*
X275795226Y-238501898D01*
X275835000Y-238301939D01*
X275835000Y-238098061D01*
X275795226Y-237898102D01*
X275717205Y-237709744D01*
X275603937Y-237540226D01*
X275459774Y-237396063D01*
X275290256Y-237282795D01*
X275101898Y-237204774D01*
X274901939Y-237165000D01*
X274698061Y-237165000D01*
X274498102Y-237204774D01*
X274309744Y-237282795D01*
X274140226Y-237396063D01*
X273996063Y-237540226D01*
X273882795Y-237709744D01*
X273804774Y-237898102D01*
X273765000Y-238098061D01*
X273765000Y-238301939D01*
X273804774Y-238501898D01*
X273882795Y-238690256D01*
X273996063Y-238859774D01*
X274065000Y-238928711D01*
X274065001Y-241695552D01*
X271331694Y-244428860D01*
X271241233Y-244293475D01*
X271097070Y-244149312D01*
X270927552Y-244036044D01*
X270739194Y-243958023D01*
X270564999Y-243923374D01*
X270564999Y-243349476D01*
X270743589Y-243385000D01*
X271016411Y-243385000D01*
X271283989Y-243331775D01*
X271536043Y-243227371D01*
X271762886Y-243075799D01*
X271955799Y-242882886D01*
X272107371Y-242656043D01*
X272211775Y-242403989D01*
X272265000Y-242136411D01*
X272265000Y-241863589D01*
X272211775Y-241596011D01*
X272107371Y-241343957D01*
X271955799Y-241117114D01*
X271762886Y-240924201D01*
X271536043Y-240772629D01*
X271283989Y-240668225D01*
X271016411Y-240615000D01*
X270743589Y-240615000D01*
X270564999Y-240650524D01*
X270564999Y-235435000D01*
X270601939Y-235435000D01*
X270801898Y-235395226D01*
X270990256Y-235317205D01*
X271159774Y-235203937D01*
X271303937Y-235059774D01*
X271417205Y-234890256D01*
X271495226Y-234701898D01*
X271535000Y-234501939D01*
X271535000Y-234298061D01*
X271532402Y-234284999D01*
X280956532Y-234284999D01*
X281000001Y-234289280D01*
X281043470Y-234284999D01*
X281043478Y-234284999D01*
X281173491Y-234272194D01*
X281340314Y-234221588D01*
X281494060Y-234139410D01*
X281628818Y-234028816D01*
X281647506Y-234006045D01*
X281701898Y-233995226D01*
X281890256Y-233917205D01*
X282059774Y-233803937D01*
X282203937Y-233659774D01*
X282317205Y-233490256D01*
X282395226Y-233301898D01*
X282435000Y-233101939D01*
X282435000Y-232898061D01*
X282395226Y-232698102D01*
X282317205Y-232509744D01*
X282203937Y-232340226D01*
X282059774Y-232196063D01*
X281890256Y-232082795D01*
X281701898Y-232004774D01*
X281501939Y-231965000D01*
X281298061Y-231965000D01*
X281098102Y-232004774D01*
X280909744Y-232082795D01*
X280740226Y-232196063D01*
X280596063Y-232340226D01*
X280482795Y-232509744D01*
X280480618Y-232514999D01*
X279554032Y-232514999D01*
X279587932Y-232433158D01*
X279645000Y-232146260D01*
X279645000Y-231853740D01*
X279587932Y-231566842D01*
X279475990Y-231296589D01*
X279313475Y-231053368D01*
X279106632Y-230846525D01*
X278863411Y-230684010D01*
X278593158Y-230572068D01*
X278306260Y-230515000D01*
X278013740Y-230515000D01*
X277726842Y-230572068D01*
X277456589Y-230684010D01*
X277213368Y-230846525D01*
X277006525Y-231053368D01*
X276890000Y-231227760D01*
X276773475Y-231053368D01*
X276566632Y-230846525D01*
X276323411Y-230684010D01*
X276053158Y-230572068D01*
X275766260Y-230515000D01*
X275473740Y-230515000D01*
X275186842Y-230572068D01*
X274916589Y-230684010D01*
X274673368Y-230846525D01*
X274466525Y-231053368D01*
X274344805Y-231235534D01*
X274275178Y-231118645D01*
X274080269Y-230902412D01*
X273846920Y-230728359D01*
X273584099Y-230603175D01*
X273436890Y-230558524D01*
X273207000Y-230679845D01*
X273207000Y-231873000D01*
X273227000Y-231873000D01*
X273227000Y-232127000D01*
X273207000Y-232127000D01*
X273207000Y-232147000D01*
X272953000Y-232147000D01*
X272953000Y-232127000D01*
X272933000Y-232127000D01*
X272933000Y-231873000D01*
X272953000Y-231873000D01*
X272953000Y-230679845D01*
X272723110Y-230558524D01*
X272575901Y-230603175D01*
X272313080Y-230728359D01*
X272079731Y-230902412D01*
X271884822Y-231118645D01*
X271815195Y-231235534D01*
X271693475Y-231053368D01*
X271486632Y-230846525D01*
X271243411Y-230684010D01*
X270973158Y-230572068D01*
X270686260Y-230515000D01*
X270393740Y-230515000D01*
X270106842Y-230572068D01*
X269836589Y-230684010D01*
X269593368Y-230846525D01*
X269461513Y-230978380D01*
X269439502Y-230905820D01*
X269380537Y-230795506D01*
X269301185Y-230698815D01*
X269204494Y-230619463D01*
X269094180Y-230560498D01*
X268974482Y-230524188D01*
X268850000Y-230511928D01*
X267150000Y-230511928D01*
X267025518Y-230524188D01*
X266905820Y-230560498D01*
X266795506Y-230619463D01*
X266698815Y-230698815D01*
X266619463Y-230795506D01*
X266560498Y-230905820D01*
X266524188Y-231025518D01*
X266511928Y-231150000D01*
X266511928Y-232850000D01*
X266524188Y-232974482D01*
X266560498Y-233094180D01*
X266619463Y-233204494D01*
X266698815Y-233301185D01*
X266795506Y-233380537D01*
X266905820Y-233439502D01*
X267025518Y-233475812D01*
X267150000Y-233488072D01*
X267560350Y-233488072D01*
X267454957Y-233593465D01*
X267398102Y-233604774D01*
X267209744Y-233682795D01*
X267040226Y-233796063D01*
X266896063Y-233940226D01*
X266782795Y-234109744D01*
X266704774Y-234298102D01*
X266665000Y-234498061D01*
X266665000Y-234701939D01*
X266704774Y-234901898D01*
X266782795Y-235090256D01*
X266896063Y-235259774D01*
X267040226Y-235403937D01*
X267209744Y-235517205D01*
X267398102Y-235595226D01*
X267598061Y-235635000D01*
X267801939Y-235635000D01*
X268001898Y-235595226D01*
X268190256Y-235517205D01*
X268359774Y-235403937D01*
X268503937Y-235259774D01*
X268617205Y-235090256D01*
X268695226Y-234901898D01*
X268706535Y-234845043D01*
X269266580Y-234284999D01*
X269467598Y-234284999D01*
X269465000Y-234298061D01*
X269465000Y-234395554D01*
X269335807Y-234524747D01*
X269307761Y-234547764D01*
X269215912Y-234659682D01*
X269147662Y-234787369D01*
X269140700Y-234810320D01*
X269105634Y-234925916D01*
X269091443Y-235070001D01*
X269094999Y-235106106D01*
X269095000Y-244592647D01*
X268940226Y-244696063D01*
X268871289Y-244765000D01*
X267228711Y-244765000D01*
X267159774Y-244696063D01*
X266990256Y-244582795D01*
X266801898Y-244504774D01*
X266601939Y-244465000D01*
X266398061Y-244465000D01*
X266198102Y-244504774D01*
X266009744Y-244582795D01*
X265840226Y-244696063D01*
X265696063Y-244840226D01*
X265582795Y-245009744D01*
X265504774Y-245198102D01*
X265465000Y-245398061D01*
X251685000Y-245398061D01*
X251685000Y-241863589D01*
X264615000Y-241863589D01*
X264615000Y-242136411D01*
X264668225Y-242403989D01*
X264772629Y-242656043D01*
X264924201Y-242882886D01*
X265117114Y-243075799D01*
X265343957Y-243227371D01*
X265596011Y-243331775D01*
X265863589Y-243385000D01*
X266136411Y-243385000D01*
X266403989Y-243331775D01*
X266656043Y-243227371D01*
X266882886Y-243075799D01*
X267075799Y-242882886D01*
X267227371Y-242656043D01*
X267331775Y-242403989D01*
X267385000Y-242136411D01*
X267385000Y-241863589D01*
X267331775Y-241596011D01*
X267227371Y-241343957D01*
X267075799Y-241117114D01*
X266882886Y-240924201D01*
X266656043Y-240772629D01*
X266403989Y-240668225D01*
X266136411Y-240615000D01*
X265863589Y-240615000D01*
X265596011Y-240668225D01*
X265343957Y-240772629D01*
X265117114Y-240924201D01*
X264924201Y-241117114D01*
X264772629Y-241343957D01*
X264668225Y-241596011D01*
X264615000Y-241863589D01*
X251685000Y-241863589D01*
X251685000Y-229685000D01*
X290315000Y-229685000D01*
X290315001Y-268315000D01*
M02*
