G04 #@! TF.GenerationSoftware,KiCad,Pcbnew,5.1.5-52549c5~84~ubuntu18.04.1*
G04 #@! TF.CreationDate,2020-02-03T11:01:42+01:00*
G04 #@! TF.ProjectId,lab1,6c616231-2e6b-4696-9361-645f70636258,rev?*
G04 #@! TF.SameCoordinates,Original*
G04 #@! TF.FileFunction,Soldermask,Bot*
G04 #@! TF.FilePolarity,Negative*
%FSLAX46Y46*%
G04 Gerber Fmt 4.6, Leading zero omitted, Abs format (unit mm)*
G04 Created by KiCad (PCBNEW 5.1.5-52549c5~84~ubuntu18.04.1) date 2020-02-03 11:01:42*
%MOMM*%
%LPD*%
G04 APERTURE LIST*
%ADD10C,0.100000*%
G04 APERTURE END LIST*
D10*
G36*
X258097740Y-263708626D02*
G01*
X258146136Y-263718253D01*
X258183902Y-263733896D01*
X258237311Y-263756019D01*
X258237312Y-263756020D01*
X258319369Y-263810848D01*
X258389152Y-263880631D01*
X258389153Y-263880633D01*
X258443981Y-263962689D01*
X258481747Y-264053865D01*
X258501000Y-264150655D01*
X258501000Y-264249345D01*
X258481747Y-264346135D01*
X258443981Y-264437311D01*
X258443980Y-264437312D01*
X258389152Y-264519369D01*
X258319369Y-264589152D01*
X258278062Y-264616752D01*
X258237311Y-264643981D01*
X258183902Y-264666104D01*
X258146136Y-264681747D01*
X258097740Y-264691374D01*
X258049345Y-264701000D01*
X257950655Y-264701000D01*
X257902260Y-264691374D01*
X257853864Y-264681747D01*
X257816098Y-264666104D01*
X257762689Y-264643981D01*
X257721938Y-264616752D01*
X257680631Y-264589152D01*
X257610848Y-264519369D01*
X257556020Y-264437312D01*
X257556019Y-264437311D01*
X257518253Y-264346135D01*
X257499000Y-264249345D01*
X257499000Y-264150655D01*
X257518253Y-264053865D01*
X257556019Y-263962689D01*
X257610847Y-263880633D01*
X257610848Y-263880631D01*
X257680631Y-263810848D01*
X257762688Y-263756020D01*
X257762689Y-263756019D01*
X257816098Y-263733896D01*
X257853864Y-263718253D01*
X257902260Y-263708626D01*
X257950655Y-263699000D01*
X258049345Y-263699000D01*
X258097740Y-263708626D01*
G37*
G36*
X258097740Y-259308626D02*
G01*
X258146136Y-259318253D01*
X258183902Y-259333896D01*
X258237311Y-259356019D01*
X258237312Y-259356020D01*
X258319369Y-259410848D01*
X258389152Y-259480631D01*
X258389153Y-259480633D01*
X258443981Y-259562689D01*
X258481747Y-259653865D01*
X258501000Y-259750655D01*
X258501000Y-259849345D01*
X258481747Y-259946135D01*
X258443981Y-260037311D01*
X258443980Y-260037312D01*
X258389152Y-260119369D01*
X258319369Y-260189152D01*
X258278062Y-260216752D01*
X258237311Y-260243981D01*
X258183902Y-260266104D01*
X258146136Y-260281747D01*
X258097740Y-260291374D01*
X258049345Y-260301000D01*
X257950655Y-260301000D01*
X257902260Y-260291374D01*
X257853864Y-260281747D01*
X257816098Y-260266104D01*
X257762689Y-260243981D01*
X257721938Y-260216752D01*
X257680631Y-260189152D01*
X257610848Y-260119369D01*
X257556020Y-260037312D01*
X257556019Y-260037311D01*
X257518253Y-259946135D01*
X257499000Y-259849345D01*
X257499000Y-259750655D01*
X257518253Y-259653865D01*
X257556019Y-259562689D01*
X257610847Y-259480633D01*
X257610848Y-259480631D01*
X257680631Y-259410848D01*
X257762688Y-259356020D01*
X257762689Y-259356019D01*
X257816098Y-259333896D01*
X257853864Y-259318253D01*
X257902260Y-259308626D01*
X257950655Y-259299000D01*
X258049345Y-259299000D01*
X258097740Y-259308626D01*
G37*
G36*
X271113642Y-241229781D02*
G01*
X271259414Y-241290162D01*
X271259416Y-241290163D01*
X271390608Y-241377822D01*
X271502178Y-241489392D01*
X271589837Y-241620584D01*
X271589838Y-241620586D01*
X271650219Y-241766358D01*
X271681000Y-241921107D01*
X271681000Y-242078893D01*
X271650219Y-242233642D01*
X271589838Y-242379414D01*
X271589837Y-242379416D01*
X271502178Y-242510608D01*
X271390608Y-242622178D01*
X271259416Y-242709837D01*
X271259415Y-242709838D01*
X271259414Y-242709838D01*
X271113642Y-242770219D01*
X270958893Y-242801000D01*
X270801107Y-242801000D01*
X270646358Y-242770219D01*
X270500586Y-242709838D01*
X270500585Y-242709838D01*
X270500584Y-242709837D01*
X270369392Y-242622178D01*
X270257822Y-242510608D01*
X270170163Y-242379416D01*
X270170162Y-242379414D01*
X270109781Y-242233642D01*
X270079000Y-242078893D01*
X270079000Y-241921107D01*
X270109781Y-241766358D01*
X270170162Y-241620586D01*
X270170163Y-241620584D01*
X270257822Y-241489392D01*
X270369392Y-241377822D01*
X270500584Y-241290163D01*
X270500586Y-241290162D01*
X270646358Y-241229781D01*
X270801107Y-241199000D01*
X270958893Y-241199000D01*
X271113642Y-241229781D01*
G37*
G36*
X266233642Y-241229781D02*
G01*
X266379414Y-241290162D01*
X266379416Y-241290163D01*
X266510608Y-241377822D01*
X266622178Y-241489392D01*
X266709837Y-241620584D01*
X266709838Y-241620586D01*
X266770219Y-241766358D01*
X266801000Y-241921107D01*
X266801000Y-242078893D01*
X266770219Y-242233642D01*
X266709838Y-242379414D01*
X266709837Y-242379416D01*
X266622178Y-242510608D01*
X266510608Y-242622178D01*
X266379416Y-242709837D01*
X266379415Y-242709838D01*
X266379414Y-242709838D01*
X266233642Y-242770219D01*
X266078893Y-242801000D01*
X265921107Y-242801000D01*
X265766358Y-242770219D01*
X265620586Y-242709838D01*
X265620585Y-242709838D01*
X265620584Y-242709837D01*
X265489392Y-242622178D01*
X265377822Y-242510608D01*
X265290163Y-242379416D01*
X265290162Y-242379414D01*
X265229781Y-242233642D01*
X265199000Y-242078893D01*
X265199000Y-241921107D01*
X265229781Y-241766358D01*
X265290162Y-241620586D01*
X265290163Y-241620584D01*
X265377822Y-241489392D01*
X265489392Y-241377822D01*
X265620584Y-241290163D01*
X265620586Y-241290162D01*
X265766358Y-241229781D01*
X265921107Y-241199000D01*
X266078893Y-241199000D01*
X266233642Y-241229781D01*
G37*
G36*
X273193512Y-231103927D02*
G01*
X273342812Y-231133624D01*
X273506784Y-231201544D01*
X273654354Y-231300147D01*
X273779853Y-231425646D01*
X273878456Y-231573216D01*
X273946376Y-231737188D01*
X273981000Y-231911259D01*
X273981000Y-232088741D01*
X273946376Y-232262812D01*
X273878456Y-232426784D01*
X273779853Y-232574354D01*
X273654354Y-232699853D01*
X273506784Y-232798456D01*
X273342812Y-232866376D01*
X273193512Y-232896073D01*
X273168742Y-232901000D01*
X272991258Y-232901000D01*
X272966488Y-232896073D01*
X272817188Y-232866376D01*
X272653216Y-232798456D01*
X272505646Y-232699853D01*
X272380147Y-232574354D01*
X272281544Y-232426784D01*
X272213624Y-232262812D01*
X272179000Y-232088741D01*
X272179000Y-231911259D01*
X272213624Y-231737188D01*
X272281544Y-231573216D01*
X272380147Y-231425646D01*
X272505646Y-231300147D01*
X272653216Y-231201544D01*
X272817188Y-231133624D01*
X272966488Y-231103927D01*
X272991258Y-231099000D01*
X273168742Y-231099000D01*
X273193512Y-231103927D01*
G37*
G36*
X270653512Y-231103927D02*
G01*
X270802812Y-231133624D01*
X270966784Y-231201544D01*
X271114354Y-231300147D01*
X271239853Y-231425646D01*
X271338456Y-231573216D01*
X271406376Y-231737188D01*
X271441000Y-231911259D01*
X271441000Y-232088741D01*
X271406376Y-232262812D01*
X271338456Y-232426784D01*
X271239853Y-232574354D01*
X271114354Y-232699853D01*
X270966784Y-232798456D01*
X270802812Y-232866376D01*
X270653512Y-232896073D01*
X270628742Y-232901000D01*
X270451258Y-232901000D01*
X270426488Y-232896073D01*
X270277188Y-232866376D01*
X270113216Y-232798456D01*
X269965646Y-232699853D01*
X269840147Y-232574354D01*
X269741544Y-232426784D01*
X269673624Y-232262812D01*
X269639000Y-232088741D01*
X269639000Y-231911259D01*
X269673624Y-231737188D01*
X269741544Y-231573216D01*
X269840147Y-231425646D01*
X269965646Y-231300147D01*
X270113216Y-231201544D01*
X270277188Y-231133624D01*
X270426488Y-231103927D01*
X270451258Y-231099000D01*
X270628742Y-231099000D01*
X270653512Y-231103927D01*
G37*
G36*
X268901000Y-232901000D02*
G01*
X267099000Y-232901000D01*
X267099000Y-231099000D01*
X268901000Y-231099000D01*
X268901000Y-232901000D01*
G37*
G36*
X278273512Y-231103927D02*
G01*
X278422812Y-231133624D01*
X278586784Y-231201544D01*
X278734354Y-231300147D01*
X278859853Y-231425646D01*
X278958456Y-231573216D01*
X279026376Y-231737188D01*
X279061000Y-231911259D01*
X279061000Y-232088741D01*
X279026376Y-232262812D01*
X278958456Y-232426784D01*
X278859853Y-232574354D01*
X278734354Y-232699853D01*
X278586784Y-232798456D01*
X278422812Y-232866376D01*
X278273512Y-232896073D01*
X278248742Y-232901000D01*
X278071258Y-232901000D01*
X278046488Y-232896073D01*
X277897188Y-232866376D01*
X277733216Y-232798456D01*
X277585646Y-232699853D01*
X277460147Y-232574354D01*
X277361544Y-232426784D01*
X277293624Y-232262812D01*
X277259000Y-232088741D01*
X277259000Y-231911259D01*
X277293624Y-231737188D01*
X277361544Y-231573216D01*
X277460147Y-231425646D01*
X277585646Y-231300147D01*
X277733216Y-231201544D01*
X277897188Y-231133624D01*
X278046488Y-231103927D01*
X278071258Y-231099000D01*
X278248742Y-231099000D01*
X278273512Y-231103927D01*
G37*
G36*
X275733512Y-231103927D02*
G01*
X275882812Y-231133624D01*
X276046784Y-231201544D01*
X276194354Y-231300147D01*
X276319853Y-231425646D01*
X276418456Y-231573216D01*
X276486376Y-231737188D01*
X276521000Y-231911259D01*
X276521000Y-232088741D01*
X276486376Y-232262812D01*
X276418456Y-232426784D01*
X276319853Y-232574354D01*
X276194354Y-232699853D01*
X276046784Y-232798456D01*
X275882812Y-232866376D01*
X275733512Y-232896073D01*
X275708742Y-232901000D01*
X275531258Y-232901000D01*
X275506488Y-232896073D01*
X275357188Y-232866376D01*
X275193216Y-232798456D01*
X275045646Y-232699853D01*
X274920147Y-232574354D01*
X274821544Y-232426784D01*
X274753624Y-232262812D01*
X274719000Y-232088741D01*
X274719000Y-231911259D01*
X274753624Y-231737188D01*
X274821544Y-231573216D01*
X274920147Y-231425646D01*
X275045646Y-231300147D01*
X275193216Y-231201544D01*
X275357188Y-231133624D01*
X275506488Y-231103927D01*
X275531258Y-231099000D01*
X275708742Y-231099000D01*
X275733512Y-231103927D01*
G37*
M02*
